SplineFontDB: 3.0
FontName: RisingSun-Bold
FullName: Rising Sun Bold
FamilyName: Rising Sun
Weight: Bold
Copyright: Copyright (c) 2010 - 2013, Matt McInerney (matt@pixelspread.com), Pablo Impallari (impallari@gmail.com), Rodrigo Fuenzalida (hello@rfuenzalida.com) with Reserved Font Name RALEWAY.\nCopyright (c) 2016, Cristiano Sobral (cssobral2013@gmail.com), with Reserved Font Name RISING SUN.
Version: 1.000
ItalicAngle: 0
UnderlinePosition: -100
UnderlineWidth: 50
Ascent: 800
Descent: 200
InvalidEm: 0
sfntRevision: 0x00010000
LayerCount: 2
Layer: 0 1 "Back" 1
Layer: 1 1 "Fore" 0
XUID: [1021 368 144034212 20201]
StyleMap: 0x0020
FSType: 4
OS2Version: 3
OS2_WeightWidthSlopeOnly: 0
OS2_UseTypoMetrics: 0
CreationTime: 1380014460
ModificationTime: 1466169095
PfmFamily: 17
TTFWeight: 700
TTFWidth: 5
LineGap: 0
VLineGap: 0
Panose: 2 11 8 3 3 1 1 6 0 3
OS2TypoAscent: 800
OS2TypoAOffset: 0
OS2TypoDescent: -200
OS2TypoDOffset: 0
OS2TypoLinegap: 0
OS2WinAscent: 923
OS2WinAOffset: 0
OS2WinDescent: 249
OS2WinDOffset: 0
HheadAscent: 923
HheadAOffset: 0
HheadDescent: -249
HheadDOffset: 0
OS2SubXSize: 700
OS2SubYSize: 650
OS2SubXOff: 0
OS2SubYOff: 140
OS2SupXSize: 700
OS2SupYSize: 650
OS2SupXOff: 0
OS2SupYOff: 477
OS2StrikeYSize: 50
OS2StrikeYPos: 250
OS2CapHeight: 710
OS2XHeight: 524
OS2Vendor: 'pyrs'
OS2CodePages: 20000097.00000000
OS2UnicodeRanges: a00002ff.5000205b.00000000.00000000
Lookup: 1 0 0 "'aalt' Access All Alternates in Latin lookup 0" { "'aalt' Access All Alternates in Latin lookup 0 subtable"  } ['aalt' ('latn' <'dflt' > ) ]
Lookup: 3 0 0 "'aalt' Access All Alternates in Latin lookup 1" { "'aalt' Access All Alternates in Latin lookup 1 subtable"  } ['aalt' ('latn' <'dflt' > ) ]
Lookup: 1 0 0 "'smcp' Lowercase to Small Capitals in Latin lookup 2" { "'smcp' Lowercase to Small Capitals in Latin lookup 2 subtable"  } ['smcp' ('latn' <'dflt' > ) ]

StartChar: exclam
Encoding: 33 33 5
Width: 307
GlyphClass: 2
Flags: W
LayerCount: 2
Fore
SplineSet
87 267 m 1,0,-1
 87 717 l 1,1,-1
 221 717 l 1,2,-1
 221 267 l 1,3,-1
 87 267 l 1,0,-1
87 0 m 1,4,-1
 87 151 l 1,5,-1
 221 151 l 1,6,-1
 221 0 l 1,7,-1
 87 0 l 1,4,-1
EndSplineSet
EndChar

StartChar: quotedbl
Encoding: 34 34 6
Width: 393
GlyphClass: 2
Flags: W
LayerCount: 2
Fore
SplineSet
61 499 m 1,0,-1
 61 723 l 1,1,-1
 175 723 l 1,2,-1
 175 499 l 1,3,-1
 61 499 l 1,0,-1
218 499 m 1,4,-1
 218 723 l 1,5,-1
 332 723 l 1,6,-1
 332 499 l 1,7,-1
 218 499 l 1,4,-1
EndSplineSet
EndChar

StartChar: numbersign
Encoding: 35 35 7
Width: 721
GlyphClass: 2
Flags: W
LayerCount: 2
Fore
SplineSet
685 424 m 1,0,-1
 539 424 l 1,1,-1
 507 287 l 1,2,-1
 638 287 l 1,3,-1
 638 187 l 1,4,-1
 483 187 l 1,5,-1
 437 0 l 1,6,-1
 329 0 l 1,7,-1
 376 187 l 1,8,-1
 256 187 l 1,9,-1
 211 0 l 1,10,-1
 103 0 l 1,11,-1
 149 187 l 1,12,-1
 37 187 l 1,13,-1
 37 287 l 1,14,-1
 173 287 l 1,15,-1
 206 424 l 1,16,-1
 84 424 l 1,17,-1
 84 518 l 1,18,-1
 229 518 l 1,19,-1
 276 710 l 1,20,-1
 384 710 l 1,21,-1
 336 518 l 1,22,-1
 456 518 l 1,23,-1
 502 710 l 1,24,-1
 610 710 l 1,25,-1
 563 518 l 1,26,-1
 685 518 l 1,27,-1
 685 424 l 1,0,-1
400 287 m 1,28,-1
 432 424 l 1,29,-1
 313 424 l 1,30,-1
 280 287 l 1,31,-1
 400 287 l 1,28,-1
EndSplineSet
EndChar

StartChar: dollar
Encoding: 36 36 8
Width: 634
GlyphClass: 2
Flags: W
LayerCount: 2
Fore
SplineSet
509 524 m 1,0,1
 503 531 503 531 486.5 541 c 128,-1,2
 470 551 470 551 447.5 561.5 c 128,-1,3
 425 572 425 572 398 580.5 c 128,-1,4
 371 589 371 589 342 592 c 1,5,-1
 342 419 l 1,6,-1
 367 413 l 2,7,8
 419 399 419 399 461.5 383 c 128,-1,9
 504 367 504 367 533.5 343 c 128,-1,10
 563 319 563 319 579 285.5 c 128,-1,11
 595 252 595 252 595 203 c 0,12,13
 595 148 595 148 575.5 109 c 128,-1,14
 556 70 556 70 522.5 45 c 128,-1,15
 489 20 489 20 444.5 7.5 c 128,-1,16
 400 -5 400 -5 351 -7 c 1,17,-1
 351 -117 l 1,18,-1
 291 -117 l 1,19,-1
 291 -6 l 1,20,21
 221 -1 221 -1 154.5 22.5 c 128,-1,22
 88 46 88 46 34 84 c 1,23,-1
 95 203 l 1,24,25
 103 195 103 195 122.5 182 c 128,-1,26
 142 169 142 169 169.5 156.5 c 128,-1,27
 197 144 197 144 230.5 133 c 128,-1,28
 264 122 264 122 300 118 c 1,29,-1
 300 290 l 1,30,31
 291 292 291 292 282 294.5 c 128,-1,32
 273 297 273 297 264 300 c 0,33,34
 213 314 213 314 175.5 330.5 c 128,-1,35
 138 347 138 347 113 369.5 c 128,-1,36
 88 392 88 392 75.5 421.5 c 128,-1,37
 63 451 63 451 63 492 c 0,38,39
 63 542 63 542 80.5 581.5 c 128,-1,40
 98 621 98 621 128.5 649 c 128,-1,41
 159 677 159 677 201 693 c 128,-1,42
 243 709 243 709 291 713 c 1,43,-1
 291 815 l 1,44,-1
 351 815 l 1,45,-1
 351 714 l 1,46,47
 417 709 417 709 472.5 687 c 128,-1,48
 528 665 528 665 570 636 c 1,49,-1
 509 524 l 1,0,1
448 189 m 0,50,51
 448 223 448 223 420 242 c 128,-1,52
 392 261 392 261 342 277 c 1,53,-1
 342 116 l 1,54,55
 448 119 448 119 448 189 c 0,50,51
205 514 m 0,56,57
 205 480 205 480 228.5 462.5 c 128,-1,58
 252 445 252 445 300 431 c 1,59,-1
 300 593 l 1,60,61
 205 587 205 587 205 514 c 0,56,57
EndSplineSet
EndChar

StartChar: percent
Encoding: 37 37 9
Width: 786
GlyphClass: 2
Flags: W
LayerCount: 2
Fore
SplineSet
200 417 m 0,0,1
 165 417 165 417 135 429 c 128,-1,2
 105 441 105 441 83 461.5 c 128,-1,3
 61 482 61 482 48 509.5 c 128,-1,4
 35 537 35 537 35 569 c 0,5,6
 35 600 35 600 48 628 c 128,-1,7
 61 656 61 656 83 676 c 128,-1,8
 105 696 105 696 135 708 c 128,-1,9
 165 720 165 720 200 720 c 0,10,11
 234 720 234 720 264.5 708 c 128,-1,12
 295 696 295 696 317 676 c 128,-1,13
 339 656 339 656 352 628 c 128,-1,14
 365 600 365 600 365 569 c 0,15,16
 365 537 365 537 352 509.5 c 128,-1,17
 339 482 339 482 317 461.5 c 128,-1,18
 295 441 295 441 264.5 429 c 128,-1,19
 234 417 234 417 200 417 c 0,0,1
200 484 m 0,20,21
 215 484 215 484 227.5 491 c 128,-1,22
 240 498 240 498 250 509.5 c 128,-1,23
 260 521 260 521 265.5 536.5 c 128,-1,24
 271 552 271 552 271 569 c 0,25,26
 271 604 271 604 250 628.5 c 128,-1,27
 229 653 229 653 200 653 c 0,28,29
 185 653 185 653 172.5 646 c 128,-1,30
 160 639 160 639 150 627.5 c 128,-1,31
 140 616 140 616 134.5 601 c 128,-1,32
 129 586 129 586 129 569 c 0,33,34
 129 534 129 534 150 509 c 128,-1,35
 171 484 171 484 200 484 c 0,20,21
586 -10 m 256,36,37
 551 -10 551 -10 521 2 c 128,-1,38
 491 14 491 14 469 34 c 128,-1,39
 447 54 447 54 434 81.5 c 128,-1,40
 421 109 421 109 421 141 c 256,41,42
 421 173 421 173 434 200.5 c 128,-1,43
 447 228 447 228 469 248.5 c 128,-1,44
 491 269 491 269 521 281 c 128,-1,45
 551 293 551 293 586 293 c 256,46,47
 621 293 621 293 651 281 c 128,-1,48
 681 269 681 269 703.5 248.5 c 128,-1,49
 726 228 726 228 738.5 200.5 c 128,-1,50
 751 173 751 173 751 141 c 256,51,52
 751 109 751 109 738.5 81.5 c 128,-1,53
 726 54 726 54 703.5 34 c 128,-1,54
 681 14 681 14 651 2 c 128,-1,55
 621 -10 621 -10 586 -10 c 256,36,37
586 57 m 0,56,57
 601 57 601 57 613.5 64 c 128,-1,58
 626 71 626 71 636 82.5 c 128,-1,59
 646 94 646 94 651.5 109 c 128,-1,60
 657 124 657 124 657 141 c 0,61,62
 657 159 657 159 651 174.5 c 128,-1,63
 645 190 645 190 635.5 201.5 c 128,-1,64
 626 213 626 213 613 219.5 c 128,-1,65
 600 226 600 226 586 226 c 0,66,67
 571 226 571 226 558.5 219 c 128,-1,68
 546 212 546 212 536 200.5 c 128,-1,69
 526 189 526 189 520.5 173.5 c 128,-1,70
 515 158 515 158 515 141 c 0,71,72
 515 106 515 106 536 81.5 c 128,-1,73
 557 57 557 57 586 57 c 0,56,57
91 47 m 1,74,-1
 373 376 l 1,75,-1
 633 718 l 1,76,-1
 694 664 l 1,77,-1
 421 341 l 1,78,-1
 152 -7 l 1,79,-1
 91 47 l 1,74,-1
EndSplineSet
EndChar

StartChar: ampersand
Encoding: 38 38 10
Width: 712
GlyphClass: 2
Flags: W
LayerCount: 2
Fore
SplineSet
536 0 m 1,0,-1
 480 59 l 1,1,2
 436 25 436 25 385 7.5 c 128,-1,3
 334 -10 334 -10 280 -10 c 0,4,5
 225 -10 225 -10 180.5 7 c 128,-1,6
 136 24 136 24 105 53 c 128,-1,7
 74 82 74 82 57 120.5 c 128,-1,8
 40 159 40 159 40 201 c 0,9,10
 40 234 40 234 50 262 c 128,-1,11
 60 290 60 290 77.5 313.5 c 128,-1,12
 95 337 95 337 117.5 357 c 128,-1,13
 140 377 140 377 165 394 c 1,14,15
 122 442 122 442 104.5 476.5 c 128,-1,16
 87 511 87 511 87 549 c 256,17,18
 87 587 87 587 102 618.5 c 128,-1,19
 117 650 117 650 143 672.5 c 128,-1,20
 169 695 169 695 204.5 707 c 128,-1,21
 240 719 240 719 282 719 c 0,22,23
 319 719 319 719 353 709 c 128,-1,24
 387 699 387 699 413 679.5 c 128,-1,25
 439 660 439 660 455 630.5 c 128,-1,26
 471 601 471 601 471 562 c 0,27,28
 471 504 471 504 437 460.5 c 128,-1,29
 403 417 403 417 350 379 c 1,30,-1
 486 237 l 1,31,32
 501 269 501 269 509.5 307 c 128,-1,33
 518 345 518 345 518 389 c 1,34,-1
 627 389 l 1,35,36
 626 318 626 318 610 260 c 128,-1,37
 594 202 594 202 565 154 c 1,38,-1
 712 0 l 1,39,-1
 536 0 l 1,0,-1
293 95 m 0,40,41
 355 95 355 95 408 136 c 1,42,-1
 244 309 l 1,43,44
 209 284 209 284 189 258 c 128,-1,45
 169 232 169 232 169 200 c 0,46,47
 169 179 169 179 178 159.5 c 128,-1,48
 187 140 187 140 203.5 126 c 128,-1,49
 220 112 220 112 243 103.5 c 128,-1,50
 266 95 266 95 293 95 c 0,40,41
209 553 m 0,51,52
 209 544 209 544 212 535.5 c 128,-1,53
 215 527 215 527 222 517 c 128,-1,54
 229 507 229 507 240.5 494 c 128,-1,55
 252 481 252 481 270 462 c 1,56,57
 308 488 308 488 328 510.5 c 128,-1,58
 348 533 348 533 348 560 c 256,59,60
 348 587 348 587 329.5 603.5 c 128,-1,61
 311 620 311 620 282 620 c 0,62,63
 250 620 250 620 229.5 600.5 c 128,-1,64
 209 581 209 581 209 553 c 0,51,52
EndSplineSet
EndChar

StartChar: quotesingle
Encoding: 39 39 11
Width: 235
GlyphClass: 2
Flags: W
LayerCount: 2
Fore
SplineSet
61 499 m 1,0,-1
 61 723 l 1,1,-1
 175 723 l 1,2,-1
 175 499 l 1,3,-1
 61 499 l 1,0,-1
EndSplineSet
EndChar

StartChar: parenleft
Encoding: 40 40 12
Width: 310
GlyphClass: 2
Flags: W
LayerCount: 2
Fore
SplineSet
34 347 m 256,0,1
 34 398 34 398 45.5 448.5 c 128,-1,2
 57 499 57 499 77.5 550 c 128,-1,3
 98 601 98 601 125 652.5 c 128,-1,4
 152 704 152 704 183 757 c 1,5,-1
 285 714 l 1,6,7
 269 690 269 690 247.5 648.5 c 128,-1,8
 226 607 226 607 206.5 556.5 c 128,-1,9
 187 506 187 506 173 450.5 c 128,-1,10
 159 395 159 395 159 344 c 0,11,12
 159 263 159 263 193.5 176 c 128,-1,13
 228 89 228 89 282 -4 c 1,14,-1
 184 -53 l 1,15,16
 153 -7 153 -7 125.5 42.5 c 128,-1,17
 98 92 98 92 78 143 c 128,-1,18
 58 194 58 194 46 245 c 128,-1,19
 34 296 34 296 34 347 c 256,0,1
EndSplineSet
EndChar

StartChar: parenright
Encoding: 41 41 13
Width: 309
GlyphClass: 2
Flags: W
LayerCount: 2
Fore
SplineSet
275 347 m 256,0,1
 275 296 275 296 263 245 c 128,-1,2
 251 194 251 194 231 143 c 128,-1,3
 211 92 211 92 183.5 42.5 c 128,-1,4
 156 -7 156 -7 125 -53 c 1,5,-1
 27 -4 l 1,6,7
 82 89 82 89 116 176 c 128,-1,8
 150 263 150 263 150 344 c 0,9,10
 150 395 150 395 136 450.5 c 128,-1,11
 122 506 122 506 102.5 556.5 c 128,-1,12
 83 607 83 607 61.5 648.5 c 128,-1,13
 40 690 40 690 24 714 c 1,14,-1
 127 757 l 1,15,16
 158 704 158 704 185 652.5 c 128,-1,17
 212 601 212 601 232 550 c 128,-1,18
 252 499 252 499 263.5 448.5 c 128,-1,19
 275 398 275 398 275 347 c 256,0,1
EndSplineSet
EndChar

StartChar: asterisk
Encoding: 42 42 14
Width: 345
GlyphClass: 2
Flags: W
LayerCount: 2
Fore
SplineSet
75 520 m 1,0,-1
 122 591 l 1,1,-1
 51 613 l 1,2,-1
 69 671 l 1,3,-1
 142 640 l 1,4,-1
 137 717 l 1,5,-1
 208 717 l 1,6,-1
 203 640 l 1,7,-1
 275 671 l 1,8,-1
 293 613 l 1,9,-1
 223 591 l 1,10,-1
 270 520 l 1,11,-1
 218 486 l 1,12,-1
 173 561 l 1,13,-1
 127 486 l 1,14,-1
 75 520 l 1,0,-1
EndSplineSet
EndChar

StartChar: plus
Encoding: 43 43 15
Width: 421
GlyphClass: 2
Flags: W
LayerCount: 2
Fore
SplineSet
374 409 m 1,0,-1
 374 301 l 1,1,-1
 271 301 l 1,2,-1
 271 188 l 1,3,-1
 150 188 l 1,4,-1
 150 301 l 1,5,-1
 47 301 l 1,6,-1
 47 409 l 1,7,-1
 150 409 l 1,8,-1
 150 522 l 1,9,-1
 271 522 l 1,10,-1
 271 409 l 1,11,-1
 374 409 l 1,0,-1
EndSplineSet
EndChar

StartChar: comma
Encoding: 44 44 16
Width: 232
GlyphClass: 2
Flags: W
LayerCount: 2
Fore
SplineSet
73 -115 m 1,0,-1
 100 4 l 1,1,-1
 58 4 l 1,2,-1
 58 144 l 1,3,-1
 174 144 l 1,4,-1
 174 4 l 1,5,-1
 133 -115 l 1,6,-1
 73 -115 l 1,0,-1
EndSplineSet
EndChar

StartChar: hyphen
Encoding: 45 45 17
Width: 418
GlyphClass: 2
Flags: W
LayerCount: 2
Fore
SplineSet
58 214 m 1,0,-1
 58 335 l 1,1,-1
 361 335 l 1,2,-1
 361 214 l 1,3,-1
 58 214 l 1,0,-1
EndSplineSet
EndChar

StartChar: period
Encoding: 46 46 18
Width: 225
GlyphClass: 2
Flags: W
LayerCount: 2
Fore
SplineSet
58 0 m 1,0,-1
 58 144 l 1,1,-1
 168 144 l 1,2,-1
 168 0 l 1,3,-1
 58 0 l 1,0,-1
EndSplineSet
EndChar

StartChar: slash
Encoding: 47 47 19
Width: 698
GlyphClass: 2
Flags: W
LayerCount: 2
Fore
SplineSet
671 710 m 1,0,-1
 175 0 l 1,1,-1
 27 0 l 1,2,-1
 522 710 l 1,3,-1
 671 710 l 1,0,-1
EndSplineSet
EndChar

StartChar: zero
Encoding: 48 48 20
Width: 701
GlyphClass: 2
Flags: W
LayerCount: 2
Fore
SplineSet
350 -10 m 0,0,1
 274 -9 274 -9 216.5 24.5 c 128,-1,2
 159 58 159 58 120 110.5 c 128,-1,3
 81 163 81 163 61.5 226.5 c 128,-1,4
 42 290 42 290 42 350 c 0,5,6
 42 414 42 414 63.5 478.5 c 128,-1,7
 85 543 85 543 125 594.5 c 128,-1,8
 165 646 165 646 222 678 c 128,-1,9
 279 710 279 710 350 710 c 0,10,11
 426 710 426 710 484 675.5 c 128,-1,12
 542 641 542 641 581 588 c 128,-1,13
 620 535 620 535 639.5 471.5 c 128,-1,14
 659 408 659 408 659 350 c 0,15,16
 659 285 659 285 637.5 221 c 128,-1,17
 616 157 616 157 576 105.5 c 128,-1,18
 536 54 536 54 479 22 c 128,-1,19
 422 -10 422 -10 350 -10 c 0,0,1
181 350 m 0,20,21
 182 308 182 308 192.5 266 c 128,-1,22
 203 224 203 224 223.5 189.5 c 128,-1,23
 244 155 244 155 275.5 133.5 c 128,-1,24
 307 112 307 112 350 112 c 0,25,26
 395 112 395 112 427 135 c 128,-1,27
 459 158 459 158 479.5 193.5 c 128,-1,28
 500 229 500 229 510 270.5 c 128,-1,29
 520 312 520 312 520 350 c 0,30,31
 520 392 520 392 509 434 c 128,-1,32
 498 476 498 476 477 510.5 c 128,-1,33
 456 545 456 545 424 566.5 c 128,-1,34
 392 588 392 588 350 588 c 0,35,36
 306 588 306 588 274 565 c 128,-1,37
 242 542 242 542 221.5 506.5 c 128,-1,38
 201 471 201 471 191 429 c 128,-1,39
 181 387 181 387 181 350 c 0,20,21
EndSplineSet
Substitution2: "'lnum' Lining Figures in Latin lookup 3 subtable" zero.lnum
Substitution2: "'aalt' Access All Alternates in Latin lookup 0 subtable" zero.lnum
EndChar

StartChar: one
Encoding: 49 49 21
Width: 490
GlyphClass: 2
Flags: W
LayerCount: 2
Fore
SplineSet
468 121 m 1,0,-1
 468 0 l 1,1,-1
 66 0 l 1,2,-1
 66 121 l 1,3,-1
 204 121 l 1,4,-1
 204 583 l 1,5,6
 196 571 196 571 177.5 556.5 c 128,-1,7
 159 542 159 542 135.5 528.5 c 128,-1,8
 112 515 112 515 87.5 506 c 128,-1,9
 63 497 63 497 43 497 c 1,10,-1
 43 621 l 1,11,12
 70 621 70 621 98 635.5 c 128,-1,13
 126 650 126 650 149.5 667.5 c 128,-1,14
 173 685 173 685 188 700 c 128,-1,15
 203 715 203 715 204 717 c 2,16,-1
 341 717 l 1,17,-1
 341 121 l 1,18,-1
 468 121 l 1,0,-1
EndSplineSet
Substitution2: "'lnum' Lining Figures in Latin lookup 3 subtable" one.lnum
Substitution2: "'aalt' Access All Alternates in Latin lookup 0 subtable" one.lnum
EndChar

StartChar: two
Encoding: 50 50 22
Width: 608
GlyphClass: 2
Flags: W
LayerCount: 2
Fore
SplineSet
41 0 m 1,0,1
 41 69 41 69 50.5 120.5 c 128,-1,2
 60 172 60 172 81.5 211 c 128,-1,3
 103 250 103 250 138 279 c 128,-1,4
 173 308 173 308 224 333 c 0,5,6
 257 349 257 349 289 363.5 c 128,-1,7
 321 378 321 378 347 397 c 128,-1,8
 373 416 373 416 389 440.5 c 128,-1,9
 405 465 405 465 405 500 c 0,10,11
 405 545 405 545 377.5 571.5 c 128,-1,12
 350 598 350 598 300 598 c 0,13,14
 272 598 272 598 246.5 590 c 128,-1,15
 221 582 221 582 199 569.5 c 128,-1,16
 177 557 177 557 159 542 c 128,-1,17
 141 527 141 527 128 513 c 1,18,-1
 44 601 l 1,19,20
 57 617 57 617 82 637.5 c 128,-1,21
 107 658 107 658 141.5 676 c 128,-1,22
 176 694 176 694 220 706.5 c 128,-1,23
 264 719 264 719 317 719 c 0,24,25
 375 719 375 719 419.5 703 c 128,-1,26
 464 687 464 687 494.5 658.5 c 128,-1,27
 525 630 525 630 540.5 590 c 128,-1,28
 556 550 556 550 556 502 c 0,29,30
 556 456 556 456 542 422.5 c 128,-1,31
 528 389 528 389 504.5 363 c 128,-1,32
 481 337 481 337 449.5 317.5 c 128,-1,33
 418 298 418 298 382 281 c 0,34,35
 344 262 344 262 313.5 244.5 c 128,-1,36
 283 227 283 227 261.5 208 c 128,-1,37
 240 189 240 189 228.5 168 c 128,-1,38
 217 147 217 147 217 121 c 1,39,-1
 557 121 l 1,40,-1
 557 0 l 1,41,-1
 41 0 l 1,0,1
EndSplineSet
Substitution2: "'lnum' Lining Figures in Latin lookup 3 subtable" two.lnum
Substitution2: "'aalt' Access All Alternates in Latin lookup 0 subtable" two.lnum
EndChar

StartChar: three
Encoding: 51 51 23
Width: 585
GlyphClass: 2
Flags: W
LayerCount: 2
Fore
SplineSet
273 -9 m 0,0,1
 186 -9 186 -9 125.5 27 c 128,-1,2
 65 63 65 63 41 130 c 1,3,-1
 112 218 l 1,4,5
 115 204 115 204 126 186.5 c 128,-1,6
 137 169 137 169 156.5 152.5 c 128,-1,7
 176 136 176 136 204.5 125 c 128,-1,8
 233 114 233 114 271 114 c 0,9,10
 297 114 297 114 320.5 120.5 c 128,-1,11
 344 127 344 127 362 139 c 128,-1,12
 380 151 380 151 390.5 168.5 c 128,-1,13
 401 186 401 186 401 209 c 0,14,15
 401 260 401 260 347 285 c 128,-1,16
 293 310 293 310 196 310 c 2,17,-1
 163 310 l 1,18,-1
 163 422 l 1,19,-1
 196 422 l 2,20,21
 236 422 236 422 270 427.5 c 128,-1,22
 304 433 304 433 329 444.5 c 128,-1,23
 354 456 354 456 368 474 c 128,-1,24
 382 492 382 492 382 517 c 0,25,26
 382 539 382 539 372.5 555 c 128,-1,27
 363 571 363 571 348 581 c 128,-1,28
 333 591 333 591 314.5 596 c 128,-1,29
 296 601 296 601 278 601 c 0,30,31
 248 601 248 601 223 593.5 c 128,-1,32
 198 586 198 586 179 574.5 c 128,-1,33
 160 563 160 563 146.5 548.5 c 128,-1,34
 133 534 133 534 125 520 c 1,35,-1
 39 617 l 1,36,37
 56 641 56 641 82 660 c 128,-1,38
 108 679 108 679 140 692 c 128,-1,39
 172 705 172 705 207 712 c 128,-1,40
 242 719 242 719 277 719 c 0,41,42
 331 719 331 719 376.5 704 c 128,-1,43
 422 689 422 689 455 662.5 c 128,-1,44
 488 636 488 636 506.5 600.5 c 128,-1,45
 525 565 525 565 525 524 c 0,46,47
 525 464 525 464 489 425.5 c 128,-1,48
 453 387 453 387 391 373 c 1,49,50
 425 367 425 367 452.5 350.5 c 128,-1,51
 480 334 480 334 499.5 309.5 c 128,-1,52
 519 285 519 285 529.5 254.5 c 128,-1,53
 540 224 540 224 540 191 c 0,54,55
 540 140 540 140 517 102.5 c 128,-1,56
 494 65 494 65 456.5 40.5 c 128,-1,57
 419 16 419 16 371 3.5 c 128,-1,58
 323 -9 323 -9 273 -9 c 0,0,1
EndSplineSet
Substitution2: "'lnum' Lining Figures in Latin lookup 3 subtable" three.lnum
Substitution2: "'aalt' Access All Alternates in Latin lookup 0 subtable" three.lnum
EndChar

StartChar: four
Encoding: 52 52 24
Width: 586
GlyphClass: 2
Flags: W
LayerCount: 2
Fore
SplineSet
325 0 m 1,0,-1
 325 161 l 1,1,-1
 26 161 l 1,2,-1
 26 281 l 1,3,-1
 367 710 l 1,4,-1
 459 710 l 1,5,-1
 459 282 l 1,6,-1
 547 282 l 1,7,-1
 547 161 l 1,8,-1
 459 161 l 1,9,-1
 459 0 l 1,10,-1
 325 0 l 1,0,-1
161 282 m 1,11,-1
 340 282 l 1,12,-1
 340 508 l 1,13,-1
 161 282 l 1,11,-1
EndSplineSet
Substitution2: "'lnum' Lining Figures in Latin lookup 3 subtable" four.lnum
Substitution2: "'aalt' Access All Alternates in Latin lookup 0 subtable" four.lnum
EndChar

StartChar: five
Encoding: 53 53 25
Width: 569
GlyphClass: 2
Flags: W
LayerCount: 2
Fore
SplineSet
297 459 m 0,0,1
 347 459 347 459 390 442 c 128,-1,2
 433 425 433 425 464.5 395 c 128,-1,3
 496 365 496 365 513.5 323 c 128,-1,4
 531 281 531 281 531 231 c 0,5,6
 531 177 531 177 511.5 133 c 128,-1,7
 492 89 492 89 457 57 c 128,-1,8
 422 25 422 25 374 7.5 c 128,-1,9
 326 -10 326 -10 269 -10 c 0,10,11
 191 -10 191 -10 130 23 c 128,-1,12
 69 56 69 56 36 114 c 1,13,-1
 113 194 l 1,14,15
 142 155 142 155 183.5 132 c 128,-1,16
 225 109 225 109 270 109 c 0,17,18
 324 109 324 109 358.5 141.5 c 128,-1,19
 393 174 393 174 393 228 c 0,20,21
 393 253 393 253 384.5 274.5 c 128,-1,22
 376 296 376 296 360.5 311.5 c 128,-1,23
 345 327 345 327 324 335.5 c 128,-1,24
 303 344 303 344 278 344 c 0,25,26
 246 344 246 344 217 329 c 128,-1,27
 188 314 188 314 171 288 c 1,28,-1
 54 288 l 2,29,30
 54 291 54 291 58 310.5 c 128,-1,31
 62 330 62 330 68 360.5 c 128,-1,32
 74 391 74 391 81 428.5 c 128,-1,33
 88 466 88 466 96 505 c 0,34,35
 114 596 114 596 136 710 c 1,36,-1
 486 710 l 1,37,-1
 486 588 l 1,38,-1
 233 588 l 1,39,-1
 205 429 l 1,40,41
 217 443 217 443 240 451 c 128,-1,42
 263 459 263 459 297 459 c 0,0,1
EndSplineSet
Substitution2: "'lnum' Lining Figures in Latin lookup 3 subtable" five.lnum
Substitution2: "'aalt' Access All Alternates in Latin lookup 0 subtable" five.lnum
EndChar

StartChar: six
Encoding: 54 54 26
Width: 607
GlyphClass: 2
Flags: W
LayerCount: 2
Fore
SplineSet
567 237 m 0,0,1
 567 185 567 185 547 140 c 128,-1,2
 527 95 527 95 492 61.5 c 128,-1,3
 457 28 457 28 409.5 9 c 128,-1,4
 362 -10 362 -10 307 -10 c 0,5,6
 247 -10 247 -10 198.5 12 c 128,-1,7
 150 34 150 34 116 76 c 128,-1,8
 82 118 82 118 64 178.5 c 128,-1,9
 46 239 46 239 46 316 c 0,10,11
 46 413 46 413 65 487.5 c 128,-1,12
 84 562 84 562 120 612.5 c 128,-1,13
 156 663 156 663 207 689 c 128,-1,14
 258 715 258 715 321 715 c 0,15,16
 388 715 388 715 444.5 686 c 128,-1,17
 501 657 501 657 540 603 c 1,18,-1
 463 519 l 1,19,20
 439 557 439 557 401 578 c 128,-1,21
 363 599 363 599 319 599 c 0,22,23
 252 599 252 599 212 546 c 128,-1,24
 172 493 172 493 170 396 c 1,25,26
 191 432 191 432 229.5 453 c 128,-1,27
 268 474 268 474 319 474 c 0,28,29
 371 474 371 474 416.5 456 c 128,-1,30
 462 438 462 438 495.5 406 c 128,-1,31
 529 374 529 374 548 330.5 c 128,-1,32
 567 287 567 287 567 237 c 0,0,1
308 103 m 0,33,34
 334 103 334 103 358 113.5 c 128,-1,35
 382 124 382 124 400 142.5 c 128,-1,36
 418 161 418 161 428.5 185.5 c 128,-1,37
 439 210 439 210 439 237 c 256,38,39
 439 264 439 264 428.5 287.5 c 128,-1,40
 418 311 418 311 400 329 c 128,-1,41
 382 347 382 347 358.5 357 c 128,-1,42
 335 367 335 367 308 367 c 256,43,44
 281 367 281 367 257 357 c 128,-1,45
 233 347 233 347 215 329 c 128,-1,46
 197 311 197 311 187 287.5 c 128,-1,47
 177 264 177 264 177 237 c 256,48,49
 177 210 177 210 187.5 185.5 c 128,-1,50
 198 161 198 161 216 143 c 128,-1,51
 234 125 234 125 257.5 114 c 128,-1,52
 281 103 281 103 308 103 c 0,33,34
EndSplineSet
Substitution2: "'lnum' Lining Figures in Latin lookup 3 subtable" six.lnum
Substitution2: "'aalt' Access All Alternates in Latin lookup 0 subtable" six.lnum
EndChar

StartChar: seven
Encoding: 55 55 27
Width: 563
GlyphClass: 2
Flags: W
LayerCount: 2
Fore
SplineSet
356 588 m 1,0,-1
 34 588 l 1,1,-1
 34 710 l 1,2,-1
 568 710 l 1,3,-1
 215 0 l 1,4,-1
 63 0 l 1,5,-1
 356 588 l 1,0,-1
EndSplineSet
Substitution2: "'lnum' Lining Figures in Latin lookup 3 subtable" seven.lnum
Substitution2: "'aalt' Access All Alternates in Latin lookup 0 subtable" seven.lnum
EndChar

StartChar: eight
Encoding: 56 56 28
Width: 604
GlyphClass: 2
Flags: W
LayerCount: 2
Fore
SplineSet
560 210 m 0,0,1
 560 160 560 160 539.5 120 c 128,-1,2
 519 80 519 80 483.5 51 c 128,-1,3
 448 22 448 22 401 6.5 c 128,-1,4
 354 -9 354 -9 301 -9 c 256,5,6
 248 -9 248 -9 201 7.5 c 128,-1,7
 154 24 154 24 119 54 c 128,-1,8
 84 84 84 84 64 125 c 128,-1,9
 44 166 44 166 44 215 c 0,10,11
 44 245 44 245 54 270.5 c 128,-1,12
 64 296 64 296 80 317 c 128,-1,13
 96 338 96 338 115.5 354 c 128,-1,14
 135 370 135 370 155 380 c 1,15,16
 118 398 118 398 92 434 c 128,-1,17
 66 470 66 470 66 513 c 0,18,19
 66 561 66 561 87.5 597.5 c 128,-1,20
 109 634 109 634 143.5 659 c 128,-1,21
 178 684 178 684 219.5 697 c 128,-1,22
 261 710 261 710 302 710 c 0,23,24
 342 710 342 710 384.5 697.5 c 128,-1,25
 427 685 427 685 461 660 c 128,-1,26
 495 635 495 635 517 598.5 c 128,-1,27
 539 562 539 562 539 514 c 0,28,29
 539 493 539 493 532 472.5 c 128,-1,30
 525 452 525 452 512.5 434.5 c 128,-1,31
 500 417 500 417 483 403 c 128,-1,32
 466 389 466 389 447 380 c 1,33,34
 469 369 469 369 489 352.5 c 128,-1,35
 509 336 509 336 525 314.5 c 128,-1,36
 541 293 541 293 550.5 267 c 128,-1,37
 560 241 560 241 560 210 c 0,0,1
424 218 m 0,38,39
 424 243 424 243 413.5 263 c 128,-1,40
 403 283 403 283 385.5 296.5 c 128,-1,41
 368 310 368 310 346 317 c 128,-1,42
 324 324 324 324 301 324 c 0,43,44
 277 324 277 324 255 316.5 c 128,-1,45
 233 309 233 309 216.5 295 c 128,-1,46
 200 281 200 281 190 261.5 c 128,-1,47
 180 242 180 242 180 218 c 256,48,49
 180 194 180 194 190.5 174.5 c 128,-1,50
 201 155 201 155 218 141 c 128,-1,51
 235 127 235 127 257 119.5 c 128,-1,52
 279 112 279 112 302 112 c 0,53,54
 326 112 326 112 348 120 c 128,-1,55
 370 128 370 128 387 142 c 128,-1,56
 404 156 404 156 414 175.5 c 128,-1,57
 424 195 424 195 424 218 c 0,38,39
202 509 m 0,58,59
 202 488 202 488 211 472.5 c 128,-1,60
 220 457 220 457 234.5 446.5 c 128,-1,61
 249 436 249 436 266.5 430.5 c 128,-1,62
 284 425 284 425 302 425 c 0,63,64
 319 425 319 425 337 430.5 c 128,-1,65
 355 436 355 436 369.5 447 c 128,-1,66
 384 458 384 458 393 473.5 c 128,-1,67
 402 489 402 489 402 510 c 0,68,69
 402 547 402 547 372.5 569 c 128,-1,70
 343 591 343 591 301 591 c 0,71,72
 260 591 260 591 231 568.5 c 128,-1,73
 202 546 202 546 202 509 c 0,58,59
EndSplineSet
Substitution2: "'lnum' Lining Figures in Latin lookup 3 subtable" eight.lnum
Substitution2: "'aalt' Access All Alternates in Latin lookup 0 subtable" eight.lnum
EndChar

StartChar: nine
Encoding: 57 57 29
Width: 607
GlyphClass: 2
Flags: W
LayerCount: 2
Fore
SplineSet
40 468 m 0,0,1
 40 520 40 520 60 565 c 128,-1,2
 80 610 80 610 115 643.5 c 128,-1,3
 150 677 150 677 197.5 696 c 128,-1,4
 245 715 245 715 300 715 c 0,5,6
 360 715 360 715 408.5 693 c 128,-1,7
 457 671 457 671 490.5 629.5 c 128,-1,8
 524 588 524 588 542.5 527.5 c 128,-1,9
 561 467 561 467 561 390 c 0,10,11
 561 293 561 293 541.5 218.5 c 128,-1,12
 522 144 522 144 486.5 93 c 128,-1,13
 451 42 451 42 400 16 c 128,-1,14
 349 -10 349 -10 286 -10 c 0,15,16
 219 -10 219 -10 162.5 19.5 c 128,-1,17
 106 49 106 49 67 103 c 1,18,-1
 144 187 l 1,19,20
 168 149 168 149 205.5 128 c 128,-1,21
 243 107 243 107 288 107 c 0,22,23
 355 107 355 107 395 160 c 128,-1,24
 435 213 435 213 437 310 c 1,25,26
 416 274 416 274 377 253 c 128,-1,27
 338 232 338 232 288 232 c 0,28,29
 235 232 235 232 190 250 c 128,-1,30
 145 268 145 268 111.5 300 c 128,-1,31
 78 332 78 332 59 375 c 128,-1,32
 40 418 40 418 40 468 c 0,0,1
299 603 m 256,33,34
 272 603 272 603 248.5 592 c 128,-1,35
 225 581 225 581 207.5 563 c 128,-1,36
 190 545 190 545 179.5 520.5 c 128,-1,37
 169 496 169 496 169 469 c 256,38,39
 169 442 169 442 179.5 418.5 c 128,-1,40
 190 395 190 395 207.5 377 c 128,-1,41
 225 359 225 359 249 349 c 128,-1,42
 273 339 273 339 300 339 c 256,43,44
 327 339 327 339 351 349 c 128,-1,45
 375 359 375 359 392.5 376.5 c 128,-1,46
 410 394 410 394 420.5 417.5 c 128,-1,47
 431 441 431 441 431 468 c 256,48,49
 431 495 431 495 420.5 519.5 c 128,-1,50
 410 544 410 544 392 562.5 c 128,-1,51
 374 581 374 581 350 592 c 128,-1,52
 326 603 326 603 299 603 c 256,33,34
EndSplineSet
Substitution2: "'lnum' Lining Figures in Latin lookup 3 subtable" nine.lnum
Substitution2: "'aalt' Access All Alternates in Latin lookup 0 subtable" nine.lnum
EndChar

StartChar: colon
Encoding: 58 58 30
Width: 247
GlyphClass: 2
Flags: W
LayerCount: 2
Fore
SplineSet
69 374 m 1,0,-1
 69 518 l 1,1,-1
 178 518 l 1,2,-1
 178 374 l 1,3,-1
 69 374 l 1,0,-1
69 0 m 1,4,-1
 69 144 l 1,5,-1
 178 144 l 1,6,-1
 178 0 l 1,7,-1
 69 0 l 1,4,-1
EndSplineSet
EndChar

StartChar: semicolon
Encoding: 59 59 31
Width: 259
GlyphClass: 2
Flags: W
LayerCount: 2
Fore
SplineSet
72 374 m 1,0,-1
 72 518 l 1,1,-1
 182 518 l 1,2,-1
 182 374 l 1,3,-1
 72 374 l 1,0,-1
86 -115 m 1,4,-1
 113 4 l 1,5,-1
 71 4 l 1,6,-1
 71 144 l 1,7,-1
 188 144 l 1,8,-1
 188 4 l 1,9,-1
 147 -115 l 1,10,-1
 86 -115 l 1,4,-1
EndSplineSet
EndChar

StartChar: less
Encoding: 60 60 32
Width: 515
GlyphClass: 2
Flags: W
LayerCount: 2
Fore
SplineSet
32 288 m 1,0,-1
 454 543 l 1,1,-1
 454 401 l 1,2,-1
 227 259 l 1,3,-1
 454 123 l 1,4,-1
 454 -27 l 1,5,-1
 32 223 l 1,6,-1
 32 288 l 1,0,-1
EndSplineSet
EndChar

StartChar: equal
Encoding: 61 61 33
Width: 436
GlyphClass: 2
Flags: W
LayerCount: 2
Fore
SplineSet
62 144 m 1,0,-1
 62 231 l 1,1,-1
 375 231 l 1,2,-1
 375 144 l 1,3,-1
 62 144 l 1,0,-1
62 321 m 1,4,-1
 62 408 l 1,5,-1
 375 408 l 1,6,-1
 375 321 l 1,7,-1
 62 321 l 1,4,-1
EndSplineSet
EndChar

StartChar: greater
Encoding: 62 62 34
Width: 515
GlyphClass: 2
Flags: W
LayerCount: 2
Fore
SplineSet
483 223 m 1,0,-1
 61 -27 l 1,1,-1
 61 123 l 1,2,-1
 288 259 l 1,3,-1
 61 401 l 1,4,-1
 61 543 l 1,5,-1
 483 288 l 1,6,-1
 483 223 l 1,0,-1
EndSplineSet
EndChar

StartChar: question
Encoding: 63 63 35
Width: 486
GlyphClass: 2
Flags: W
LayerCount: 2
Fore
SplineSet
122 233 m 1,0,1
 122 282 122 282 138 321 c 128,-1,2
 154 360 154 360 204 389 c 0,3,4
 219 398 219 398 241 409.5 c 128,-1,5
 263 421 263 421 284 437 c 128,-1,6
 305 453 305 453 319.5 474.5 c 128,-1,7
 334 496 334 496 334 524 c 0,8,9
 334 545 334 545 326 561 c 128,-1,10
 318 577 318 577 305 588 c 128,-1,11
 292 599 292 599 274.5 604.5 c 128,-1,12
 257 610 257 610 239 610 c 0,13,14
 217 610 217 610 199 602.5 c 128,-1,15
 181 595 181 595 166.5 583.5 c 128,-1,16
 152 572 152 572 140.5 557.5 c 128,-1,17
 129 543 129 543 121 530 c 1,18,-1
 34 590 l 1,19,20
 47 621 47 621 68.5 645 c 128,-1,21
 90 669 90 669 117.5 685.5 c 128,-1,22
 145 702 145 702 177 710.5 c 128,-1,23
 209 719 209 719 243 719 c 0,24,25
 281 719 281 719 318 708 c 128,-1,26
 355 697 355 697 384.5 673 c 128,-1,27
 414 649 414 649 432.5 611.5 c 128,-1,28
 451 574 451 574 451 522 c 0,29,30
 451 490 451 490 443.5 465.5 c 128,-1,31
 436 441 436 441 422 421 c 128,-1,32
 408 401 408 401 389 385 c 128,-1,33
 370 369 370 369 346 354 c 0,34,35
 326 342 326 342 306 331 c 128,-1,36
 286 320 286 320 269.5 306.5 c 128,-1,37
 253 293 253 293 242.5 275.5 c 128,-1,38
 232 258 232 258 232 233 c 1,39,-1
 122 233 l 1,0,1
124 0 m 1,40,-1
 124 138 l 1,41,-1
 235 138 l 1,42,-1
 235 0 l 1,43,-1
 124 0 l 1,40,-1
EndSplineSet
EndChar

StartChar: at
Encoding: 64 64 36
Width: 845
GlyphClass: 2
Flags: W
LayerCount: 2
Fore
SplineSet
422 603 m 0,0,1
 495 603 495 603 562.5 578 c 128,-1,2
 630 553 630 553 682 505 c 128,-1,3
 734 457 734 457 764.5 386 c 128,-1,4
 795 315 795 315 795 222 c 0,5,6
 795 208 795 208 793.5 184.5 c 128,-1,7
 792 161 792 161 787 135 c 128,-1,8
 782 109 782 109 772 82 c 128,-1,9
 762 55 762 55 745 33 c 128,-1,10
 728 11 728 11 702.5 -2.5 c 128,-1,11
 677 -16 677 -16 641 -16 c 0,12,13
 614 -16 614 -16 596.5 -8.5 c 128,-1,14
 579 -1 579 -1 568.5 11 c 128,-1,15
 558 23 558 23 553 37.5 c 128,-1,16
 548 52 548 52 546 66 c 1,17,18
 515 35 515 35 471 16.5 c 128,-1,19
 427 -2 427 -2 376 -2 c 0,20,21
 301 -2 301 -2 262 37 c 128,-1,22
 223 76 223 76 223 138 c 0,23,24
 223 179 223 179 239.5 207 c 128,-1,25
 256 235 256 235 282.5 252 c 128,-1,26
 309 269 309 269 342.5 276.5 c 128,-1,27
 376 284 376 284 410 284 c 0,28,29
 450 284 450 284 479 276.5 c 128,-1,30
 508 269 508 269 523 262 c 1,31,32
 523 289 523 289 518 312 c 128,-1,33
 513 335 513 335 500 351 c 128,-1,34
 487 367 487 367 465 376 c 128,-1,35
 443 385 443 385 409 385 c 0,36,37
 368 385 368 385 334 373 c 128,-1,38
 300 361 300 361 276 341 c 1,39,-1
 250 412 l 1,40,41
 326 462 326 462 422 462 c 0,42,43
 487 462 487 462 523.5 442 c 128,-1,44
 560 422 560 422 577.5 391.5 c 128,-1,45
 595 361 595 361 599 324 c 128,-1,46
 603 287 603 287 603 253 c 2,47,-1
 603 157 l 2,48,49
 603 135 603 135 604.5 114.5 c 128,-1,50
 606 94 606 94 611 78.5 c 128,-1,51
 616 63 616 63 626 53.5 c 128,-1,52
 636 44 636 44 654 44 c 0,53,54
 681 44 681 44 697.5 64 c 128,-1,55
 714 84 714 84 723.5 112.5 c 128,-1,56
 733 141 733 141 736 172 c 128,-1,57
 739 203 739 203 739 224 c 0,58,59
 739 294 739 294 715.5 353.5 c 128,-1,60
 692 413 692 413 650 456.5 c 128,-1,61
 608 500 608 500 549 524.5 c 128,-1,62
 490 549 490 549 418 549 c 0,63,64
 347 549 347 549 288.5 525 c 128,-1,65
 230 501 230 501 187.5 458.5 c 128,-1,66
 145 416 145 416 121.5 357.5 c 128,-1,67
 98 299 98 299 98 230 c 0,68,69
 98 163 98 163 120 104.5 c 128,-1,70
 142 46 142 46 182.5 2.5 c 128,-1,71
 223 -41 223 -41 280 -66.5 c 128,-1,72
 337 -92 337 -92 407 -92 c 0,73,74
 455 -92 455 -92 490 -81.5 c 128,-1,75
 525 -71 525 -71 563 -54 c 1,76,-1
 579 -106 l 1,77,78
 537 -126 537 -126 493 -136 c 128,-1,79
 449 -146 449 -146 405 -146 c 0,80,81
 330 -146 330 -146 264 -119 c 128,-1,82
 198 -92 198 -92 148.5 -42.5 c 128,-1,83
 99 7 99 7 70.5 76.5 c 128,-1,84
 42 146 42 146 42 230 c 0,85,86
 42 319 42 319 73 388.5 c 128,-1,87
 104 458 104 458 156.5 505.5 c 128,-1,88
 209 553 209 553 278 578 c 128,-1,89
 347 603 347 603 422 603 c 0,0,1
471 87 m 0,90,91
 498 100 498 100 510 119 c 128,-1,92
 522 138 522 138 522 161 c 2,93,-1
 522 199 l 1,94,95
 508 204 508 204 478 212 c 128,-1,96
 448 220 448 220 410 220 c 0,97,98
 363 220 363 220 333 202 c 128,-1,99
 303 184 303 184 303 141 c 0,100,101
 303 107 303 107 324.5 87 c 128,-1,102
 346 67 346 67 384 67 c 0,103,104
 404 67 404 67 428 72 c 128,-1,105
 452 77 452 77 471 87 c 0,90,91
EndSplineSet
EndChar

StartChar: A
Encoding: 65 65 37
Width: 672
GlyphClass: 2
Flags: W
LayerCount: 2
Fore
SplineSet
276 710 m 1,0,-1
 398 710 l 1,1,-1
 668 0 l 1,2,-1
 526 0 l 1,3,-1
 460 177 l 1,4,-1
 212 177 l 1,5,-1
 147 0 l 1,6,-1
 5 0 l 1,7,-1
 276 710 l 1,0,-1
435 274 m 1,8,-1
 337 553 l 1,9,-1
 235 274 l 1,10,-1
 435 274 l 1,8,-1
EndSplineSet
EndChar

StartChar: B
Encoding: 66 66 38
Width: 680
GlyphClass: 2
Flags: W
LayerCount: 2
Fore
SplineSet
646 183 m 0,0,1
 646 138 646 138 628 104 c 128,-1,2
 610 70 610 70 578.5 47 c 128,-1,3
 547 24 547 24 505.5 12 c 128,-1,4
 464 0 464 0 417 0 c 2,5,-1
 74 0 l 1,6,-1
 74 710 l 1,7,-1
 454 710 l 2,8,9
 491 710 491 710 521 694 c 128,-1,10
 551 678 551 678 572 652.5 c 128,-1,11
 593 627 593 627 604.5 594.5 c 128,-1,12
 616 562 616 562 616 529 c 0,13,14
 616 477 616 477 590 431.5 c 128,-1,15
 564 386 564 386 514 364 c 1,16,17
 575 346 575 346 610.5 299.5 c 128,-1,18
 646 253 646 253 646 183 c 0,0,1
507 209 m 256,19,20
 507 228 507 228 500.5 245.5 c 128,-1,21
 494 263 494 263 483 276 c 128,-1,22
 472 289 472 289 457 296.5 c 128,-1,23
 442 304 442 304 424 304 c 2,24,-1
 212 304 l 1,25,-1
 212 117 l 1,26,-1
 417 117 l 2,27,28
 436 117 436 117 452.5 124 c 128,-1,29
 469 131 469 131 481 143.5 c 128,-1,30
 493 156 493 156 500 173 c 128,-1,31
 507 190 507 190 507 209 c 256,19,20
212 592 m 1,32,-1
 212 413 l 1,33,-1
 396 413 l 2,34,35
 431 413 431 413 455.5 437 c 128,-1,36
 480 461 480 461 480 503 c 0,37,38
 480 544 480 544 457.5 568 c 128,-1,39
 435 592 435 592 402 592 c 2,40,-1
 212 592 l 1,32,-1
EndSplineSet
EndChar

StartChar: C
Encoding: 67 67 39
Width: 686
GlyphClass: 2
Flags: W
LayerCount: 2
Fore
SplineSet
31 360 m 0,0,1
 31 425 31 425 54.5 488.5 c 128,-1,2
 78 552 78 552 123 602 c 128,-1,3
 168 652 168 652 233 683 c 128,-1,4
 298 714 298 714 381 714 c 0,5,6
 479 714 479 714 550.5 671 c 128,-1,7
 622 628 622 628 657 559 c 1,8,-1
 551 486 l 1,9,10
 537 516 537 516 517 536.5 c 128,-1,11
 497 557 497 557 474 569 c 128,-1,12
 451 581 451 581 426 586.5 c 128,-1,13
 401 592 401 592 377 592 c 0,14,15
 325 592 325 592 286.5 571 c 128,-1,16
 248 550 248 550 222.5 516.5 c 128,-1,17
 197 483 197 483 184 440.5 c 128,-1,18
 171 398 171 398 171 356 c 0,19,20
 171 309 171 309 186 265.5 c 128,-1,21
 201 222 201 222 228.5 189 c 128,-1,22
 256 156 256 156 294.5 136 c 128,-1,23
 333 116 333 116 379 116 c 0,24,25
 403 116 403 116 429 122 c 128,-1,26
 455 128 455 128 478.5 141 c 128,-1,27
 502 154 502 154 522 174.5 c 128,-1,28
 542 195 542 195 554 224 c 1,29,-1
 667 159 l 1,30,31
 650 119 650 119 618.5 88.5 c 128,-1,32
 587 58 587 58 547.5 37 c 128,-1,33
 508 16 508 16 463 5 c 128,-1,34
 418 -6 418 -6 375 -6 c 0,35,36
 299 -6 299 -6 236 26 c 128,-1,37
 173 58 173 58 127.5 109.5 c 128,-1,38
 82 161 82 161 56.5 226.5 c 128,-1,39
 31 292 31 292 31 360 c 0,0,1
EndSplineSet
EndChar

StartChar: D
Encoding: 68 68 40
Width: 716
GlyphClass: 2
Flags: W
LayerCount: 2
Fore
SplineSet
74 0 m 1,0,-1
 74 710 l 1,1,-1
 332 710 l 2,2,3
 419 710 419 710 484.5 682 c 128,-1,4
 550 654 550 654 594 606 c 128,-1,5
 638 558 638 558 660 493.5 c 128,-1,6
 682 429 682 429 682 356 c 0,7,8
 682 275 682 275 657.5 209.5 c 128,-1,9
 633 144 633 144 587 97.5 c 128,-1,10
 541 51 541 51 476.5 25.5 c 128,-1,11
 412 0 412 0 332 0 c 2,12,-1
 74 0 l 1,0,-1
543 356 m 0,13,14
 543 407 543 407 529 450 c 128,-1,15
 515 493 515 493 488 524 c 128,-1,16
 461 555 461 555 421.5 572 c 128,-1,17
 382 589 382 589 332 589 c 2,18,-1
 212 589 l 1,19,-1
 212 121 l 1,20,-1
 332 121 l 2,21,22
 383 121 383 121 422.5 139 c 128,-1,23
 462 157 462 157 488.5 188.5 c 128,-1,24
 515 220 515 220 529 263 c 128,-1,25
 543 306 543 306 543 356 c 0,13,14
EndSplineSet
EndChar

StartChar: E
Encoding: 69 69 41
Width: 601
GlyphClass: 2
Flags: W
LayerCount: 2
Fore
SplineSet
567 121 m 1,0,-1
 567 0 l 1,1,-1
 74 0 l 1,2,-1
 74 710 l 1,3,-1
 558 710 l 1,4,-1
 558 589 l 1,5,-1
 212 589 l 1,6,-1
 212 418 l 1,7,-1
 511 418 l 1,8,-1
 511 306 l 1,9,-1
 212 306 l 1,10,-1
 212 121 l 1,11,-1
 567 121 l 1,0,-1
EndSplineSet
EndChar

StartChar: F
Encoding: 70 70 42
Width: 574
GlyphClass: 2
Flags: W
LayerCount: 2
Fore
SplineSet
74 0 m 1,0,-1
 74 710 l 1,1,-1
 551 710 l 1,2,-1
 551 589 l 1,3,-1
 212 589 l 1,4,-1
 212 406 l 1,5,-1
 494 406 l 1,6,-1
 494 294 l 1,7,-1
 212 294 l 1,8,-1
 212 0 l 1,9,-1
 74 0 l 1,0,-1
EndSplineSet
EndChar

StartChar: G
Encoding: 71 71 43
Width: 725
GlyphClass: 2
Flags: W
LayerCount: 2
Fore
SplineSet
567 80 m 1,0,1
 482 -5 482 -5 369 -5 c 0,2,3
 299 -5 299 -5 237.5 23 c 128,-1,4
 176 51 176 51 130.5 100 c 128,-1,5
 85 149 85 149 58.5 215.5 c 128,-1,6
 32 282 32 282 32 359 c 0,7,8
 32 432 32 432 58.5 496.5 c 128,-1,9
 85 561 85 561 131.5 609.5 c 128,-1,10
 178 658 178 658 241 686.5 c 128,-1,11
 304 715 304 715 378 715 c 0,12,13
 478 715 478 715 549.5 673 c 128,-1,14
 621 631 621 631 657 560 c 1,15,-1
 554 484 l 1,16,17
 527 537 527 537 478.5 565 c 128,-1,18
 430 593 430 593 373 593 c 0,19,20
 328 593 328 593 290.5 574 c 128,-1,21
 253 555 253 555 226.5 522 c 128,-1,22
 200 489 200 489 185.5 446 c 128,-1,23
 171 403 171 403 171 355 c 0,24,25
 171 305 171 305 187 261.5 c 128,-1,26
 203 218 203 218 231 186 c 128,-1,27
 259 154 259 154 297.5 135.5 c 128,-1,28
 336 117 336 117 381 117 c 0,29,30
 484 117 484 117 567 214 c 1,31,-1
 567 264 l 1,32,-1
 424 264 l 1,33,-1
 424 365 l 1,34,-1
 681 365 l 1,35,-1
 681 0 l 1,36,-1
 567 0 l 1,37,-1
 567 80 l 1,0,1
EndSplineSet
Substitution2: "'ss01' Style Set 1 in Latin lookup 8 subtable" G.alt
Substitution2: "'salt' Stylistic Alternatives in Latin lookup 5 subtable" G.alt
Substitution2: "'aalt' Access All Alternates in Latin lookup 0 subtable" G.alt
EndChar

StartChar: H
Encoding: 72 72 44
Width: 745
GlyphClass: 2
Flags: W
LayerCount: 2
Fore
SplineSet
671 710 m 1,0,-1
 671 0 l 1,1,-1
 534 0 l 1,2,-1
 534 303 l 1,3,-1
 212 303 l 1,4,-1
 212 0 l 1,5,-1
 74 0 l 1,6,-1
 74 710 l 1,7,-1
 212 710 l 1,8,-1
 212 423 l 1,9,-1
 534 423 l 1,10,-1
 534 710 l 1,11,-1
 671 710 l 1,0,-1
EndSplineSet
EndChar

StartChar: I
Encoding: 73 73 45
Width: 286
GlyphClass: 2
Flags: W
LayerCount: 2
Fore
SplineSet
74 0 m 1,0,-1
 74 710 l 1,1,-1
 212 710 l 1,2,-1
 212 0 l 1,3,-1
 74 0 l 1,0,-1
EndSplineSet
EndChar

StartChar: J
Encoding: 74 74 46
Width: 491
GlyphClass: 2
Flags: W
LayerCount: 2
Fore
SplineSet
38 145 m 1,0,1
 52 135 52 135 85 123 c 128,-1,2
 118 111 118 111 161 111 c 0,3,4
 203 111 203 111 228 125.5 c 128,-1,5
 253 140 253 140 266 170 c 128,-1,6
 279 200 279 200 283 244.5 c 128,-1,7
 287 289 287 289 287 349 c 2,8,-1
 287 710 l 1,9,-1
 425 710 l 1,10,-1
 425 349 l 2,11,12
 425 268 425 268 416.5 201.5 c 128,-1,13
 408 135 408 135 380.5 88 c 128,-1,14
 353 41 353 41 301 15 c 128,-1,15
 249 -11 249 -11 161 -11 c 0,16,17
 71 -11 71 -11 7 33 c 1,18,-1
 38 145 l 1,0,1
EndSplineSet
EndChar

StartChar: K
Encoding: 75 75 47
Width: 669
GlyphClass: 2
Flags: W
LayerCount: 2
Fore
SplineSet
74 0 m 1,0,-1
 74 709 l 1,1,-1
 212 709 l 1,2,-1
 212 372 l 1,3,-1
 510 710 l 1,4,-1
 662 710 l 1,5,-1
 390 395 l 1,6,-1
 679 0 l 1,7,-1
 524 0 l 1,8,-1
 303 307 l 1,9,-1
 212 212 l 1,10,-1
 212 0 l 1,11,-1
 74 0 l 1,0,-1
EndSplineSet
EndChar

StartChar: L
Encoding: 76 76 48
Width: 584
GlyphClass: 2
Flags: W
LayerCount: 2
Fore
SplineSet
74 0 m 1,0,-1
 74 710 l 1,1,-1
 212 710 l 1,2,-1
 212 121 l 1,3,-1
 574 121 l 1,4,-1
 574 0 l 1,5,-1
 74 0 l 1,0,-1
EndSplineSet
EndChar

StartChar: M
Encoding: 77 77 49
Width: 865
GlyphClass: 2
Flags: W
LayerCount: 2
Fore
SplineSet
653 0 m 1,0,-1
 653 470 l 1,1,-1
 470 120 l 1,2,-1
 395 120 l 1,3,-1
 212 470 l 1,4,-1
 212 0 l 1,5,-1
 74 0 l 1,6,-1
 74 710 l 1,7,-1
 222 710 l 1,8,-1
 432 306 l 1,9,-1
 644 710 l 1,10,-1
 791 710 l 1,11,-1
 791 0 l 1,12,-1
 653 0 l 1,0,-1
EndSplineSet
EndChar

StartChar: N
Encoding: 78 78 50
Width: 763
GlyphClass: 2
Flags: W
LayerCount: 2
Fore
SplineSet
212 455 m 1,0,-1
 212 0 l 1,1,-1
 74 0 l 1,2,-1
 74 710 l 1,3,-1
 181 710 l 1,4,-1
 551 244 l 1,5,-1
 551 709 l 1,6,-1
 689 709 l 1,7,-1
 689 0 l 1,8,-1
 577 0 l 1,9,-1
 212 455 l 1,0,-1
EndSplineSet
EndChar

StartChar: O
Encoding: 79 79 51
Width: 756
GlyphClass: 2
Flags: W
LayerCount: 2
Fore
SplineSet
377 -5 m 0,0,1
 299 -5 299 -5 235.5 25.5 c 128,-1,2
 172 56 172 56 126.5 106.5 c 128,-1,3
 81 157 81 157 56 222 c 128,-1,4
 31 287 31 287 31 355 c 0,5,6
 31 426 31 426 57.5 491 c 128,-1,7
 84 556 84 556 130.5 606 c 128,-1,8
 177 656 177 656 241 685.5 c 128,-1,9
 305 715 305 715 380 715 c 0,10,11
 457 715 457 715 520.5 683.5 c 128,-1,12
 584 652 584 652 629 601 c 128,-1,13
 674 550 674 550 699 485 c 128,-1,14
 724 420 724 420 724 353 c 0,15,16
 724 282 724 282 698 217.5 c 128,-1,17
 672 153 672 153 626 103.5 c 128,-1,18
 580 54 580 54 516 24.5 c 128,-1,19
 452 -5 452 -5 377 -5 c 0,0,1
171 355 m 0,20,21
 171 309 171 309 185 266 c 128,-1,22
 199 223 199 223 225.5 190 c 128,-1,23
 252 157 252 157 290.5 137 c 128,-1,24
 329 117 329 117 378 117 c 0,25,26
 428 117 428 117 466.5 137.5 c 128,-1,27
 505 158 505 158 531.5 192 c 128,-1,28
 558 226 558 226 571.5 268.5 c 128,-1,29
 585 311 585 311 585 355 c 0,30,31
 585 401 585 401 570.5 444 c 128,-1,32
 556 487 556 487 529.5 520 c 128,-1,33
 503 553 503 553 464.5 572.5 c 128,-1,34
 426 592 426 592 378 592 c 0,35,36
 328 592 328 592 289 571.5 c 128,-1,37
 250 551 250 551 224 517.5 c 128,-1,38
 198 484 198 484 184.5 441.5 c 128,-1,39
 171 399 171 399 171 355 c 0,20,21
EndSplineSet
EndChar

StartChar: P
Encoding: 80 80 52
Width: 623
GlyphClass: 2
Flags: W
LayerCount: 2
Fore
SplineSet
74 0 m 1,0,-1
 74 710 l 1,1,-1
 375 710 l 2,2,3
 424 710 424 710 465.5 689.5 c 128,-1,4
 507 669 507 669 537 635.5 c 128,-1,5
 567 602 567 602 584 559.5 c 128,-1,6
 601 517 601 517 601 474 c 0,7,8
 601 429 601 429 585 386.5 c 128,-1,9
 569 344 569 344 540 311 c 128,-1,10
 511 278 511 278 470 258 c 128,-1,11
 429 238 429 238 380 238 c 2,12,-1
 212 238 l 1,13,-1
 212 0 l 1,14,-1
 74 0 l 1,0,-1
212 359 m 1,15,-1
 372 359 l 2,16,17
 410 359 410 359 435.5 390 c 128,-1,18
 461 421 461 421 461 474 c 0,19,20
 461 501 461 501 453 522.5 c 128,-1,21
 445 544 445 544 432 559 c 128,-1,22
 419 574 419 574 401.5 581.5 c 128,-1,23
 384 589 384 589 366 589 c 2,24,-1
 212 589 l 1,25,-1
 212 359 l 1,15,-1
EndSplineSet
EndChar

StartChar: Q
Encoding: 81 81 53
Width: 755
GlyphClass: 2
Flags: W
LayerCount: 2
Fore
SplineSet
557 46 m 1,0,1
 518 22 518 22 473 8.5 c 128,-1,2
 428 -5 428 -5 377 -5 c 0,3,4
 299 -5 299 -5 235.5 26 c 128,-1,5
 172 57 172 57 126.5 107 c 128,-1,6
 81 157 81 157 56 222 c 128,-1,7
 31 287 31 287 31 355 c 0,8,9
 31 426 31 426 57.5 491 c 128,-1,10
 84 556 84 556 130.5 606 c 128,-1,11
 177 656 177 656 241 685.5 c 128,-1,12
 305 715 305 715 380 715 c 0,13,14
 457 715 457 715 520.5 683.5 c 128,-1,15
 584 652 584 652 629 601 c 128,-1,16
 674 550 674 550 699 485 c 128,-1,17
 724 420 724 420 724 353 c 0,18,19
 724 284 724 284 699.5 221 c 128,-1,20
 675 158 675 158 631 109 c 1,21,-1
 728 0 l 1,22,-1
 598 0 l 1,23,-1
 557 46 l 1,0,1
378 117 m 0,24,25
 405 117 405 117 428.5 123.5 c 128,-1,26
 452 130 452 130 472 141 c 1,27,-1
 364 263 l 1,28,-1
 494 263 l 1,29,-1
 543 208 l 1,30,31
 563 240 563 240 574 278 c 128,-1,32
 585 316 585 316 585 355 c 0,33,34
 585 401 585 401 570.5 444 c 128,-1,35
 556 487 556 487 529.5 520 c 128,-1,36
 503 553 503 553 464.5 573 c 128,-1,37
 426 593 426 593 378 593 c 0,38,39
 328 593 328 593 289 572.5 c 128,-1,40
 250 552 250 552 224 518 c 128,-1,41
 198 484 198 484 184.5 441.5 c 128,-1,42
 171 399 171 399 171 355 c 0,43,44
 171 309 171 309 185 266 c 128,-1,45
 199 223 199 223 225.5 190 c 128,-1,46
 252 157 252 157 290.5 137 c 128,-1,47
 329 117 329 117 378 117 c 0,24,25
EndSplineSet
EndChar

StartChar: R
Encoding: 82 82 54
Width: 665
GlyphClass: 2
Flags: W
LayerCount: 2
Fore
SplineSet
74 0 m 1,0,-1
 74 710 l 1,1,-1
 388 710 l 2,2,3
 437 710 437 710 478.5 689.5 c 128,-1,4
 520 669 520 669 550 635.5 c 128,-1,5
 580 602 580 602 597 559.5 c 128,-1,6
 614 517 614 517 614 474 c 0,7,8
 614 405 614 405 579.5 348.5 c 128,-1,9
 545 292 545 292 486 267 c 1,10,-1
 648 0 l 1,11,-1
 493 0 l 1,12,-1
 348 238 l 1,13,-1
 212 238 l 1,14,-1
 212 0 l 1,15,-1
 74 0 l 1,0,-1
212 359 m 1,16,-1
 385 359 l 2,17,18
 404 359 404 359 420.5 368 c 128,-1,19
 437 377 437 377 449 392.5 c 128,-1,20
 461 408 461 408 468 429 c 128,-1,21
 475 450 475 450 475 474 c 0,22,23
 475 499 475 499 467 520 c 128,-1,24
 459 541 459 541 445.5 556.5 c 128,-1,25
 432 572 432 572 414.5 580.5 c 128,-1,26
 397 589 397 589 379 589 c 2,27,-1
 212 589 l 1,28,-1
 212 359 l 1,16,-1
EndSplineSet
EndChar

StartChar: S
Encoding: 83 83 55
Width: 613
GlyphClass: 2
Flags: W
LayerCount: 2
Fore
SplineSet
497 524 m 1,0,1
 490 531 490 531 471.5 543 c 128,-1,2
 453 555 453 555 426.5 566.5 c 128,-1,3
 400 578 400 578 369 586 c 128,-1,4
 338 594 338 594 306 594 c 0,5,6
 249 594 249 594 221 573 c 128,-1,7
 193 552 193 552 193 514 c 0,8,9
 193 492 193 492 203.5 477.5 c 128,-1,10
 214 463 214 463 234 452 c 128,-1,11
 254 441 254 441 284.5 432 c 128,-1,12
 315 423 315 423 355 413 c 0,13,14
 407 399 407 399 449.5 383 c 128,-1,15
 492 367 492 367 521.5 343 c 128,-1,16
 551 319 551 319 567 285.5 c 128,-1,17
 583 252 583 252 583 203 c 0,18,19
 583 146 583 146 561.5 105.5 c 128,-1,20
 540 65 540 65 503.5 40 c 128,-1,21
 467 15 467 15 419.5 3.5 c 128,-1,22
 372 -8 372 -8 320 -8 c 0,23,24
 240 -8 240 -8 162 16 c 128,-1,25
 84 40 84 40 22 84 c 1,26,-1
 83 203 l 1,27,28
 92 194 92 194 115.5 179.5 c 128,-1,29
 139 165 139 165 171 150.5 c 128,-1,30
 203 136 203 136 242 126 c 128,-1,31
 281 116 281 116 322 116 c 0,32,33
 436 116 436 116 436 189 c 0,34,35
 436 212 436 212 423 228 c 128,-1,36
 410 244 410 244 386 256 c 128,-1,37
 362 268 362 268 328 278 c 128,-1,38
 294 288 294 288 252 300 c 0,39,40
 201 314 201 314 163.5 330.5 c 128,-1,41
 126 347 126 347 101 369.5 c 128,-1,42
 76 392 76 392 63.5 421.5 c 128,-1,43
 51 451 51 451 51 492 c 0,44,45
 51 546 51 546 71 588 c 128,-1,46
 91 630 91 630 126.5 658 c 128,-1,47
 162 686 162 686 209 700.5 c 128,-1,48
 256 715 256 715 310 715 c 0,49,50
 385 715 385 715 448 691.5 c 128,-1,51
 511 668 511 668 558 636 c 1,52,-1
 497 524 l 1,0,1
EndSplineSet
EndChar

StartChar: T
Encoding: 84 84 56
Width: 619
GlyphClass: 2
Flags: W
LayerCount: 2
Fore
SplineSet
605 589 m 1,0,-1
 378 589 l 1,1,-1
 378 0 l 1,2,-1
 241 0 l 1,3,-1
 241 589 l 1,4,-1
 14 589 l 1,5,-1
 14 710 l 1,6,-1
 605 710 l 1,7,-1
 605 589 l 1,0,-1
EndSplineSet
EndChar

StartChar: U
Encoding: 85 85 57
Width: 750
GlyphClass: 2
Flags: W
LayerCount: 2
Fore
SplineSet
374 117 m 0,0,1
 423 117 423 117 456.5 137 c 128,-1,2
 490 157 490 157 510.5 189 c 128,-1,3
 531 221 531 221 539.5 262.5 c 128,-1,4
 548 304 548 304 548 348 c 2,5,-1
 548 710 l 1,6,-1
 685 710 l 1,7,-1
 685 348 l 2,8,9
 685 275 685 275 667.5 211 c 128,-1,10
 650 147 650 147 612.5 99 c 128,-1,11
 575 51 575 51 516 23 c 128,-1,12
 457 -5 457 -5 375 -5 c 0,13,14
 290 -5 290 -5 230.5 24.5 c 128,-1,15
 171 54 171 54 134 102.5 c 128,-1,16
 97 151 97 151 80.5 215 c 128,-1,17
 64 279 64 279 64 348 c 2,18,-1
 64 710 l 1,19,-1
 202 710 l 1,20,-1
 202 348 l 2,21,22
 202 303 202 303 210.5 261.5 c 128,-1,23
 219 220 219 220 239.5 188 c 128,-1,24
 260 156 260 156 293 136.5 c 128,-1,25
 326 117 326 117 374 117 c 0,0,1
EndSplineSet
EndChar

StartChar: V
Encoding: 86 86 58
Width: 676
GlyphClass: 2
Flags: W
LayerCount: 2
Fore
SplineSet
147 710 m 1,0,-1
 339 173 l 1,1,-1
 529 710 l 1,2,-1
 674 710 l 1,3,-1
 397 0 l 1,4,-1
 281 0 l 1,5,-1
 2 710 l 1,6,-1
 147 710 l 1,0,-1
EndSplineSet
EndChar

StartChar: W
Encoding: 87 87 59
Width: 1053
GlyphClass: 2
Flags: W
LayerCount: 2
Fore
SplineSet
319 708 m 1,0,-1
 446 708 l 1,1,-1
 526 473 l 1,2,-1
 606 708 l 1,3,-1
 734 708 l 1,4,-1
 613 385 l 1,5,-1
 703 158 l 1,6,-1
 904 710 l 1,7,-1
 1054 710 l 1,8,-1
 765 0 l 1,9,-1
 649 0 l 1,10,-1
 526 298 l 1,11,-1
 403 0 l 1,12,-1
 287 0 l 1,13,-1
 0 710 l 1,14,-1
 148 710 l 1,15,-1
 350 158 l 1,16,-1
 438 385 l 1,17,-1
 319 708 l 1,0,-1
EndSplineSet
Substitution2: "'ss01' Style Set 1 in Latin lookup 8 subtable" W.alt
Substitution2: "'salt' Stylistic Alternatives in Latin lookup 5 subtable" W.alt
Substitution2: "'aalt' Access All Alternates in Latin lookup 0 subtable" W.alt
EndChar

StartChar: X
Encoding: 88 88 60
Width: 646
GlyphClass: 2
Flags: W
LayerCount: 2
Fore
SplineSet
147 710 m 1,0,-1
 324 446 l 1,1,-1
 500 710 l 1,2,-1
 649 710 l 1,3,-1
 396 350 l 1,4,-1
 641 0 l 1,5,-1
 492 0 l 1,6,-1
 324 254 l 1,7,-1
 155 0 l 1,8,-1
 5 0 l 1,9,-1
 250 350 l 1,10,-1
 -3 710 l 1,11,-1
 147 710 l 1,0,-1
EndSplineSet
EndChar

StartChar: Y
Encoding: 89 89 61
Width: 660
GlyphClass: 2
Flags: W
LayerCount: 2
Fore
SplineSet
154 710 m 1,0,-1
 329 368 l 1,1,-1
 507 710 l 1,2,-1
 656 710 l 1,3,-1
 398 248 l 1,4,-1
 398 0 l 1,5,-1
 261 0 l 1,6,-1
 261 250 l 1,7,-1
 4 710 l 1,8,-1
 154 710 l 1,0,-1
EndSplineSet
EndChar

StartChar: Z
Encoding: 90 90 62
Width: 627
GlyphClass: 2
Flags: W
LayerCount: 2
Fore
SplineSet
30 104 m 1,0,-1
 431 589 l 1,1,-1
 41 589 l 1,2,-1
 41 710 l 1,3,-1
 590 710 l 1,4,-1
 590 606 l 1,5,-1
 202 121 l 1,6,-1
 593 121 l 1,7,-1
 593 0 l 1,8,-1
 30 0 l 1,9,-1
 30 104 l 1,0,-1
EndSplineSet
EndChar

StartChar: bracketleft
Encoding: 91 91 63
Width: 316
GlyphClass: 2
Flags: W
LayerCount: 2
Fore
SplineSet
82 -40 m 1,0,-1
 82 740 l 1,1,-1
 269 740 l 1,2,-1
 269 633 l 1,3,-1
 206 633 l 1,4,-1
 206 67 l 1,5,-1
 269 67 l 1,6,-1
 269 -40 l 1,7,-1
 82 -40 l 1,0,-1
EndSplineSet
EndChar

StartChar: backslash
Encoding: 92 92 64
Width: 637
GlyphClass: 2
Flags: W
LayerCount: 2
Fore
SplineSet
176 710 m 1,0,-1
 611 0 l 1,1,-1
 463 0 l 1,2,-1
 27 710 l 1,3,-1
 176 710 l 1,0,-1
EndSplineSet
EndChar

StartChar: bracketright
Encoding: 93 93 65
Width: 316
GlyphClass: 2
Flags: W
LayerCount: 2
Fore
SplineSet
46 -40 m 1,0,-1
 46 67 l 1,1,-1
 110 67 l 1,2,-1
 110 633 l 1,3,-1
 46 633 l 1,4,-1
 46 740 l 1,5,-1
 234 740 l 1,6,-1
 234 -40 l 1,7,-1
 46 -40 l 1,0,-1
EndSplineSet
EndChar

StartChar: asciicircum
Encoding: 94 94 66
Width: 585
GlyphClass: 2
Flags: W
LayerCount: 2
Fore
SplineSet
39 303 m 1,0,-1
 237 710 l 1,1,-1
 349 710 l 1,2,-1
 546 303 l 1,3,-1
 436 303 l 1,4,-1
 293 597 l 1,5,-1
 147 303 l 1,6,-1
 39 303 l 1,0,-1
EndSplineSet
EndChar

StartChar: underscore
Encoding: 95 95 67
Width: 475
GlyphClass: 2
Flags: W
LayerCount: 2
Fore
SplineSet
54 -121 m 1,0,-1
 54 0 l 1,1,-1
 421 0 l 1,2,-1
 421 -121 l 1,3,-1
 54 -121 l 1,0,-1
EndSplineSet
EndChar

StartChar: grave
Encoding: 96 96 68
Width: 255
GlyphClass: 2
Flags: W
LayerCount: 2
Fore
SplineSet
47 730 m 1,0,-1
 171 730 l 1,1,-1
 226 611 l 1,2,-1
 140 585 l 1,3,-1
 47 730 l 1,0,-1
EndSplineSet
EndChar

StartChar: a
Encoding: 97 97 69
Width: 574
GlyphClass: 2
Flags: W
LayerCount: 2
Fore
SplineSet
204 -10 m 0,0,1
 166 -10 166 -10 133 2.5 c 128,-1,2
 100 15 100 15 76 37.5 c 128,-1,3
 52 60 52 60 38.5 90 c 128,-1,4
 25 120 25 120 25 156 c 0,5,6
 25 193 25 193 41.5 224.5 c 128,-1,7
 58 256 58 256 87.5 278 c 128,-1,8
 117 300 117 300 158 312.5 c 128,-1,9
 199 325 199 325 248 325 c 0,10,11
 283 325 283 325 316.5 319 c 128,-1,12
 350 313 350 313 376 302 c 1,13,-1
 376 332 l 2,14,15
 376 384 376 384 346.5 412 c 128,-1,16
 317 440 317 440 259 440 c 0,17,18
 217 440 217 440 177 425 c 128,-1,19
 137 410 137 410 95 381 c 1,20,-1
 54 466 l 1,21,22
 155 533 155 533 272 533 c 0,23,24
 385 533 385 533 447.5 477.5 c 128,-1,25
 510 422 510 422 510 317 c 2,26,-1
 510 154 l 2,27,28
 510 133 510 133 517.5 124 c 128,-1,29
 525 115 525 115 542 114 c 1,30,-1
 542 0 l 1,31,32
 508 -7 508 -7 483 -7 c 0,33,34
 445 -7 445 -7 424.5 10 c 128,-1,35
 404 27 404 27 399 55 c 2,36,-1
 396 84 l 1,37,38
 361 38 361 38 311 14 c 128,-1,39
 261 -10 261 -10 204 -10 c 0,0,1
242 88 m 0,40,41
 276 88 276 88 306.5 100 c 128,-1,42
 337 112 337 112 354 132 c 1,43,44
 376 149 376 149 376 170 c 2,45,-1
 376 230 l 1,46,47
 352 239 352 239 324 244.5 c 128,-1,48
 296 250 296 250 270 250 c 0,49,50
 218 250 218 250 185 226.5 c 128,-1,51
 152 203 152 203 152 167 c 0,52,53
 152 133 152 133 178 110.5 c 128,-1,54
 204 88 204 88 242 88 c 0,40,41
EndSplineSet
Substitution2: "'ss02' Style Set 2 in Latin lookup 9 subtable" a.alt2
Substitution2: "'ss01' Style Set 1 in Latin lookup 8 subtable" a.alt
Substitution2: "'salt' Stylistic Alternatives in Latin lookup 5 subtable" a.alt
Substitution2: "'smcp' Lowercase to Small Capitals in Latin lookup 2 subtable" A.sc
AlternateSubs2: "'aalt' Access All Alternates in Latin lookup 1 subtable" A.sc a.alt a.alt2
EndChar

StartChar: b
Encoding: 98 98 70
Width: 634
GlyphClass: 2
Flags: W
LayerCount: 2
Fore
SplineSet
359 -10 m 0,0,1
 299 -10 299 -10 252 17 c 128,-1,2
 205 44 205 44 178 91 c 1,3,-1
 178 0 l 1,4,-1
 61 0 l 1,5,-1
 61 730 l 1,6,-1
 195 730 l 1,7,-1
 195 432 l 1,8,9
 223 480 223 480 268.5 506.5 c 128,-1,10
 314 533 314 533 375 533 c 0,11,12
 426 533 426 533 468 511 c 128,-1,13
 510 489 510 489 540.5 452 c 128,-1,14
 571 415 571 415 587.5 365 c 128,-1,15
 604 315 604 315 604 260 c 0,16,17
 604 203 604 203 585.5 154 c 128,-1,18
 567 105 567 105 534 68.5 c 128,-1,19
 501 32 501 32 456 11 c 128,-1,20
 411 -10 411 -10 359 -10 c 0,0,1
322 104 m 0,21,22
 354 104 354 104 381 116.5 c 128,-1,23
 408 129 408 129 427 150 c 128,-1,24
 446 171 446 171 456.5 199 c 128,-1,25
 467 227 467 227 467 259 c 256,26,27
 467 291 467 291 457 320 c 128,-1,28
 447 349 447 349 428.5 371 c 128,-1,29
 410 393 410 393 385 406 c 128,-1,30
 360 419 360 419 330 419 c 0,31,32
 285 419 285 419 249.5 389.5 c 128,-1,33
 214 360 214 360 195 317 c 1,34,-1
 195 192 l 1,35,36
 202 172 202 172 215.5 156 c 128,-1,37
 229 140 229 140 246 128.5 c 128,-1,38
 263 117 263 117 283 110.5 c 128,-1,39
 303 104 303 104 322 104 c 0,21,22
EndSplineSet
Substitution2: "'smcp' Lowercase to Small Capitals in Latin lookup 2 subtable" B.sc
Substitution2: "'aalt' Access All Alternates in Latin lookup 0 subtable" B.sc
EndChar

StartChar: c
Encoding: 99 99 71
Width: 564
GlyphClass: 2
Flags: W
LayerCount: 2
Fore
SplineSet
28 262 m 0,0,1
 28 317 28 317 47 366 c 128,-1,2
 66 415 66 415 102 452 c 128,-1,3
 138 489 138 489 189 511 c 128,-1,4
 240 533 240 533 304 533 c 0,5,6
 390 533 390 533 450.5 496 c 128,-1,7
 511 459 511 459 541 399 c 1,8,-1
 410 359 l 1,9,10
 393 388 393 388 365 403.5 c 128,-1,11
 337 419 337 419 303 419 c 0,12,13
 274 419 274 419 249 407.5 c 128,-1,14
 224 396 224 396 205.5 375.5 c 128,-1,15
 187 355 187 355 176.5 326 c 128,-1,16
 166 297 166 297 166 262 c 256,17,18
 166 227 166 227 177 198 c 128,-1,19
 188 169 188 169 206.5 148 c 128,-1,20
 225 127 225 127 250 115.5 c 128,-1,21
 275 104 275 104 303 104 c 0,22,23
 339 104 339 104 369.5 122 c 128,-1,24
 400 140 400 140 412 166 c 1,25,-1
 543 126 l 1,26,27
 516 66 516 66 454 28 c 128,-1,28
 392 -10 392 -10 305 -10 c 0,29,30
 241 -10 241 -10 190 12 c 128,-1,31
 139 34 139 34 103 71.5 c 128,-1,32
 67 109 67 109 47.5 158.5 c 128,-1,33
 28 208 28 208 28 262 c 0,0,1
EndSplineSet
Substitution2: "'smcp' Lowercase to Small Capitals in Latin lookup 2 subtable" C.sc
Substitution2: "'aalt' Access All Alternates in Latin lookup 0 subtable" C.sc
EndChar

StartChar: d
Encoding: 100 100 72
Width: 645
GlyphClass: 2
Flags: W
LayerCount: 2
Fore
SplineSet
278 -10 m 256,0,1
 224 -10 224 -10 178 11 c 128,-1,2
 132 32 132 32 99 69 c 128,-1,3
 66 106 66 106 47.5 155.5 c 128,-1,4
 29 205 29 205 29 262 c 256,5,6
 29 319 29 319 46.5 368 c 128,-1,7
 64 417 64 417 95 454 c 128,-1,8
 126 491 126 491 169 512 c 128,-1,9
 212 533 212 533 263 533 c 0,10,11
 321 533 321 533 367.5 505 c 128,-1,12
 414 477 414 477 440 432 c 1,13,-1
 440 730 l 1,14,-1
 574 730 l 1,15,-1
 574 154 l 2,16,17
 574 133 574 133 581 124 c 128,-1,18
 588 115 588 115 605 114 c 1,19,-1
 605 0 l 1,20,21
 570 -7 570 -7 548 -7 c 0,22,23
 512 -7 512 -7 489 11 c 128,-1,24
 466 29 466 29 463 58 c 2,25,-1
 460 91 l 1,26,27
 431 41 431 41 381.5 15.5 c 128,-1,28
 332 -10 332 -10 278 -10 c 256,0,1
313 104 m 0,29,30
 332 104 332 104 352 110.5 c 128,-1,31
 372 117 372 117 389 129 c 128,-1,32
 406 141 406 141 419.5 157 c 128,-1,33
 433 173 433 173 440 192 c 1,34,-1
 440 317 l 1,35,36
 432 339 432 339 417.5 357.5 c 128,-1,37
 403 376 403 376 384.5 389.5 c 128,-1,38
 366 403 366 403 345.5 411 c 128,-1,39
 325 419 325 419 305 419 c 0,40,41
 275 419 275 419 249.5 406 c 128,-1,42
 224 393 224 393 206 370.5 c 128,-1,43
 188 348 188 348 178 319 c 128,-1,44
 168 290 168 290 168 259 c 0,45,46
 168 226 168 226 179 198 c 128,-1,47
 190 170 190 170 209 149 c 128,-1,48
 228 128 228 128 254.5 116 c 128,-1,49
 281 104 281 104 313 104 c 0,29,30
EndSplineSet
Substitution2: "'ss01' Style Set 1 in Latin lookup 8 subtable" d.alt
Substitution2: "'salt' Stylistic Alternatives in Latin lookup 5 subtable" d.alt
Substitution2: "'smcp' Lowercase to Small Capitals in Latin lookup 2 subtable" D.sc
AlternateSubs2: "'aalt' Access All Alternates in Latin lookup 1 subtable" D.sc d.alt
EndChar

StartChar: e
Encoding: 101 101 73
Width: 599
GlyphClass: 2
Flags: W
LayerCount: 2
Fore
SplineSet
304 -10 m 0,0,1
 241 -10 241 -10 190 11.5 c 128,-1,2
 139 33 139 33 103 70 c 128,-1,3
 67 107 67 107 47.5 156 c 128,-1,4
 28 205 28 205 28 259 c 0,5,6
 28 315 28 315 47 364.5 c 128,-1,7
 66 414 66 414 102 451.5 c 128,-1,8
 138 489 138 489 189.5 511 c 128,-1,9
 241 533 241 533 305 533 c 256,10,11
 369 533 369 533 419.5 511 c 128,-1,12
 470 489 470 489 505.5 452 c 128,-1,13
 541 415 541 415 559.5 366 c 128,-1,14
 578 317 578 317 578 264 c 0,15,16
 578 251 578 251 577.5 239 c 128,-1,17
 577 227 577 227 575 219 c 1,18,-1
 170 219 l 1,19,20
 173 188 173 188 185 164 c 128,-1,21
 197 140 197 140 216 123 c 128,-1,22
 235 106 235 106 259 97 c 128,-1,23
 283 88 283 88 309 88 c 0,24,25
 349 88 349 88 384.5 107.5 c 128,-1,26
 420 127 420 127 433 159 c 1,27,-1
 548 127 l 1,28,29
 519 67 519 67 455.5 28.5 c 128,-1,30
 392 -10 392 -10 304 -10 c 0,0,1
440 306 m 1,31,32
 435 365 435 365 396.5 400.5 c 128,-1,33
 358 436 358 436 303 436 c 0,34,35
 276 436 276 436 252.5 426.5 c 128,-1,36
 229 417 229 417 211 400 c 128,-1,37
 193 383 193 383 181.5 359 c 128,-1,38
 170 335 170 335 168 306 c 1,39,-1
 440 306 l 1,31,32
EndSplineSet
Substitution2: "'smcp' Lowercase to Small Capitals in Latin lookup 2 subtable" E.sc
Substitution2: "'aalt' Access All Alternates in Latin lookup 0 subtable" E.sc
EndChar

StartChar: f
Encoding: 102 102 74
Width: 370
GlyphClass: 2
Flags: W
LayerCount: 2
Fore
SplineSet
93 0 m 1,0,-1
 93 394 l 1,1,-1
 24 394 l 1,2,-1
 24 496 l 1,3,-1
 93 496 l 1,4,-1
 93 528 l 2,5,6
 93 626 93 626 140 683 c 128,-1,7
 187 740 187 740 268 740 c 0,8,9
 332 740 332 740 397 709 c 1,10,-1
 370 608 l 1,11,12
 355 616 355 616 334.5 621.5 c 128,-1,13
 314 627 314 627 297 627 c 0,14,15
 227 627 227 627 227 533 c 2,16,-1
 227 496 l 1,17,-1
 355 496 l 1,18,-1
 355 394 l 1,19,-1
 227 394 l 1,20,-1
 227 0 l 1,21,-1
 93 0 l 1,0,-1
EndSplineSet
Substitution2: "'smcp' Lowercase to Small Capitals in Latin lookup 2 subtable" F.sc
Substitution2: "'aalt' Access All Alternates in Latin lookup 0 subtable" F.sc
EndChar

StartChar: g
Encoding: 103 103 75
Width: 634
GlyphClass: 2
Flags: W
LayerCount: 2
Fore
SplineSet
266 -3 m 0,0,1
 213 -3 213 -3 170 18 c 128,-1,2
 127 39 127 39 95.5 75.5 c 128,-1,3
 64 112 64 112 47 160 c 128,-1,4
 30 208 30 208 30 262 c 0,5,6
 30 319 30 319 48 368 c 128,-1,7
 66 417 66 417 98 454 c 128,-1,8
 130 491 130 491 175 512 c 128,-1,9
 220 533 220 533 274 533 c 0,10,11
 335 533 335 533 381 505.5 c 128,-1,12
 427 478 427 478 457 432 c 1,13,-1
 457 524 l 1,14,-1
 574 524 l 1,15,-1
 574 25 l 2,16,17
 574 -33 574 -33 552 -79 c 128,-1,18
 530 -125 530 -125 491.5 -157 c 128,-1,19
 453 -189 453 -189 399.5 -206 c 128,-1,20
 346 -223 346 -223 283 -223 c 0,21,22
 197 -223 197 -223 138.5 -194.5 c 128,-1,23
 80 -166 80 -166 38 -114 c 1,24,-1
 111 -43 l 1,25,26
 141 -80 141 -80 186.5 -101 c 128,-1,27
 232 -122 232 -122 283 -122 c 0,28,29
 314 -122 314 -122 342.5 -113.5 c 128,-1,30
 371 -105 371 -105 393 -87 c 128,-1,31
 415 -69 415 -69 427.5 -41 c 128,-1,32
 440 -13 440 -13 440 25 c 2,33,-1
 440 91 l 1,34,35
 414 46 414 46 367 21.5 c 128,-1,36
 320 -3 320 -3 266 -3 c 0,0,1
311 104 m 0,37,38
 333 104 333 104 353 111 c 128,-1,39
 373 118 373 118 390 130 c 128,-1,40
 407 142 407 142 420 158 c 128,-1,41
 433 174 433 174 440 192 c 1,42,-1
 440 317 l 1,43,44
 422 363 422 363 383.5 391 c 128,-1,45
 345 419 345 419 303 419 c 0,46,47
 272 419 272 419 247 405.5 c 128,-1,48
 222 392 222 392 204 369.5 c 128,-1,49
 186 347 186 347 176.5 318 c 128,-1,50
 167 289 167 289 167 258 c 0,51,52
 167 226 167 226 178 198 c 128,-1,53
 189 170 189 170 208.5 149 c 128,-1,54
 228 128 228 128 254 116 c 128,-1,55
 280 104 280 104 311 104 c 0,37,38
EndSplineSet
Substitution2: "'smcp' Lowercase to Small Capitals in Latin lookup 2 subtable" G.sc
Substitution2: "'aalt' Access All Alternates in Latin lookup 0 subtable" G.sc
EndChar

StartChar: h
Encoding: 104 104 76
Width: 604
GlyphClass: 2
Flags: W
LayerCount: 2
Fore
SplineSet
548 0 m 1,0,-1
 414 0 l 1,1,-1
 414 294 l 2,2,3
 414 356 414 356 391 385.5 c 128,-1,4
 368 415 368 415 326 415 c 0,5,6
 308 415 308 415 288 407 c 128,-1,7
 268 399 268 399 250 384.5 c 128,-1,8
 232 370 232 370 217 350 c 128,-1,9
 202 330 202 330 195 306 c 1,10,-1
 195 0 l 1,11,-1
 61 0 l 1,12,-1
 61 730 l 1,13,-1
 195 730 l 1,14,-1
 195 427 l 1,15,16
 224 478 224 478 273.5 505.5 c 128,-1,17
 323 533 323 533 383 533 c 0,18,19
 434 533 434 533 466 515.5 c 128,-1,20
 498 498 498 498 516 469 c 128,-1,21
 534 440 534 440 541 403 c 128,-1,22
 548 366 548 366 548 327 c 2,23,-1
 548 0 l 1,0,-1
EndSplineSet
Substitution2: "'smcp' Lowercase to Small Capitals in Latin lookup 2 subtable" H.sc
Substitution2: "'aalt' Access All Alternates in Latin lookup 0 subtable" H.sc
EndChar

StartChar: i
Encoding: 105 105 77
Width: 255
GlyphClass: 2
Flags: W
LayerCount: 2
Fore
SplineSet
61 0 m 1,0,-1
 61 524 l 1,1,-1
 195 524 l 1,2,-1
 195 0 l 1,3,-1
 61 0 l 1,0,-1
61 597 m 1,4,-1
 61 730 l 1,5,-1
 195 730 l 1,6,-1
 195 597 l 1,7,-1
 61 597 l 1,4,-1
EndSplineSet
Substitution2: "'smcp' Lowercase to Small Capitals in Latin lookup 2 subtable" I.sc
Substitution2: "'aalt' Access All Alternates in Latin lookup 0 subtable" I.sc
EndChar

StartChar: j
Encoding: 106 106 78
Width: 261
GlyphClass: 2
Flags: W
LayerCount: 2
Fore
SplineSet
18 -196 m 256,0,1
 -20 -196 -20 -196 -54 -184.5 c 128,-1,2
 -88 -173 -88 -173 -115 -149 c 1,3,-1
 -57 -58 l 1,4,5
 -46 -69 -46 -69 -30 -74.5 c 128,-1,6
 -14 -80 -14 -80 2 -80 c 0,7,8
 28 -80 28 -80 47 -61.5 c 128,-1,9
 66 -43 66 -43 66 -14 c 2,10,-1
 66 524 l 1,11,-1
 200 524 l 1,12,-1
 200 -4 l 2,13,14
 200 -46 200 -46 186 -81.5 c 128,-1,15
 172 -117 172 -117 147.5 -142.5 c 128,-1,16
 123 -168 123 -168 89.5 -182 c 128,-1,17
 56 -196 56 -196 18 -196 c 256,0,1
66 597 m 1,18,-1
 66 730 l 1,19,-1
 200 730 l 1,20,-1
 200 597 l 1,21,-1
 66 597 l 1,18,-1
EndSplineSet
Substitution2: "'ss01' Style Set 1 in Latin lookup 8 subtable" j.alt
Substitution2: "'salt' Stylistic Alternatives in Latin lookup 5 subtable" j.alt
Substitution2: "'smcp' Lowercase to Small Capitals in Latin lookup 2 subtable" J.sc
AlternateSubs2: "'aalt' Access All Alternates in Latin lookup 1 subtable" J.sc j.alt
EndChar

StartChar: k
Encoding: 107 107 79
Width: 558
GlyphClass: 2
Flags: W
LayerCount: 2
Fore
SplineSet
419 0 m 1,0,-1
 267 227 l 1,1,-1
 195 156 l 1,2,-1
 195 0 l 1,3,-1
 61 0 l 1,4,-1
 61 730 l 1,5,-1
 195 730 l 1,6,-1
 195 287 l 1,7,-1
 405 523 l 1,8,-1
 548 523 l 1,9,-1
 353 301 l 1,10,-1
 562 0 l 1,11,-1
 419 0 l 1,0,-1
EndSplineSet
Substitution2: "'smcp' Lowercase to Small Capitals in Latin lookup 2 subtable" K.sc
Substitution2: "'aalt' Access All Alternates in Latin lookup 0 subtable" K.sc
EndChar

StartChar: l
Encoding: 108 108 80
Width: 317
GlyphClass: 2
Flags: W
LayerCount: 2
Fore
SplineSet
60 730 m 1,0,-1
 194 730 l 1,1,-1
 194 168 l 2,2,3
 194 139 194 139 208 123 c 128,-1,4
 222 107 222 107 248 107 c 0,5,6
 260 107 260 107 274.5 111 c 128,-1,7
 289 115 289 115 302 121 c 1,8,-1
 320 19 l 1,9,10
 293 6 293 6 257 -1 c 128,-1,11
 221 -8 221 -8 192 -8 c 0,12,13
 129 -8 129 -8 94.5 25.5 c 128,-1,14
 60 59 60 59 60 121 c 2,15,-1
 60 730 l 1,0,-1
EndSplineSet
Substitution2: "'ss01' Style Set 1 in Latin lookup 8 subtable" l.alt
Substitution2: "'salt' Stylistic Alternatives in Latin lookup 5 subtable" l.alt
Substitution2: "'smcp' Lowercase to Small Capitals in Latin lookup 2 subtable" L.sc
AlternateSubs2: "'aalt' Access All Alternates in Latin lookup 1 subtable" L.sc l.alt
EndChar

StartChar: m
Encoding: 109 109 81
Width: 931
GlyphClass: 2
Flags: W
LayerCount: 2
Fore
SplineSet
875 0 m 1,0,-1
 741 0 l 1,1,-1
 741 294 l 2,2,3
 741 357 741 357 719.5 386 c 128,-1,4
 698 415 698 415 660 415 c 0,5,6
 620 415 620 415 585 384.5 c 128,-1,7
 550 354 550 354 535 305 c 1,8,-1
 535 0 l 1,9,-1
 401 0 l 1,10,-1
 401 294 l 2,11,12
 401 357 401 357 379.5 386 c 128,-1,13
 358 415 358 415 320 415 c 0,14,15
 281 415 281 415 245.5 385 c 128,-1,16
 210 355 210 355 195 306 c 1,17,-1
 195 0 l 1,18,-1
 61 0 l 1,19,-1
 61 524 l 1,20,-1
 182 524 l 1,21,-1
 182 427 l 1,22,23
 211 478 211 478 261.5 505.5 c 128,-1,24
 312 533 312 533 377 533 c 0,25,26
 443 533 443 533 479 501 c 128,-1,27
 515 469 515 469 525 422 c 1,28,29
 557 476 557 476 606 504.5 c 128,-1,30
 655 533 655 533 718 533 c 0,31,32
 766 533 766 533 797 515 c 128,-1,33
 828 497 828 497 845 468 c 128,-1,34
 862 439 862 439 868.5 402 c 128,-1,35
 875 365 875 365 875 327 c 2,36,-1
 875 0 l 1,0,-1
EndSplineSet
Substitution2: "'smcp' Lowercase to Small Capitals in Latin lookup 2 subtable" M.sc
Substitution2: "'aalt' Access All Alternates in Latin lookup 0 subtable" M.sc
EndChar

StartChar: n
Encoding: 110 110 82
Width: 604
GlyphClass: 2
Flags: W
LayerCount: 2
Fore
SplineSet
548 0 m 1,0,-1
 414 0 l 1,1,-1
 414 294 l 2,2,3
 414 357 414 357 392 386 c 128,-1,4
 370 415 370 415 331 415 c 0,5,6
 311 415 311 415 290 407 c 128,-1,7
 269 399 269 399 250.5 384.5 c 128,-1,8
 232 370 232 370 217 350 c 128,-1,9
 202 330 202 330 195 306 c 1,10,-1
 195 0 l 1,11,-1
 61 0 l 1,12,-1
 61 524 l 1,13,-1
 182 524 l 1,14,-1
 182 427 l 1,15,16
 211 477 211 477 266 505 c 128,-1,17
 321 533 321 533 390 533 c 0,18,19
 439 533 439 533 470 515 c 128,-1,20
 501 497 501 497 518 468 c 128,-1,21
 535 439 535 439 541.5 402 c 128,-1,22
 548 365 548 365 548 327 c 2,23,-1
 548 0 l 1,0,-1
EndSplineSet
Substitution2: "'smcp' Lowercase to Small Capitals in Latin lookup 2 subtable" N.sc
Substitution2: "'aalt' Access All Alternates in Latin lookup 0 subtable" N.sc
EndChar

StartChar: o
Encoding: 111 111 83
Width: 606
GlyphClass: 2
Flags: W
LayerCount: 2
Fore
SplineSet
303 -10 m 256,0,1
 239 -10 239 -10 188 12 c 128,-1,2
 137 34 137 34 101.5 71.5 c 128,-1,3
 66 109 66 109 47 158 c 128,-1,4
 28 207 28 207 28 261 c 0,5,6
 28 316 28 316 47 365 c 128,-1,7
 66 414 66 414 101.5 451.5 c 128,-1,8
 137 489 137 489 188 511 c 128,-1,9
 239 533 239 533 303 533 c 256,10,11
 367 533 367 533 417.5 511 c 128,-1,12
 468 489 468 489 503.5 451.5 c 128,-1,13
 539 414 539 414 558 365 c 128,-1,14
 577 316 577 316 577 261 c 0,15,16
 577 207 577 207 558 158 c 128,-1,17
 539 109 539 109 504 71.5 c 128,-1,18
 469 34 469 34 418 12 c 128,-1,19
 367 -10 367 -10 303 -10 c 256,0,1
166 261 m 0,20,21
 166 226 166 226 176.5 197.5 c 128,-1,22
 187 169 187 169 205.5 148 c 128,-1,23
 224 127 224 127 249 115.5 c 128,-1,24
 274 104 274 104 303 104 c 256,25,26
 332 104 332 104 357 115.5 c 128,-1,27
 382 127 382 127 400.5 148 c 128,-1,28
 419 169 419 169 429.5 198 c 128,-1,29
 440 227 440 227 440 262 c 0,30,31
 440 296 440 296 429.5 325 c 128,-1,32
 419 354 419 354 400.5 375 c 128,-1,33
 382 396 382 396 357 407.5 c 128,-1,34
 332 419 332 419 303 419 c 256,35,36
 274 419 274 419 249 407 c 128,-1,37
 224 395 224 395 205.5 374 c 128,-1,38
 187 353 187 353 176.5 324 c 128,-1,39
 166 295 166 295 166 261 c 0,20,21
EndSplineSet
Substitution2: "'smcp' Lowercase to Small Capitals in Latin lookup 2 subtable" O.sc
Substitution2: "'aalt' Access All Alternates in Latin lookup 0 subtable" O.sc
EndChar

StartChar: p
Encoding: 112 112 84
Width: 634
GlyphClass: 2
Flags: W
LayerCount: 2
Fore
SplineSet
375 -10 m 0,0,1
 313 -10 313 -10 267 17.5 c 128,-1,2
 221 45 221 45 195 92 c 1,3,-1
 195 -213 l 1,4,-1
 61 -213 l 1,5,-1
 61 524 l 1,6,-1
 178 524 l 1,7,-1
 178 434 l 1,8,9
 207 480 207 480 253 506.5 c 128,-1,10
 299 533 299 533 359 533 c 0,11,12
 412 533 412 533 457 511.5 c 128,-1,13
 502 490 502 490 534.5 453.5 c 128,-1,14
 567 417 567 417 585.5 367.5 c 128,-1,15
 604 318 604 318 604 263 c 0,16,17
 604 206 604 206 587 156 c 128,-1,18
 570 106 570 106 539.5 69 c 128,-1,19
 509 32 509 32 467 11 c 128,-1,20
 425 -10 425 -10 375 -10 c 0,0,1
330 104 m 0,21,22
 360 104 360 104 385.5 117 c 128,-1,23
 411 130 411 130 429 152 c 128,-1,24
 447 174 447 174 457 203 c 128,-1,25
 467 232 467 232 467 263 c 0,26,27
 467 296 467 296 456 324.5 c 128,-1,28
 445 353 445 353 425.5 374 c 128,-1,29
 406 395 406 395 379.5 407 c 128,-1,30
 353 419 353 419 322 419 c 0,31,32
 303 419 303 419 283 412.5 c 128,-1,33
 263 406 263 406 246 394 c 128,-1,34
 229 382 229 382 215.5 366 c 128,-1,35
 202 350 202 350 195 331 c 1,36,-1
 195 208 l 1,37,38
 213 163 213 163 250 133.5 c 128,-1,39
 287 104 287 104 330 104 c 0,21,22
EndSplineSet
Substitution2: "'smcp' Lowercase to Small Capitals in Latin lookup 2 subtable" P.sc
Substitution2: "'aalt' Access All Alternates in Latin lookup 0 subtable" P.sc
EndChar

StartChar: q
Encoding: 113 113 85
Width: 634
GlyphClass: 2
Flags: W
LayerCount: 2
Fore
SplineSet
259 -10 m 0,0,1
 209 -10 209 -10 167 11.5 c 128,-1,2
 125 33 125 33 94.5 70 c 128,-1,3
 64 107 64 107 47 156.5 c 128,-1,4
 30 206 30 206 30 263 c 256,5,6
 30 320 30 320 48.5 369 c 128,-1,7
 67 418 67 418 100 454.5 c 128,-1,8
 133 491 133 491 178 512 c 128,-1,9
 223 533 223 533 275 533 c 0,10,11
 335 533 335 533 381 505.5 c 128,-1,12
 427 478 427 478 456 433 c 1,13,-1
 456 524 l 1,14,-1
 573 524 l 1,15,-1
 573 -52 l 2,16,17
 573 -74 573 -74 581 -82.5 c 128,-1,18
 589 -91 589 -91 609 -92 c 1,19,-1
 609 -206 l 1,20,21
 592 -209 592 -209 572 -210.5 c 128,-1,22
 552 -212 552 -212 536 -212 c 0,23,24
 516 -212 516 -212 498.5 -205 c 128,-1,25
 481 -198 481 -198 468 -186 c 128,-1,26
 455 -174 455 -174 447 -157.5 c 128,-1,27
 439 -141 439 -141 439 -121 c 2,28,-1
 439 92 l 1,29,30
 410 41 410 41 364 15.5 c 128,-1,31
 318 -10 318 -10 259 -10 c 0,0,1
309 104 m 0,32,33
 352 104 352 104 384 128 c 128,-1,34
 416 152 416 152 439 190 c 1,35,-1
 439 314 l 1,36,37
 433 336 433 336 419.5 355 c 128,-1,38
 406 374 406 374 388 388.5 c 128,-1,39
 370 403 370 403 349 411 c 128,-1,40
 328 419 328 419 307 419 c 0,41,42
 276 419 276 419 250.5 406 c 128,-1,43
 225 393 225 393 206.5 370.5 c 128,-1,44
 188 348 188 348 177.5 319 c 128,-1,45
 167 290 167 290 167 259 c 0,46,47
 167 226 167 226 177.5 198 c 128,-1,48
 188 170 188 170 206.5 149 c 128,-1,49
 225 128 225 128 251 116 c 128,-1,50
 277 104 277 104 309 104 c 0,32,33
EndSplineSet
Substitution2: "'ss01' Style Set 1 in Latin lookup 8 subtable" q.alt
Substitution2: "'salt' Stylistic Alternatives in Latin lookup 5 subtable" q.alt
Substitution2: "'smcp' Lowercase to Small Capitals in Latin lookup 2 subtable" Q.sc
AlternateSubs2: "'aalt' Access All Alternates in Latin lookup 1 subtable" Q.sc q.alt
EndChar

StartChar: r
Encoding: 114 114 86
Width: 387
GlyphClass: 2
Flags: W
LayerCount: 2
Fore
SplineSet
373 408 m 1,0,1
 312 407 312 407 264 384.5 c 128,-1,2
 216 362 216 362 195 317 c 1,3,-1
 195 0 l 1,4,-1
 61 0 l 1,5,-1
 61 524 l 1,6,-1
 184 524 l 1,7,-1
 184 412 l 1,8,9
 198 439 198 439 217 460.5 c 128,-1,10
 236 482 236 482 258 498 c 128,-1,11
 280 514 280 514 302.5 522.5 c 128,-1,12
 325 531 325 531 346 531 c 0,13,14
 357 531 357 531 362.5 531 c 128,-1,15
 368 531 368 531 373 530 c 1,16,-1
 373 408 l 1,0,1
EndSplineSet
Substitution2: "'smcp' Lowercase to Small Capitals in Latin lookup 2 subtable" R.sc
Substitution2: "'aalt' Access All Alternates in Latin lookup 0 subtable" R.sc
EndChar

StartChar: s
Encoding: 115 115 87
Width: 497
GlyphClass: 2
Flags: W
LayerCount: 2
Fore
SplineSet
259 -10 m 0,0,1
 193 -10 193 -10 130 11 c 128,-1,2
 67 32 67 32 22 71 c 1,3,-1
 72 155 l 1,4,5
 120 121 120 121 165.5 103.5 c 128,-1,6
 211 86 211 86 256 86 c 0,7,8
 296 86 296 86 319 101 c 128,-1,9
 342 116 342 116 342 144 c 256,10,11
 342 172 342 172 315 185 c 128,-1,12
 288 198 288 198 227 215 c 0,13,14
 176 229 176 229 140 242 c 128,-1,15
 104 255 104 255 82 271.5 c 128,-1,16
 60 288 60 288 50 309.5 c 128,-1,17
 40 331 40 331 40 361 c 0,18,19
 40 401 40 401 55.5 433 c 128,-1,20
 71 465 71 465 99 487.5 c 128,-1,21
 127 510 127 510 164.5 522 c 128,-1,22
 202 534 202 534 246 534 c 0,23,24
 305 534 305 534 356.5 517 c 128,-1,25
 408 500 408 500 451 462 c 1,26,-1
 397 381 l 1,27,28
 357 411 357 411 319.5 425 c 128,-1,29
 282 439 282 439 245 439 c 0,30,31
 211 439 211 439 188 425 c 128,-1,32
 165 411 165 411 165 380 c 0,33,34
 165 366 165 366 170.5 357 c 128,-1,35
 176 348 176 348 188 341 c 128,-1,36
 200 334 200 334 219.5 327.5 c 128,-1,37
 239 321 239 321 268 314 c 0,38,39
 322 300 322 300 360.5 286 c 128,-1,40
 399 272 399 272 423.5 254 c 128,-1,41
 448 236 448 236 459.5 212.5 c 128,-1,42
 471 189 471 189 471 156 c 0,43,44
 471 79 471 79 414 34.5 c 128,-1,45
 357 -10 357 -10 259 -10 c 0,0,1
EndSplineSet
Substitution2: "'smcp' Lowercase to Small Capitals in Latin lookup 2 subtable" S.sc
Substitution2: "'aalt' Access All Alternates in Latin lookup 0 subtable" S.sc
EndChar

StartChar: t
Encoding: 116 116 88
Width: 384
GlyphClass: 2
Flags: W
LayerCount: 2
Fore
SplineSet
375 27 m 1,0,1
 348 15 348 15 309 3 c 128,-1,2
 270 -9 270 -9 227 -9 c 0,3,4
 199 -9 199 -9 174.5 -2 c 128,-1,5
 150 5 150 5 131.5 20.5 c 128,-1,6
 113 36 113 36 102 60.5 c 128,-1,7
 91 85 91 85 91 120 c 2,8,-1
 91 421 l 1,9,-1
 22 421 l 1,10,-1
 22 524 l 1,11,-1
 91 524 l 1,12,-1
 91 694 l 1,13,-1
 225 694 l 1,14,-1
 225 524 l 1,15,-1
 335 524 l 1,16,-1
 335 421 l 1,17,-1
 225 421 l 1,18,-1
 225 165 l 2,19,20
 225 137 225 137 239.5 125.5 c 128,-1,21
 254 114 254 114 275 114 c 256,22,23
 296 114 296 114 316 121 c 128,-1,24
 336 128 336 128 348 133 c 1,25,-1
 375 27 l 1,0,1
EndSplineSet
Substitution2: "'ss01' Style Set 1 in Latin lookup 8 subtable" t.alt
Substitution2: "'salt' Stylistic Alternatives in Latin lookup 5 subtable" t.alt
Substitution2: "'smcp' Lowercase to Small Capitals in Latin lookup 2 subtable" T.sc
AlternateSubs2: "'aalt' Access All Alternates in Latin lookup 1 subtable" T.sc t.alt
EndChar

StartChar: u
Encoding: 117 117 89
Width: 618
GlyphClass: 2
Flags: W
LayerCount: 2
Fore
SplineSet
221 -10 m 0,0,1
 140 -10 140 -10 98 42 c 128,-1,2
 56 94 56 94 56 196 c 2,3,-1
 56 524 l 1,4,-1
 190 524 l 1,5,-1
 190 225 l 2,6,7
 190 104 190 104 277 104 c 0,8,9
 316 104 316 104 352.5 127.5 c 128,-1,10
 389 151 389 151 412 199 c 1,11,-1
 412 524 l 1,12,-1
 546 524 l 1,13,-1
 546 154 l 2,14,15
 546 133 546 133 553.5 124 c 128,-1,16
 561 115 561 115 578 114 c 1,17,-1
 578 0 l 1,18,19
 558 -4 558 -4 544.5 -5 c 128,-1,20
 531 -6 531 -6 520 -6 c 0,21,22
 484 -6 484 -6 461.5 10.5 c 128,-1,23
 439 27 439 27 435 56 c 2,24,-1
 432 98 l 1,25,26
 397 44 397 44 342 17 c 128,-1,27
 287 -10 287 -10 221 -10 c 0,0,1
EndSplineSet
Substitution2: "'smcp' Lowercase to Small Capitals in Latin lookup 2 subtable" U.sc
Substitution2: "'aalt' Access All Alternates in Latin lookup 0 subtable" U.sc
EndChar

StartChar: v
Encoding: 118 118 90
Width: 549
GlyphClass: 2
Flags: W
LayerCount: 2
Fore
SplineSet
202 0 m 1,0,-1
 9 524 l 1,1,-1
 147 524 l 1,2,-1
 280 109 l 1,3,-1
 414 524 l 1,4,-1
 540 524 l 1,5,-1
 347 0 l 1,6,-1
 202 0 l 1,0,-1
EndSplineSet
Substitution2: "'smcp' Lowercase to Small Capitals in Latin lookup 2 subtable" V.sc
Substitution2: "'aalt' Access All Alternates in Latin lookup 0 subtable" V.sc
EndChar

StartChar: w
Encoding: 119 119 91
Width: 839
GlyphClass: 2
Flags: W
LayerCount: 2
Fore
SplineSet
711 524 m 1,0,-1
 838 524 l 1,1,-1
 619 0 l 1,2,-1
 509 0 l 1,3,-1
 419 230 l 1,4,-1
 330 0 l 1,5,-1
 220 0 l 1,6,-1
 2 524 l 1,7,-1
 128 524 l 1,8,-1
 284 126 l 1,9,-1
 348 296 l 1,10,-1
 256 523 l 1,11,-1
 364 523 l 1,12,-1
 419 362 l 1,13,-1
 475 523 l 1,14,-1
 583 523 l 1,15,-1
 492 296 l 1,16,-1
 555 126 l 1,17,-1
 711 524 l 1,0,-1
EndSplineSet
Substitution2: "'ss01' Style Set 1 in Latin lookup 8 subtable" w.alt
Substitution2: "'salt' Stylistic Alternatives in Latin lookup 5 subtable" w.alt
Substitution2: "'smcp' Lowercase to Small Capitals in Latin lookup 2 subtable" W.sc
AlternateSubs2: "'aalt' Access All Alternates in Latin lookup 1 subtable" W.sc w.alt
EndChar

StartChar: x
Encoding: 120 120 92
Width: 531
GlyphClass: 2
Flags: W
LayerCount: 2
Fore
SplineSet
144 524 m 1,0,-1
 257 360 l 1,1,-1
 265 342 l 1,2,-1
 275 360 l 1,3,-1
 387 524 l 1,4,-1
 525 524 l 1,5,-1
 338 261 l 1,6,-1
 528 0 l 1,7,-1
 390 0 l 1,8,-1
 274 163 l 1,9,-1
 265 180 l 1,10,-1
 257 163 l 1,11,-1
 142 0 l 1,12,-1
 4 0 l 1,13,-1
 193 261 l 1,14,-1
 7 524 l 1,15,-1
 144 524 l 1,0,-1
EndSplineSet
Substitution2: "'smcp' Lowercase to Small Capitals in Latin lookup 2 subtable" X.sc
Substitution2: "'aalt' Access All Alternates in Latin lookup 0 subtable" X.sc
EndChar

StartChar: y
Encoding: 121 121 93
Width: 550
GlyphClass: 2
Flags: W
LayerCount: 2
Fore
SplineSet
72 -102 m 1,0,1
 89 -107 89 -107 105 -109.5 c 128,-1,2
 121 -112 121 -112 132 -112 c 0,3,4
 145 -112 145 -112 156 -107 c 128,-1,5
 167 -102 167 -102 176 -89.5 c 128,-1,6
 185 -77 185 -77 194 -55 c 128,-1,7
 203 -33 203 -33 213 0 c 1,8,-1
 6 524 l 1,9,-1
 144 524 l 1,10,-1
 286 116 l 1,11,-1
 412 524 l 1,12,-1
 538 524 l 1,13,-1
 318 -104 l 2,14,15
 299 -159 299 -159 253 -194 c 128,-1,16
 207 -229 207 -229 139 -229 c 0,17,18
 123 -229 123 -229 106.5 -226.5 c 128,-1,19
 90 -224 90 -224 72 -218 c 1,20,-1
 72 -102 l 1,0,1
EndSplineSet
Substitution2: "'ss01' Style Set 1 in Latin lookup 8 subtable" y.alt
Substitution2: "'salt' Stylistic Alternatives in Latin lookup 5 subtable" y.alt
Substitution2: "'smcp' Lowercase to Small Capitals in Latin lookup 2 subtable" Y.sc
AlternateSubs2: "'aalt' Access All Alternates in Latin lookup 1 subtable" Y.sc y.alt
EndChar

StartChar: z
Encoding: 122 122 94
Width: 493
GlyphClass: 2
Flags: W
LayerCount: 2
Fore
SplineSet
26 82 m 1,0,-1
 318 430 l 1,1,-1
 38 430 l 1,2,-1
 38 524 l 1,3,-1
 459 524 l 1,4,-1
 459 442 l 1,5,-1
 169 94 l 1,6,-1
 464 94 l 1,7,-1
 464 0 l 1,8,-1
 26 0 l 1,9,-1
 26 82 l 1,0,-1
EndSplineSet
Substitution2: "'smcp' Lowercase to Small Capitals in Latin lookup 2 subtable" Z.sc
Substitution2: "'aalt' Access All Alternates in Latin lookup 0 subtable" Z.sc
EndChar

StartChar: braceleft
Encoding: 123 123 95
Width: 317
GlyphClass: 2
Flags: W
LayerCount: 2
Fore
SplineSet
212 633 m 1,0,-1
 212 429 l 2,1,2
 212 409 212 409 203 391.5 c 128,-1,3
 194 374 194 374 178 360 c 1,4,5
 193 346 193 346 202.5 328.5 c 128,-1,6
 212 311 212 311 212 291 c 2,7,-1
 212 76 l 1,8,-1
 267 76 l 1,9,-1
 267 -31 l 1,10,-1
 115 -31 l 2,11,12
 108 -31 108 -31 100 -25 c 128,-1,13
 92 -19 92 -19 92 -1 c 2,14,-1
 92 247 l 2,15,16
 92 273 92 273 77 291.5 c 128,-1,17
 62 310 62 310 42 314 c 1,18,-1
 42 408 l 1,19,20
 52 408 52 408 61.5 414 c 128,-1,21
 71 420 71 420 77.5 430 c 128,-1,22
 84 440 84 440 88 451 c 128,-1,23
 92 462 92 462 92 473 c 2,24,-1
 92 710 l 2,25,26
 92 729 92 729 100.5 734.5 c 128,-1,27
 109 740 109 740 115 740 c 2,28,-1
 267 740 l 1,29,-1
 267 633 l 1,30,-1
 212 633 l 1,0,-1
EndSplineSet
EndChar

StartChar: bar
Encoding: 124 124 96
Width: 272
GlyphClass: 2
Flags: W
LayerCount: 2
Fore
SplineSet
79 -130 m 1,0,-1
 79 775 l 1,1,-1
 193 775 l 1,2,-1
 193 -130 l 1,3,-1
 79 -130 l 1,0,-1
EndSplineSet
EndChar

StartChar: braceright
Encoding: 125 125 97
Width: 317
GlyphClass: 2
Flags: W
LayerCount: 2
Fore
SplineSet
50 633 m 1,0,-1
 50 740 l 1,1,-1
 203 740 l 2,2,3
 208 740 208 740 217 734.5 c 128,-1,4
 226 729 226 729 226 710 c 2,5,-1
 226 473 l 2,6,7
 226 462 226 462 230 451 c 128,-1,8
 234 440 234 440 240.5 430 c 128,-1,9
 247 420 247 420 256 414 c 128,-1,10
 265 408 265 408 276 408 c 1,11,-1
 276 314 l 1,12,13
 256 310 256 310 241 291.5 c 128,-1,14
 226 273 226 273 226 247 c 2,15,-1
 226 -1 l 2,16,17
 226 -19 226 -19 217.5 -25 c 128,-1,18
 209 -31 209 -31 203 -31 c 2,19,-1
 50 -31 l 1,20,-1
 50 76 l 1,21,-1
 105 76 l 1,22,-1
 105 291 l 2,23,24
 105 311 105 311 114.5 328.5 c 128,-1,25
 124 346 124 346 140 360 c 1,26,27
 124 374 124 374 114.5 391.5 c 128,-1,28
 105 409 105 409 105 429 c 2,29,-1
 105 633 l 1,30,-1
 50 633 l 1,0,-1
EndSplineSet
EndChar

StartChar: asciitilde
Encoding: 126 126 98
Width: 567
GlyphClass: 2
Flags: W
LayerCount: 2
Fore
SplineSet
56 228 m 1,0,1
 56 237 56 237 63 258.5 c 128,-1,2
 70 280 70 280 86 302.5 c 128,-1,3
 102 325 102 325 129 342.5 c 128,-1,4
 156 360 156 360 195 360 c 0,5,6
 222 360 222 360 244.5 351.5 c 128,-1,7
 267 343 267 343 287.5 333 c 128,-1,8
 308 323 308 323 328 314.5 c 128,-1,9
 348 306 348 306 371 306 c 0,10,11
 392 306 392 306 405.5 313.5 c 128,-1,12
 419 321 419 321 426.5 330 c 128,-1,13
 434 339 434 339 437 347.5 c 128,-1,14
 440 356 440 356 440 358 c 2,15,-1
 514 358 l 1,16,17
 514 353 514 353 507 332 c 128,-1,18
 500 311 500 311 483.5 288 c 128,-1,19
 467 265 467 265 439 246.5 c 128,-1,20
 411 228 411 228 370 228 c 0,21,22
 343 228 343 228 320 236 c 128,-1,23
 297 244 297 244 276 254 c 128,-1,24
 255 264 255 264 235 272 c 128,-1,25
 215 280 215 280 194 280 c 256,26,27
 173 280 173 280 160.5 272 c 128,-1,28
 148 264 148 264 141.5 254.5 c 128,-1,29
 135 245 135 245 132.5 237 c 128,-1,30
 130 229 130 229 130 228 c 2,31,-1
 56 228 l 1,32,-1
 56 228 l 1,0,1
EndSplineSet
EndChar

StartChar: exclamdown
Encoding: 161 161 100
Width: 305
GlyphClass: 2
Flags: W
LayerCount: 2
Fore
SplineSet
220 445 m 1,0,-1
 220 -5 l 1,1,-1
 86 -5 l 1,2,-1
 86 445 l 1,3,-1
 220 445 l 1,0,-1
220 712 m 1,4,-1
 220 561 l 1,5,-1
 86 561 l 1,6,-1
 86 712 l 1,7,-1
 220 712 l 1,4,-1
EndSplineSet
EndChar

StartChar: cent
Encoding: 162 162 101
Width: 592
GlyphClass: 2
Flags: W
LayerCount: 2
Fore
SplineSet
276 -120 m 1,0,-1
 276 -9 l 1,1,2
 224 -5 224 -5 180.5 19.5 c 128,-1,3
 137 44 137 44 105.5 81 c 128,-1,4
 74 118 74 118 56.5 164 c 128,-1,5
 39 210 39 210 39 258 c 0,6,7
 39 309 39 309 54.5 355 c 128,-1,8
 70 401 70 401 100.5 437.5 c 128,-1,9
 131 474 131 474 175 499 c 128,-1,10
 219 524 219 524 276 532 c 1,11,-1
 276 645 l 1,12,-1
 336 645 l 1,13,-1
 336 532 l 1,14,15
 406 530 406 530 463 496 c 128,-1,16
 520 462 520 462 552 399 c 1,17,-1
 422 359 l 1,18,19
 408 385 408 385 385 399 c 128,-1,20
 362 413 362 413 336 415 c 1,21,-1
 336 107 l 1,22,23
 363 112 363 112 389.5 127.5 c 128,-1,24
 416 143 416 143 424 166 c 1,25,-1
 555 126 l 1,26,27
 540 92 540 92 514 66.5 c 128,-1,28
 488 41 488 41 457 24 c 128,-1,29
 426 7 426 7 394 -1.5 c 128,-1,30
 362 -10 362 -10 336 -10 c 1,31,-1
 336 -120 l 1,32,-1
 276 -120 l 1,0,-1
177 258 m 0,33,34
 177 233 177 233 184 210 c 128,-1,35
 191 187 191 187 204 168 c 128,-1,36
 217 149 217 149 235 134.5 c 128,-1,37
 253 120 253 120 276 113 c 1,38,-1
 276 409 l 1,39,40
 253 404 253 404 234.5 390 c 128,-1,41
 216 376 216 376 203 355.5 c 128,-1,42
 190 335 190 335 183.5 310 c 128,-1,43
 177 285 177 285 177 258 c 0,33,34
EndSplineSet
EndChar

StartChar: sterling
Encoding: 163 163 102
Width: 545
GlyphClass: 2
Flags: W
LayerCount: 2
Fore
SplineSet
57 381 m 1,0,-1
 129 381 l 1,1,2
 111 419 111 419 93.5 457 c 128,-1,3
 76 495 76 495 76 537 c 0,4,5
 76 574 76 574 92 606.5 c 128,-1,6
 108 639 108 639 136 663 c 128,-1,7
 164 687 164 687 201.5 701 c 128,-1,8
 239 715 239 715 282 715 c 0,9,10
 343 715 343 715 397.5 687 c 128,-1,11
 452 659 452 659 489 610 c 1,12,-1
 419 528 l 1,13,14
 394 563 394 563 355.5 584.5 c 128,-1,15
 317 606 317 606 280 606 c 256,16,17
 243 606 243 606 219.5 582.5 c 128,-1,18
 196 559 196 559 196 524 c 0,19,20
 196 507 196 507 201.5 490 c 128,-1,21
 207 473 207 473 215 455.5 c 128,-1,22
 223 438 223 438 232.5 419.5 c 128,-1,23
 242 401 242 401 250 381 c 1,24,-1
 434 381 l 1,25,-1
 434 280 l 1,26,-1
 272 280 l 1,27,28
 272 233 272 233 253.5 192.5 c 128,-1,29
 235 152 235 152 188 104 c 1,30,31
 210 111 210 111 228.5 113.5 c 128,-1,32
 247 116 247 116 264 116 c 0,33,34
 301 116 301 116 333.5 107.5 c 128,-1,35
 366 99 366 99 400 99 c 0,36,37
 418 99 418 99 435 103 c 128,-1,38
 452 107 452 107 475 115 c 1,39,-1
 508 15 l 1,40,41
 483 1 483 1 452.5 -7 c 128,-1,42
 422 -15 422 -15 393 -15 c 0,43,44
 370 -15 370 -15 347.5 -10.5 c 128,-1,45
 325 -6 325 -6 302 -0.5 c 128,-1,46
 279 5 279 5 255.5 9.5 c 128,-1,47
 232 14 232 14 208 14 c 0,48,49
 182 14 182 14 147 8 c 128,-1,50
 112 2 112 2 80 -8 c 1,51,-1
 51 87 l 1,52,53
 105 132 105 132 131.5 178 c 128,-1,54
 158 224 158 224 158 280 c 1,55,-1
 57 280 l 1,56,-1
 57 381 l 1,0,-1
EndSplineSet
EndChar

StartChar: currency
Encoding: 164 164 103
Width: 552
GlyphClass: 2
Flags: W
LayerCount: 2
Fore
SplineSet
170 495 m 1,0,1
 192 509 192 509 218.5 517 c 128,-1,2
 245 525 245 525 277 525 c 0,3,4
 307 525 307 525 333.5 517.5 c 128,-1,5
 360 510 360 510 382 496 c 1,6,-1
 451 567 l 1,7,-1
 506 512 l 1,8,-1
 438 445 l 1,9,10
 469 397 469 397 469 337 c 256,11,12
 469 277 469 277 437 230 c 1,13,-1
 506 162 l 1,14,-1
 456 112 l 1,15,-1
 384 180 l 1,16,17
 362 166 362 166 335.5 158.5 c 128,-1,18
 309 151 309 151 277 151 c 256,19,20
 245 151 245 151 217.5 159 c 128,-1,21
 190 167 190 167 168 181 c 1,22,-1
 95 112 l 1,23,-1
 46 162 l 1,24,-1
 115 231 l 1,25,26
 84 279 84 279 84 337 c 0,27,28
 84 398 84 398 114 443 c 1,29,-1
 46 512 l 1,30,-1
 100 567 l 1,31,-1
 170 495 l 1,0,1
183 337 m 256,32,33
 183 292 183 292 210 263.5 c 128,-1,34
 237 235 237 235 277 235 c 256,35,36
 317 235 317 235 343.5 264 c 128,-1,37
 370 293 370 293 370 338 c 256,38,39
 370 383 370 383 343.5 411.5 c 128,-1,40
 317 440 317 440 277 440 c 256,41,42
 237 440 237 440 210 411 c 128,-1,43
 183 382 183 382 183 337 c 256,32,33
EndSplineSet
EndChar

StartChar: yen
Encoding: 165 165 104
Width: 712
GlyphClass: 2
Flags: W
LayerCount: 2
Fore
SplineSet
505 402 m 1,0,-1
 578 402 l 1,1,-1
 578 315 l 1,2,-1
 458 315 l 1,3,-1
 422 248 l 1,4,-1
 422 218 l 1,5,-1
 579 218 l 1,6,-1
 579 131 l 1,7,-1
 422 131 l 1,8,-1
 422 0 l 1,9,-1
 285 0 l 1,10,-1
 285 131 l 1,11,-1
 130 131 l 1,12,-1
 130 218 l 1,13,-1
 285 218 l 1,14,-1
 285 250 l 1,15,-1
 251 315 l 1,16,-1
 131 315 l 1,17,-1
 131 402 l 1,18,-1
 205 402 l 1,19,-1
 29 710 l 1,20,-1
 178 710 l 1,21,-1
 354 368 l 1,22,-1
 531 710 l 1,23,-1
 681 710 l 1,24,-1
 505 402 l 1,0,-1
EndSplineSet
EndChar

StartChar: brokenbar
Encoding: 166 166 105
Width: 275
GlyphClass: 2
Flags: W
LayerCount: 2
Fore
SplineSet
195 264 m 1,0,-1
 195 -130 l 1,1,-1
 81 -130 l 1,2,-1
 81 264 l 1,3,-1
 195 264 l 1,0,-1
195 775 m 1,4,-1
 195 381 l 1,5,-1
 81 381 l 1,6,-1
 81 775 l 1,7,-1
 195 775 l 1,4,-1
EndSplineSet
EndChar

StartChar: section
Encoding: 167 167 106
Width: 532
GlyphClass: 2
Flags: W
LayerCount: 2
Fore
SplineSet
456 215 m 1,0,1
 472 201 472 201 481.5 176 c 128,-1,2
 491 151 491 151 491 113 c 0,3,4
 491 59 491 59 469 20.5 c 128,-1,5
 447 -18 447 -18 414 -42 c 128,-1,6
 381 -66 381 -66 342 -77 c 128,-1,7
 303 -88 303 -88 269 -88 c 0,8,9
 229 -88 229 -88 195 -77 c 128,-1,10
 161 -66 161 -66 133.5 -50 c 128,-1,11
 106 -34 106 -34 85.5 -16 c 128,-1,12
 65 2 65 2 53 16 c 1,13,-1
 139 98 l 1,14,15
 169 66 169 66 199.5 52.5 c 128,-1,16
 230 39 230 39 263 39 c 0,17,18
 280 39 280 39 296 43.5 c 128,-1,19
 312 48 312 48 324.5 57 c 128,-1,20
 337 66 337 66 344.5 78.5 c 128,-1,21
 352 91 352 91 352 108 c 0,22,23
 352 126 352 126 344.5 136.5 c 128,-1,24
 337 147 337 147 325.5 152.5 c 128,-1,25
 314 158 314 158 300 160 c 128,-1,26
 286 162 286 162 272 163 c 0,27,28
 172 170 172 170 118.5 217 c 128,-1,29
 65 264 65 264 65 341 c 0,30,31
 65 370 65 370 72 387.5 c 128,-1,32
 79 405 79 405 84 415 c 1,33,34
 70 429 70 429 56.5 457.5 c 128,-1,35
 43 486 43 486 43 525 c 256,36,37
 43 564 43 564 59.5 598.5 c 128,-1,38
 76 633 76 633 105 659 c 128,-1,39
 134 685 134 685 172 700 c 128,-1,40
 210 715 210 715 254 715 c 0,41,42
 297 715 297 715 331 702.5 c 128,-1,43
 365 690 365 690 390.5 671.5 c 128,-1,44
 416 653 416 653 434.5 631.5 c 128,-1,45
 453 610 453 610 466 592 c 1,46,-1
 363 543 l 1,47,48
 349 569 349 569 322.5 582.5 c 128,-1,49
 296 596 296 596 262 596 c 0,50,51
 226 596 226 596 202 577.5 c 128,-1,52
 178 559 178 559 178 527 c 0,53,54
 178 490 178 490 202.5 478 c 128,-1,55
 227 466 227 466 262 465 c 0,56,57
 299 464 299 464 337.5 455 c 128,-1,58
 376 446 376 446 407 426.5 c 128,-1,59
 438 407 438 407 457.5 375 c 128,-1,60
 477 343 477 343 477 297 c 0,61,62
 477 268 477 268 470.5 246.5 c 128,-1,63
 464 225 464 225 456 215 c 1,0,1
195 323 m 0,64,65
 195 294 195 294 210.5 280.5 c 128,-1,66
 226 267 226 267 247.5 262 c 128,-1,67
 269 257 269 257 292.5 255.5 c 128,-1,68
 316 254 316 254 332 248 c 1,69,70
 340 256 340 256 345 268.5 c 128,-1,71
 350 281 350 281 350 293 c 0,72,73
 350 311 350 311 342 323.5 c 128,-1,74
 334 336 334 336 321.5 343.5 c 128,-1,75
 309 351 309 351 294.5 354 c 128,-1,76
 280 357 280 357 267 357 c 0,77,78
 250 357 250 357 234.5 360 c 128,-1,79
 219 363 219 363 211 366 c 1,80,81
 204 359 204 359 199.5 347.5 c 128,-1,82
 195 336 195 336 195 323 c 0,64,65
EndSplineSet
EndChar

StartChar: dieresis
Encoding: 168 168 107
Width: 457
GlyphClass: 2
Flags: W
LayerCount: 2
Fore
SplineSet
77 604 m 1,0,-1
 77 723 l 1,1,-1
 188 723 l 1,2,-1
 188 604 l 1,3,-1
 77 604 l 1,0,-1
269 604 m 1,4,-1
 269 723 l 1,5,-1
 380 723 l 1,6,-1
 380 604 l 1,7,-1
 269 604 l 1,4,-1
EndSplineSet
EndChar

StartChar: copyright
Encoding: 169 169 108
Width: 841
GlyphClass: 2
Flags: W
LayerCount: 2
Fore
SplineSet
417 -7 m 0,0,1
 336 -7 336 -7 267.5 20.5 c 128,-1,2
 199 48 199 48 149 96.5 c 128,-1,3
 99 145 99 145 71 211 c 128,-1,4
 43 277 43 277 43 355 c 0,5,6
 43 432 43 432 71 498 c 128,-1,7
 99 564 99 564 149 612 c 128,-1,8
 199 660 199 660 267.5 687.5 c 128,-1,9
 336 715 336 715 417 715 c 0,10,11
 499 715 499 715 569 687.5 c 128,-1,12
 639 660 639 660 690 612 c 128,-1,13
 741 564 741 564 769.5 498 c 128,-1,14
 798 432 798 432 798 355 c 0,15,16
 798 277 798 277 769.5 211 c 128,-1,17
 741 145 741 145 690 96.5 c 128,-1,18
 639 48 639 48 569 20.5 c 128,-1,19
 499 -7 499 -7 417 -7 c 0,0,1
417 43 m 256,20,21
 486 43 486 43 545.5 65.5 c 128,-1,22
 605 88 605 88 649.5 129.5 c 128,-1,23
 694 171 694 171 719 228 c 128,-1,24
 744 285 744 285 744 354 c 0,25,26
 744 420 744 420 719.5 476.5 c 128,-1,27
 695 533 695 533 651 575 c 128,-1,28
 607 617 607 617 547 641 c 128,-1,29
 487 665 487 665 417 665 c 0,30,31
 348 665 348 665 289.5 641 c 128,-1,32
 231 617 231 617 188 575 c 128,-1,33
 145 533 145 533 120.5 476.5 c 128,-1,34
 96 420 96 420 96 354 c 256,35,36
 96 288 96 288 120.5 231.5 c 128,-1,37
 145 175 145 175 187.5 133 c 128,-1,38
 230 91 230 91 289 67 c 128,-1,39
 348 43 348 43 417 43 c 256,20,21
426 116 m 0,40,41
 370 116 370 116 323.5 134.5 c 128,-1,42
 277 153 277 153 244 185 c 128,-1,43
 211 217 211 217 192.5 260.5 c 128,-1,44
 174 304 174 304 174 355 c 0,45,46
 174 400 174 400 189.5 443 c 128,-1,47
 205 486 205 486 236.5 519.5 c 128,-1,48
 268 553 268 553 315 573 c 128,-1,49
 362 593 362 593 424 593 c 0,50,51
 504 593 504 593 561 558.5 c 128,-1,52
 618 524 618 524 645 465 c 1,53,-1
 515 425 l 1,54,55
 500 456 500 456 474 467.5 c 128,-1,56
 448 479 448 479 423 479 c 0,57,58
 397 479 397 479 376 469 c 128,-1,59
 355 459 355 459 340.5 442 c 128,-1,60
 326 425 326 425 318.5 402.5 c 128,-1,61
 311 380 311 380 311 355 c 0,62,63
 311 325 311 325 321 301.5 c 128,-1,64
 331 278 331 278 347 262.5 c 128,-1,65
 363 247 363 247 383 238.5 c 128,-1,66
 403 230 403 230 424 230 c 0,67,68
 453 230 453 230 478.5 245 c 128,-1,69
 504 260 504 260 518 286 c 1,70,-1
 649 247 l 1,71,72
 637 221 637 221 617 197.5 c 128,-1,73
 597 174 597 174 568.5 156 c 128,-1,74
 540 138 540 138 504 127 c 128,-1,75
 468 116 468 116 426 116 c 0,40,41
EndSplineSet
EndChar

StartChar: ordfeminine
Encoding: 170 170 109
Width: 444
GlyphClass: 2
Flags: W
LayerCount: 2
Fore
SplineSet
160 339 m 0,0,1
 134 339 134 339 112.5 347.5 c 128,-1,2
 91 356 91 356 74.5 371.5 c 128,-1,3
 58 387 58 387 49 408 c 128,-1,4
 40 429 40 429 40 453 c 0,5,6
 40 479 40 479 51 501 c 128,-1,7
 62 523 62 523 82 538.5 c 128,-1,8
 102 554 102 554 129.5 563 c 128,-1,9
 157 572 157 572 190 572 c 0,10,11
 238 572 238 572 273 556 c 1,12,-1
 273 575 l 2,13,14
 273 608 273 608 254.5 626.5 c 128,-1,15
 236 645 236 645 198 645 c 0,16,17
 169 645 169 645 143 635 c 128,-1,18
 117 625 117 625 88 605 c 1,19,-1
 58 666 l 1,20,21
 127 713 127 713 207 713 c 0,22,23
 285 713 285 713 328 675 c 128,-1,24
 371 637 371 637 371 563 c 2,25,-1
 371 459 l 2,26,27
 371 444 371 444 376.5 437.5 c 128,-1,28
 382 431 382 431 396 430 c 1,29,-1
 396 345 l 1,30,31
 383 343 383 343 372 342 c 128,-1,32
 361 341 361 341 352 341 c 0,33,34
 298 341 298 341 290 385 c 2,35,-1
 288 404 l 1,36,37
 264 372 264 372 231 355.5 c 128,-1,38
 198 339 198 339 160 339 c 0,0,1
189 411 m 0,39,40
 209 411 209 411 228.5 418.5 c 128,-1,41
 248 426 248 426 259 438 c 0,42,43
 273 450 273 450 273 464 c 2,44,-1
 273 503 l 1,45,46
 258 509 258 509 240.5 512 c 128,-1,47
 223 515 223 515 207 515 c 0,48,49
 174 515 174 515 153 500.5 c 128,-1,50
 132 486 132 486 132 462 c 0,51,52
 132 440 132 440 148.5 425.5 c 128,-1,53
 165 411 165 411 189 411 c 0,39,40
EndSplineSet
EndChar

StartChar: guillemotleft
Encoding: 171 171 110
Width: 649
GlyphClass: 2
Flags: W
LayerCount: 2
Fore
SplineSet
35 288 m 1,0,-1
 299 477 l 1,1,-1
 299 368 l 1,2,-1
 142 259 l 1,3,-1
 299 156 l 1,4,-1
 299 46 l 1,5,-1
 35 223 l 1,6,-1
 35 288 l 1,0,-1
327 288 m 1,7,-1
 590 477 l 1,8,-1
 590 368 l 1,9,-1
 433 259 l 1,10,-1
 590 156 l 1,11,-1
 590 46 l 1,12,-1
 327 223 l 1,13,-1
 327 288 l 1,7,-1
EndSplineSet
EndChar

StartChar: logicalnot
Encoding: 172 172 111
Width: 612
GlyphClass: 2
Flags: W
LayerCount: 2
Fore
SplineSet
547 400 m 1,0,-1
 547 106 l 1,1,-1
 433 106 l 1,2,-1
 433 280 l 1,3,-1
 59 280 l 1,4,-1
 59 400 l 1,5,-1
 547 400 l 1,0,-1
EndSplineSet
EndChar

StartChar: uni00AD
Encoding: 173 173 112
Width: 603
GlyphClass: 2
Flags: W
LayerCount: 2
Fore
SplineSet
58 214 m 1,0,-1
 58 335 l 1,1,-1
 546 335 l 1,2,-1
 546 214 l 1,3,-1
 58 214 l 1,0,-1
EndSplineSet
EndChar

StartChar: registered
Encoding: 174 174 113
Width: 841
GlyphClass: 2
Flags: W
LayerCount: 2
Fore
SplineSet
419 -7 m 256,0,1
 338 -7 338 -7 269 20.5 c 128,-1,2
 200 48 200 48 149.5 96.5 c 128,-1,3
 99 145 99 145 71 211 c 128,-1,4
 43 277 43 277 43 355 c 0,5,6
 43 432 43 432 71 498 c 128,-1,7
 99 564 99 564 149.5 612 c 128,-1,8
 200 660 200 660 269 687.5 c 128,-1,9
 338 715 338 715 419 715 c 256,10,11
 500 715 500 715 569.5 687.5 c 128,-1,12
 639 660 639 660 690 612 c 128,-1,13
 741 564 741 564 769.5 498 c 128,-1,14
 798 432 798 432 798 355 c 0,15,16
 798 277 798 277 769.5 211 c 128,-1,17
 741 145 741 145 690 96.5 c 128,-1,18
 639 48 639 48 569.5 20.5 c 128,-1,19
 500 -7 500 -7 419 -7 c 256,0,1
419 42 m 0,20,21
 487 42 487 42 546 65 c 128,-1,22
 605 88 605 88 648.5 129 c 128,-1,23
 692 170 692 170 717 227.5 c 128,-1,24
 742 285 742 285 742 353 c 0,25,26
 742 419 742 419 717.5 476 c 128,-1,27
 693 533 693 533 650 575 c 128,-1,28
 607 617 607 617 548 641 c 128,-1,29
 489 665 489 665 419 665 c 256,30,31
 349 665 349 665 290.5 641 c 128,-1,32
 232 617 232 617 189.5 575 c 128,-1,33
 147 533 147 533 123 476.5 c 128,-1,34
 99 420 99 420 99 355 c 0,35,36
 99 289 99 289 123 232 c 128,-1,37
 147 175 147 175 189.5 132.5 c 128,-1,38
 232 90 232 90 290.5 66 c 128,-1,39
 349 42 349 42 419 42 c 0,20,21
257 576 m 1,40,-1
 452 576 l 2,41,42
 482 576 482 576 508 563 c 128,-1,43
 534 550 534 550 552.5 529 c 128,-1,44
 571 508 571 508 581.5 482 c 128,-1,45
 592 456 592 456 592 429 c 0,46,47
 592 388 592 388 570 352 c 128,-1,48
 548 316 548 316 512 302 c 1,49,-1
 615 136 l 1,50,-1
 508 136 l 1,51,-1
 416 284 l 1,52,-1
 352 284 l 1,53,-1
 352 136 l 1,54,-1
 257 136 l 1,55,-1
 257 576 l 1,40,-1
444 366 m 2,56,57
 469 366 469 366 483.5 382.5 c 128,-1,58
 498 399 498 399 498 429 c 0,59,60
 498 461 498 461 481.5 476.5 c 128,-1,61
 465 492 465 492 442 492 c 2,62,-1
 352 492 l 1,63,-1
 352 366 l 1,64,-1
 444 366 l 2,56,57
EndSplineSet
EndChar

StartChar: macron
Encoding: 175 175 114
Width: 419
GlyphClass: 2
Flags: W
LayerCount: 2
Fore
SplineSet
60 633 m 1,0,-1
 60 716 l 1,1,-1
 360 716 l 1,2,-1
 360 633 l 1,3,-1
 60 633 l 1,0,-1
EndSplineSet
EndChar

StartChar: degree
Encoding: 176 176 115
Width: 285
GlyphClass: 2
Flags: W
LayerCount: 2
Fore
SplineSet
40 625 m 0,0,1
 40 667 40 667 68.5 695.5 c 128,-1,2
 97 724 97 724 142 724 c 256,3,4
 187 724 187 724 216 695.5 c 128,-1,5
 245 667 245 667 245 625 c 0,6,7
 245 577 245 577 216 548 c 128,-1,8
 187 519 187 519 142 519 c 256,9,10
 97 519 97 519 68.5 548.5 c 128,-1,11
 40 578 40 578 40 625 c 0,0,1
115 648 m 0,12,13
 105 636 105 636 105 621 c 256,14,15
 105 606 105 606 115 596 c 0,16,17
 129 584 129 584 142 584 c 0,18,19
 159 584 159 584 169 596 c 0,20,21
 179 606 179 606 179 621 c 256,22,23
 179 636 179 636 169 648 c 0,24,25
 164 653 164 653 157 656 c 128,-1,26
 150 659 150 659 142 659 c 0,27,28
 128 659 128 659 115 648 c 0,12,13
EndSplineSet
EndChar

StartChar: plusminus
Encoding: 177 177 116
Width: 472
GlyphClass: 2
Flags: W
LayerCount: 2
Fore
SplineSet
59 28 m 1,0,-1
 59 136 l 1,1,-1
 413 136 l 1,2,-1
 413 28 l 1,3,-1
 59 28 l 1,0,-1
413 430 m 1,4,-1
 413 323 l 1,5,-1
 296 323 l 1,6,-1
 296 196 l 1,7,-1
 176 196 l 1,8,-1
 176 323 l 1,9,-1
 59 323 l 1,10,-1
 59 430 l 1,11,-1
 176 430 l 1,12,-1
 176 557 l 1,13,-1
 296 557 l 1,14,-1
 296 430 l 1,15,-1
 413 430 l 1,4,-1
EndSplineSet
EndChar

StartChar: twosuperior
Encoding: 178 178 117
Width: 416
GlyphClass: 2
Flags: W
LayerCount: 2
Fore
SplineSet
30 389 m 1,0,1
 30 430 30 430 37 460.5 c 128,-1,2
 44 491 44 491 59.5 514 c 128,-1,3
 75 537 75 537 100 554.5 c 128,-1,4
 125 572 125 572 161 587 c 0,5,6
 184 596 184 596 207.5 605 c 128,-1,7
 231 614 231 614 250 625 c 128,-1,8
 269 636 269 636 281 650 c 128,-1,9
 293 664 293 664 293 684 c 0,10,11
 293 710 293 710 271 724 c 128,-1,12
 249 738 249 738 207 738 c 0,13,14
 163 738 163 738 132 722 c 128,-1,15
 101 706 101 706 84 689 c 1,16,-1
 33 747 l 1,17,18
 41 757 41 757 57 769 c 128,-1,19
 73 781 73 781 96.5 791.5 c 128,-1,20
 120 802 120 802 150.5 809 c 128,-1,21
 181 816 181 816 219 816 c 0,22,23
 300 816 300 816 341.5 780.5 c 128,-1,24
 383 745 383 745 383 683 c 0,25,26
 383 650 383 650 369.5 627 c 128,-1,27
 356 604 356 604 336.5 588.5 c 128,-1,28
 317 573 317 573 293.5 563 c 128,-1,29
 270 553 270 553 251 547 c 0,30,31
 200 531 200 531 170 510.5 c 128,-1,32
 140 490 140 490 140 467 c 1,33,-1
 371 467 l 1,34,-1
 371 389 l 1,35,-1
 30 389 l 1,0,1
EndSplineSet
EndChar

StartChar: threesuperior
Encoding: 179 179 118
Width: 407
GlyphClass: 2
Flags: W
LayerCount: 2
Fore
SplineSet
192 383 m 0,0,1
 129 383 129 383 85.5 403.5 c 128,-1,2
 42 424 42 424 28 462 c 1,3,-1
 71 521 l 1,4,5
 75 512 75 512 84.5 502 c 128,-1,6
 94 492 94 492 109 483.5 c 128,-1,7
 124 475 124 475 144 469 c 128,-1,8
 164 463 164 463 190 463 c 0,9,10
 232 463 232 463 262 476 c 128,-1,11
 292 489 292 489 292 515 c 0,12,13
 292 544 292 544 252.5 557 c 128,-1,14
 213 570 213 570 144 570 c 2,15,-1
 120 570 l 1,16,-1
 120 643 l 1,17,-1
 143 643 l 2,18,19
 204 643 204 643 241 655.5 c 128,-1,20
 278 668 278 668 278 695 c 0,21,22
 278 707 278 707 270 716 c 128,-1,23
 262 725 262 725 250 730.5 c 128,-1,24
 238 736 238 736 223 739 c 128,-1,25
 208 742 208 742 193 742 c 0,26,27
 153 742 153 742 125.5 728.5 c 128,-1,28
 98 715 98 715 80 692 c 1,29,-1
 29 756 l 1,30,31
 52 785 52 785 97 800.5 c 128,-1,32
 142 816 142 816 192 816 c 0,33,34
 229 816 229 816 260 807 c 128,-1,35
 291 798 291 798 314 782.5 c 128,-1,36
 337 767 337 767 350 746 c 128,-1,37
 363 725 363 725 363 700 c 0,38,39
 363 665 363 665 338 642 c 128,-1,40
 313 619 313 619 268 611 c 1,41,42
 317 604 317 604 345 573.5 c 128,-1,43
 373 543 373 543 373 502 c 0,44,45
 373 471 373 471 357.5 448.5 c 128,-1,46
 342 426 342 426 317 411.5 c 128,-1,47
 292 397 292 397 259 390 c 128,-1,48
 226 383 226 383 192 383 c 0,0,1
EndSplineSet
EndChar

StartChar: acute
Encoding: 180 180 119
Width: 255
GlyphClass: 2
Flags: W
LayerCount: 2
Fore
SplineSet
133 585 m 1,0,-1
 47 611 l 1,1,-1
 101 730 l 1,2,-1
 226 730 l 1,3,-1
 133 585 l 1,0,-1
EndSplineSet
EndChar

StartChar: mu
Encoding: 181 181 120
Width: 664
GlyphClass: 2
Flags: W
LayerCount: 2
Fore
SplineSet
77 524 m 1,0,-1
 211 524 l 1,1,-1
 211 225 l 2,2,3
 211 104 211 104 301 104 c 0,4,5
 338 104 338 104 374.5 127.5 c 128,-1,6
 411 151 411 151 434 199 c 1,7,-1
 434 524 l 1,8,-1
 568 524 l 1,9,-1
 568 154 l 2,10,11
 568 133 568 133 576 124 c 128,-1,12
 584 115 584 115 604 114 c 1,13,-1
 604 0 l 1,14,15
 583 -4 583 -4 568 -5 c 128,-1,16
 553 -6 553 -6 541 -6 c 0,17,18
 504 -6 504 -6 481 12 c 128,-1,19
 458 30 458 30 456 60 c 2,20,-1
 454 98 l 1,21,22
 445 80 445 80 428.5 61 c 128,-1,23
 412 42 412 42 390.5 26 c 128,-1,24
 369 10 369 10 343.5 0 c 128,-1,25
 318 -10 318 -10 292 -10 c 0,26,27
 272 -10 272 -10 257 -4 c 128,-1,28
 242 2 242 2 231 10.5 c 128,-1,29
 220 19 220 19 212.5 29.5 c 128,-1,30
 205 40 205 40 202 49 c 2,31,-1
 211 -212 l 1,32,-1
 77 -212 l 1,33,-1
 77 524 l 1,0,-1
EndSplineSet
EndChar

StartChar: paragraph
Encoding: 182 182 121
Width: 657
GlyphClass: 2
Flags: W
LayerCount: 2
Fore
SplineSet
35 456 m 0,0,1
 35 577 35 577 108.5 643.5 c 128,-1,2
 182 710 182 710 317 710 c 2,3,-1
 611 710 l 1,4,-1
 611 610 l 1,5,-1
 541 610 l 1,6,-1
 541 -80 l 1,7,-1
 428 -80 l 1,8,-1
 428 208 l 1,9,-1
 377 208 l 1,10,-1
 377 -80 l 1,11,-1
 263 -80 l 1,12,-1
 263 208 l 1,13,14
 211 208 211 208 169 226 c 128,-1,15
 127 244 127 244 97 276.5 c 128,-1,16
 67 309 67 309 51 354.5 c 128,-1,17
 35 400 35 400 35 456 c 0,0,1
147 459 m 0,18,19
 147 390 147 390 181 351.5 c 128,-1,20
 215 313 215 313 263 308 c 1,21,-1
 263 610 l 1,22,23
 207 607 207 607 177 566 c 128,-1,24
 147 525 147 525 147 459 c 0,18,19
428 610 m 1,25,-1
 377 610 l 1,26,-1
 377 308 l 1,27,-1
 428 308 l 1,28,-1
 428 610 l 1,25,-1
EndSplineSet
EndChar

StartChar: periodcentered
Encoding: 183 183 122
Width: 225
GlyphClass: 2
Flags: W
LayerCount: 2
Fore
SplineSet
58 242 m 1,0,-1
 58 393 l 1,1,-1
 168 393 l 1,2,-1
 168 242 l 1,3,-1
 58 242 l 1,0,-1
EndSplineSet
EndChar

StartChar: cedilla
Encoding: 184 184 123
Width: 326
GlyphClass: 2
Flags: W
LayerCount: 2
Fore
SplineSet
48 -127 m 1,0,1
 60 -134 60 -134 85 -140 c 128,-1,2
 110 -146 110 -146 137 -146 c 0,3,4
 163 -146 163 -146 178 -138.5 c 128,-1,5
 193 -131 193 -131 193 -113 c 256,6,7
 193 -95 193 -95 178.5 -87.5 c 128,-1,8
 164 -80 164 -80 141 -80 c 0,9,10
 120 -80 120 -80 96.5 -84.5 c 128,-1,11
 73 -89 73 -89 61 -92 c 1,12,-1
 122 28 l 1,13,-1
 174 12 l 1,14,-1
 139 -42 l 1,15,16
 146 -40 146 -40 154.5 -39 c 128,-1,17
 163 -38 163 -38 171 -38 c 0,18,19
 206 -38 206 -38 231 -54.5 c 128,-1,20
 256 -71 256 -71 256 -108 c 0,21,22
 256 -146 256 -146 224.5 -171 c 128,-1,23
 193 -196 193 -196 128 -196 c 0,24,25
 95 -196 95 -196 68 -190 c 128,-1,26
 41 -184 41 -184 21 -176 c 1,27,-1
 48 -127 l 1,0,1
EndSplineSet
EndChar

StartChar: onesuperior
Encoding: 185 185 124
Width: 298
GlyphClass: 2
Flags: W
LayerCount: 2
Fore
SplineSet
277 469 m 1,0,-1
 277 390 l 1,1,-1
 48 390 l 1,2,-1
 48 469 l 1,3,-1
 126 469 l 1,4,-1
 126 730 l 1,5,6
 121 723 121 723 110 714.5 c 128,-1,7
 99 706 99 706 85.5 698 c 128,-1,8
 72 690 72 690 58 684.5 c 128,-1,9
 44 679 44 679 32 679 c 1,10,-1
 32 758 l 1,11,12
 48 758 48 758 64.5 766.5 c 128,-1,13
 81 775 81 775 94.5 785.5 c 128,-1,14
 108 796 108 796 117 805.5 c 128,-1,15
 126 815 126 815 126 816 c 2,16,-1
 207 816 l 1,17,-1
 207 469 l 1,18,-1
 277 469 l 1,0,-1
EndSplineSet
EndChar

StartChar: ordmasculine
Encoding: 186 186 125
Width: 443
GlyphClass: 2
Flags: W
LayerCount: 2
Fore
SplineSet
222 339 m 256,0,1
 178 339 178 339 143.5 354.5 c 128,-1,2
 109 370 109 370 85 395.5 c 128,-1,3
 61 421 61 421 48.5 455 c 128,-1,4
 36 489 36 489 36 526 c 0,5,6
 36 564 36 564 48.5 598 c 128,-1,7
 61 632 61 632 85 657.5 c 128,-1,8
 109 683 109 683 143.5 698 c 128,-1,9
 178 713 178 713 222 713 c 0,10,11
 265 713 265 713 299.5 698 c 128,-1,12
 334 683 334 683 358 657.5 c 128,-1,13
 382 632 382 632 395 598 c 128,-1,14
 408 564 408 564 408 526 c 0,15,16
 408 489 408 489 395.5 455 c 128,-1,17
 383 421 383 421 359 395.5 c 128,-1,18
 335 370 335 370 300.5 354.5 c 128,-1,19
 266 339 266 339 222 339 c 256,0,1
135 525 m 0,20,21
 135 480 135 480 160 451.5 c 128,-1,22
 185 423 185 423 222 423 c 256,23,24
 259 423 259 423 283.5 452 c 128,-1,25
 308 481 308 481 308 526 c 256,26,27
 308 571 308 571 283.5 599.5 c 128,-1,28
 259 628 259 628 222 628 c 256,29,30
 185 628 185 628 160 599.5 c 128,-1,31
 135 571 135 571 135 525 c 0,20,21
EndSplineSet
EndChar

StartChar: guillemotright
Encoding: 187 187 126
Width: 649
GlyphClass: 2
Flags: W
LayerCount: 2
Fore
SplineSet
613 223 m 1,0,-1
 349 46 l 1,1,-1
 349 156 l 1,2,-1
 507 259 l 1,3,-1
 349 368 l 1,4,-1
 349 477 l 1,5,-1
 613 288 l 1,6,-1
 613 223 l 1,0,-1
322 223 m 1,7,-1
 58 46 l 1,8,-1
 58 156 l 1,9,-1
 216 259 l 1,10,-1
 58 368 l 1,11,-1
 58 477 l 1,12,-1
 322 288 l 1,13,-1
 322 223 l 1,7,-1
EndSplineSet
EndChar

StartChar: onequarter
Encoding: 188 188 127
Width: 931
GlyphClass: 2
Flags: W
LayerCount: 2
Fore
SplineSet
756 0 m 1,0,-1
 756 93 l 1,1,-1
 535 93 l 1,2,-1
 535 170 l 1,3,-1
 781 422 l 1,4,-1
 835 422 l 1,5,-1
 835 171 l 1,6,-1
 896 171 l 1,7,-1
 896 93 l 1,8,-1
 835 93 l 1,9,-1
 835 0 l 1,10,-1
 756 0 l 1,0,-1
612 171 m 1,11,-1
 759 171 l 1,12,-1
 759 324 l 1,13,-1
 612 171 l 1,11,-1
177 47 m 1,14,-1
 459 376 l 1,15,-1
 719 718 l 1,16,-1
 780 664 l 1,17,-1
 507 341 l 1,18,-1
 238 -7 l 1,19,-1
 177 47 l 1,14,-1
287 384 m 1,20,-1
 287 306 l 1,21,-1
 58 306 l 1,22,-1
 58 384 l 1,23,-1
 136 384 l 1,24,-1
 136 645 l 1,25,26
 131 638 131 638 120 629.5 c 128,-1,27
 109 621 109 621 95.5 613 c 128,-1,28
 82 605 82 605 68 599.5 c 128,-1,29
 54 594 54 594 42 594 c 1,30,-1
 42 674 l 1,31,32
 58 674 58 674 74.5 682.5 c 128,-1,33
 91 691 91 691 104.5 701.5 c 128,-1,34
 118 712 118 712 127 721 c 128,-1,35
 136 730 136 730 136 731 c 2,36,-1
 217 731 l 1,37,-1
 217 384 l 1,38,-1
 287 384 l 1,20,-1
EndSplineSet
EndChar

StartChar: onehalf
Encoding: 189 189 128
Width: 956
GlyphClass: 2
Flags: W
LayerCount: 2
Fore
SplineSet
569 0 m 1,0,1
 569 41 569 41 576 71.5 c 128,-1,2
 583 102 583 102 598 125 c 128,-1,3
 613 148 613 148 638 165.5 c 128,-1,4
 663 183 663 183 699 198 c 0,5,6
 721 207 721 207 744 216 c 128,-1,7
 767 225 767 225 785.5 236 c 128,-1,8
 804 247 804 247 815.5 260.5 c 128,-1,9
 827 274 827 274 827 294 c 0,10,11
 827 320 827 320 805.5 334.5 c 128,-1,12
 784 349 784 349 743 349 c 0,13,14
 700 349 700 349 669.5 332.5 c 128,-1,15
 639 316 639 316 622 299 c 1,16,-1
 572 357 l 1,17,18
 580 367 580 367 595.5 379 c 128,-1,19
 611 391 611 391 634.5 401.5 c 128,-1,20
 658 412 658 412 688 419 c 128,-1,21
 718 426 718 426 755 426 c 0,22,23
 834 426 834 426 874.5 391 c 128,-1,24
 915 356 915 356 915 293 c 0,25,26
 915 261 915 261 902 238.5 c 128,-1,27
 889 216 889 216 870 200.5 c 128,-1,28
 851 185 851 185 828 175.5 c 128,-1,29
 805 166 805 166 786 160 c 0,30,31
 735 144 735 144 710 122.5 c 128,-1,32
 685 101 685 101 681 78 c 1,33,-1
 916 78 l 1,34,-1
 916 0 l 1,35,-1
 569 0 l 1,0,1
137 47 m 1,36,-1
 419 376 l 1,37,-1
 679 718 l 1,38,-1
 740 664 l 1,39,-1
 467 341 l 1,40,-1
 198 -7 l 1,41,-1
 137 47 l 1,36,-1
286 384 m 1,42,-1
 286 306 l 1,43,-1
 57 306 l 1,44,-1
 57 384 l 1,45,-1
 135 384 l 1,46,-1
 135 645 l 1,47,48
 130 638 130 638 119 629.5 c 128,-1,49
 108 621 108 621 94.5 613 c 128,-1,50
 81 605 81 605 67 599.5 c 128,-1,51
 53 594 53 594 41 594 c 1,52,-1
 41 674 l 1,53,54
 57 674 57 674 73.5 682.5 c 128,-1,55
 90 691 90 691 103.5 701.5 c 128,-1,56
 117 712 117 712 126 721 c 128,-1,57
 135 730 135 730 135 731 c 2,58,-1
 216 731 l 1,59,-1
 216 384 l 1,60,-1
 286 384 l 1,42,-1
EndSplineSet
EndChar

StartChar: threequarters
Encoding: 190 190 129
Width: 939
GlyphClass: 2
Flags: W
LayerCount: 2
Fore
SplineSet
203 298 m 0,0,1
 140 298 140 298 96.5 318.5 c 128,-1,2
 53 339 53 339 39 377 c 1,3,-1
 82 436 l 1,4,5
 93 416 93 416 123 397.5 c 128,-1,6
 153 379 153 379 201 379 c 0,7,8
 243 379 243 379 273 391.5 c 128,-1,9
 303 404 303 404 303 430 c 0,10,11
 303 459 303 459 263.5 472.5 c 128,-1,12
 224 486 224 486 155 486 c 2,13,-1
 131 486 l 1,14,-1
 131 559 l 1,15,-1
 154 559 l 2,16,17
 215 559 215 559 252 571 c 128,-1,18
 289 583 289 583 289 611 c 0,19,20
 289 623 289 623 281 631.5 c 128,-1,21
 273 640 273 640 261 645.5 c 128,-1,22
 249 651 249 651 234 654 c 128,-1,23
 219 657 219 657 204 657 c 0,24,25
 164 657 164 657 136.5 643.5 c 128,-1,26
 109 630 109 630 91 608 c 1,27,-1
 40 672 l 1,28,29
 63 701 63 701 108 716 c 128,-1,30
 153 731 153 731 203 731 c 0,31,32
 240 731 240 731 271 722 c 128,-1,33
 302 713 302 713 325 697.5 c 128,-1,34
 348 682 348 682 361 661 c 128,-1,35
 374 640 374 640 374 615 c 0,36,37
 374 580 374 580 349 557 c 128,-1,38
 324 534 324 534 279 526 c 1,39,40
 328 519 328 519 356 489 c 128,-1,41
 384 459 384 459 384 418 c 0,42,43
 384 387 384 387 368.5 364.5 c 128,-1,44
 353 342 353 342 328 327 c 128,-1,45
 303 312 303 312 270 305 c 128,-1,46
 237 298 237 298 203 298 c 0,0,1
763 0 m 1,47,-1
 763 93 l 1,48,-1
 542 93 l 1,49,-1
 542 170 l 1,50,-1
 788 422 l 1,51,-1
 842 422 l 1,52,-1
 842 171 l 1,53,-1
 903 171 l 1,54,-1
 903 93 l 1,55,-1
 842 93 l 1,56,-1
 842 0 l 1,57,-1
 763 0 l 1,47,-1
619 171 m 1,58,-1
 766 171 l 1,59,-1
 766 324 l 1,60,-1
 619 171 l 1,58,-1
207 47 m 1,61,-1
 489 376 l 1,62,-1
 749 718 l 1,63,-1
 810 664 l 1,64,-1
 537 341 l 1,65,-1
 268 -7 l 1,66,-1
 207 47 l 1,61,-1
EndSplineSet
EndChar

StartChar: questiondown
Encoding: 191 191 130
Width: 479
GlyphClass: 2
Flags: W
LayerCount: 2
Fore
SplineSet
360 273 m 1,0,1
 360 224 360 224 344 185 c 128,-1,2
 328 146 328 146 278 117 c 0,3,4
 263 108 263 108 241 96.5 c 128,-1,5
 219 85 219 85 198 69 c 128,-1,6
 177 53 177 53 162.5 31.5 c 128,-1,7
 148 10 148 10 148 -18 c 0,8,9
 148 -39 148 -39 156 -55 c 128,-1,10
 164 -71 164 -71 177 -82 c 128,-1,11
 190 -93 190 -93 207.5 -98.5 c 128,-1,12
 225 -104 225 -104 243 -104 c 0,13,14
 265 -104 265 -104 283 -96.5 c 128,-1,15
 301 -89 301 -89 315.5 -77.5 c 128,-1,16
 330 -66 330 -66 341.5 -52 c 128,-1,17
 353 -38 353 -38 361 -24 c 1,18,-1
 448 -84 l 1,19,20
 435 -115 435 -115 413.5 -139 c 128,-1,21
 392 -163 392 -163 364.5 -179.5 c 128,-1,22
 337 -196 337 -196 305 -204.5 c 128,-1,23
 273 -213 273 -213 239 -213 c 0,24,25
 201 -213 201 -213 164 -202 c 128,-1,26
 127 -191 127 -191 97.5 -167 c 128,-1,27
 68 -143 68 -143 49.5 -105.5 c 128,-1,28
 31 -68 31 -68 31 -16 c 0,29,30
 31 16 31 16 38.5 40.5 c 128,-1,31
 46 65 46 65 60 85 c 128,-1,32
 74 105 74 105 93 121 c 128,-1,33
 112 137 112 137 136 152 c 0,34,35
 156 164 156 164 176 175 c 128,-1,36
 196 186 196 186 212.5 199.5 c 128,-1,37
 229 213 229 213 239.5 230 c 128,-1,38
 250 247 250 247 250 273 c 1,39,-1
 360 273 l 1,0,1
358 506 m 1,40,-1
 358 368 l 1,41,-1
 247 368 l 1,42,-1
 247 506 l 1,43,-1
 358 506 l 1,40,-1
EndSplineSet
EndChar

StartChar: Agrave
Encoding: 192 192 131
Width: 672
GlyphClass: 2
Flags: W
LayerCount: 2
Fore
SplineSet
276 710 m 1,0,-1
 398 710 l 1,1,-1
 668 0 l 1,2,-1
 526 0 l 1,3,-1
 460 177 l 1,4,-1
 212 177 l 1,5,-1
 147 0 l 1,6,-1
 5 0 l 1,7,-1
 276 710 l 1,0,-1
435 274 m 1,8,-1
 337 553 l 1,9,-1
 235 274 l 1,10,-1
 435 274 l 1,8,-1
209 916 m 1,11,-1
 333 916 l 1,12,-1
 388 797 l 1,13,-1
 302 771 l 1,14,-1
 209 916 l 1,11,-1
EndSplineSet
EndChar

StartChar: Aacute
Encoding: 193 193 132
Width: 672
GlyphClass: 2
Flags: W
LayerCount: 2
Fore
SplineSet
276 710 m 1,0,-1
 398 710 l 1,1,-1
 668 0 l 1,2,-1
 526 0 l 1,3,-1
 460 177 l 1,4,-1
 212 177 l 1,5,-1
 147 0 l 1,6,-1
 5 0 l 1,7,-1
 276 710 l 1,0,-1
435 274 m 1,8,-1
 337 553 l 1,9,-1
 235 274 l 1,10,-1
 435 274 l 1,8,-1
372 770 m 1,11,-1
 286 796 l 1,12,-1
 340 915 l 1,13,-1
 465 915 l 1,14,-1
 372 770 l 1,11,-1
EndSplineSet
EndChar

StartChar: Acircumflex
Encoding: 194 194 133
Width: 672
GlyphClass: 2
Flags: W
LayerCount: 2
Fore
SplineSet
276 710 m 1,0,-1
 398 710 l 1,1,-1
 668 0 l 1,2,-1
 526 0 l 1,3,-1
 460 177 l 1,4,-1
 212 177 l 1,5,-1
 147 0 l 1,6,-1
 5 0 l 1,7,-1
 276 710 l 1,0,-1
435 274 m 1,8,-1
 337 553 l 1,9,-1
 235 274 l 1,10,-1
 435 274 l 1,8,-1
182 814 m 1,11,-1
 288 915 l 1,12,-1
 385 915 l 1,13,-1
 491 814 l 1,14,-1
 422 782 l 1,15,-1
 337 845 l 1,16,-1
 252 782 l 1,17,-1
 182 814 l 1,11,-1
EndSplineSet
EndChar

StartChar: Atilde
Encoding: 195 195 134
Width: 672
GlyphClass: 2
Flags: W
LayerCount: 2
Fore
SplineSet
276 710 m 1,0,-1
 398 710 l 1,1,-1
 668 0 l 1,2,-1
 526 0 l 1,3,-1
 460 177 l 1,4,-1
 212 177 l 1,5,-1
 147 0 l 1,6,-1
 5 0 l 1,7,-1
 276 710 l 1,0,-1
435 274 m 1,8,-1
 337 553 l 1,9,-1
 235 274 l 1,10,-1
 435 274 l 1,8,-1
400 787 m 0,11,12
 377 787 377 787 360 794 c 128,-1,13
 343 801 343 801 328.5 809.5 c 128,-1,14
 314 818 314 818 299.5 825 c 128,-1,15
 285 832 285 832 269 832 c 0,16,17
 252 832 252 832 242.5 825 c 128,-1,18
 233 818 233 818 228 809 c 128,-1,19
 223 800 223 800 222 792.5 c 128,-1,20
 221 785 221 785 221 784 c 2,21,-1
 147 784 l 1,22,23
 147 793 147 793 153 814.5 c 128,-1,24
 159 836 159 836 172.5 857.5 c 128,-1,25
 186 879 186 879 208.5 895.5 c 128,-1,26
 231 912 231 912 264 912 c 0,27,28
 287 912 287 912 303.5 904.5 c 128,-1,29
 320 897 320 897 334.5 888.5 c 128,-1,30
 349 880 349 880 363.5 872.5 c 128,-1,31
 378 865 378 865 396 865 c 256,32,33
 414 865 414 865 424.5 872 c 128,-1,34
 435 879 435 879 440.5 888 c 128,-1,35
 446 897 446 897 447.5 905 c 128,-1,36
 449 913 449 913 449 915 c 2,37,-1
 523 915 l 1,38,39
 523 908 523 908 517 887 c 128,-1,40
 511 866 511 866 496.5 844 c 128,-1,41
 482 822 482 822 458.5 804.5 c 128,-1,42
 435 787 435 787 400 787 c 0,11,12
EndSplineSet
EndChar

StartChar: Adieresis
Encoding: 196 196 135
Width: 672
GlyphClass: 2
Flags: W
LayerCount: 2
Fore
SplineSet
276 710 m 1,0,-1
 398 710 l 1,1,-1
 668 0 l 1,2,-1
 526 0 l 1,3,-1
 460 177 l 1,4,-1
 212 177 l 1,5,-1
 147 0 l 1,6,-1
 5 0 l 1,7,-1
 276 710 l 1,0,-1
435 274 m 1,8,-1
 337 553 l 1,9,-1
 235 274 l 1,10,-1
 435 274 l 1,8,-1
185 790 m 1,11,-1
 185 909 l 1,12,-1
 296 909 l 1,13,-1
 296 790 l 1,14,-1
 185 790 l 1,11,-1
377 790 m 1,15,-1
 377 909 l 1,16,-1
 488 909 l 1,17,-1
 488 790 l 1,18,-1
 377 790 l 1,15,-1
EndSplineSet
EndChar

StartChar: Aring
Encoding: 197 197 136
Width: 672
GlyphClass: 2
Flags: W
LayerCount: 2
Fore
SplineSet
276 710 m 1,0,-1
 398 710 l 1,1,-1
 668 0 l 1,2,-1
 526 0 l 1,3,-1
 460 177 l 1,4,-1
 212 177 l 1,5,-1
 147 0 l 1,6,-1
 5 0 l 1,7,-1
 276 710 l 1,0,-1
435 274 m 1,8,-1
 337 553 l 1,9,-1
 235 274 l 1,10,-1
 435 274 l 1,8,-1
239 838 m 256,11,12
 239 875 239 875 265.5 895 c 128,-1,13
 292 915 292 915 336 915 c 256,14,15
 380 915 380 915 406.5 895 c 128,-1,16
 433 875 433 875 433 838 c 256,17,18
 433 801 433 801 406.5 781 c 128,-1,19
 380 761 380 761 336 761 c 256,20,21
 292 761 292 761 265.5 781 c 128,-1,22
 239 801 239 801 239 838 c 256,11,12
336 874 m 256,23,24
 319 874 319 874 307.5 864.5 c 128,-1,25
 296 855 296 855 296 838 c 0,26,27
 296 823 296 823 307.5 812.5 c 128,-1,28
 319 802 319 802 336 802 c 0,29,30
 352 802 352 802 364.5 812 c 128,-1,31
 377 822 377 822 377 838 c 0,32,33
 377 855 377 855 365 864.5 c 128,-1,34
 353 874 353 874 336 874 c 256,23,24
EndSplineSet
EndChar

StartChar: AE
Encoding: 198 198 137
Width: 966
GlyphClass: 2
Flags: W
LayerCount: 2
Fore
SplineSet
418 710 m 1,0,-1
 923 710 l 1,1,-1
 923 589 l 1,2,-1
 590 589 l 1,3,-1
 590 422 l 1,4,-1
 869 422 l 1,5,-1
 869 301 l 1,6,-1
 590 301 l 1,7,-1
 590 121 l 1,8,-1
 932 121 l 1,9,-1
 932 0 l 1,10,-1
 454 0 l 1,11,-1
 454 177 l 1,12,-1
 226 177 l 1,13,-1
 121 0 l 1,14,-1
 -25 0 l 1,15,-1
 418 710 l 1,0,-1
444 297 m 1,16,-1
 444 555 l 1,17,-1
 285 297 l 1,18,-1
 444 297 l 1,16,-1
EndSplineSet
EndChar

StartChar: Ccedilla
Encoding: 199 199 138
Width: 684
GlyphClass: 2
Flags: W
LayerCount: 2
Fore
SplineSet
285 -127 m 1,0,1
 297 -134 297 -134 322 -140 c 128,-1,2
 347 -146 347 -146 374 -146 c 0,3,4
 400 -146 400 -146 415 -138.5 c 128,-1,5
 430 -131 430 -131 430 -113 c 256,6,7
 430 -95 430 -95 415.5 -87.5 c 128,-1,8
 401 -80 401 -80 378 -80 c 0,9,10
 357 -80 357 -80 333.5 -84.5 c 128,-1,11
 310 -89 310 -89 298 -92 c 1,12,-1
 342 -4 l 1,13,14
 273 2 273 2 215 36 c 128,-1,15
 157 70 157 70 116 120.5 c 128,-1,16
 75 171 75 171 52 233.5 c 128,-1,17
 29 296 29 296 29 360 c 0,18,19
 29 425 29 425 52.5 488.5 c 128,-1,20
 76 552 76 552 121 602 c 128,-1,21
 166 652 166 652 231 683 c 128,-1,22
 296 714 296 714 379 714 c 0,23,24
 477 714 477 714 548.5 671 c 128,-1,25
 620 628 620 628 655 559 c 1,26,-1
 549 486 l 1,27,28
 535 516 535 516 515 536.5 c 128,-1,29
 495 557 495 557 472 569 c 128,-1,30
 449 581 449 581 424 586.5 c 128,-1,31
 399 592 399 592 375 592 c 0,32,33
 323 592 323 592 284.5 571 c 128,-1,34
 246 550 246 550 220.5 516.5 c 128,-1,35
 195 483 195 483 182 440.5 c 128,-1,36
 169 398 169 398 169 356 c 0,37,38
 169 309 169 309 184 265.5 c 128,-1,39
 199 222 199 222 226.5 189 c 128,-1,40
 254 156 254 156 292.5 136 c 128,-1,41
 331 116 331 116 377 116 c 0,42,43
 401 116 401 116 427 122 c 128,-1,44
 453 128 453 128 476.5 141 c 128,-1,45
 500 154 500 154 520 174.5 c 128,-1,46
 540 195 540 195 552 224 c 1,47,-1
 665 159 l 1,48,49
 650 122 650 122 621.5 93 c 128,-1,50
 593 64 593 64 557.5 43 c 128,-1,51
 522 22 522 22 481 10 c 128,-1,52
 440 -2 440 -2 400 -5 c 1,53,-1
 376 -42 l 1,54,55
 383 -40 383 -40 391.5 -39 c 128,-1,56
 400 -38 400 -38 408 -38 c 0,57,58
 443 -38 443 -38 468 -54.5 c 128,-1,59
 493 -71 493 -71 493 -108 c 0,60,61
 493 -146 493 -146 461.5 -171 c 128,-1,62
 430 -196 430 -196 365 -196 c 0,63,64
 332 -196 332 -196 305 -190 c 128,-1,65
 278 -184 278 -184 258 -176 c 1,66,-1
 285 -127 l 1,0,1
EndSplineSet
EndChar

StartChar: Egrave
Encoding: 200 200 139
Width: 601
GlyphClass: 2
Flags: W
LayerCount: 2
Fore
SplineSet
567 121 m 1,0,-1
 567 0 l 1,1,-1
 74 0 l 1,2,-1
 74 710 l 1,3,-1
 558 710 l 1,4,-1
 558 589 l 1,5,-1
 212 589 l 1,6,-1
 212 418 l 1,7,-1
 511 418 l 1,8,-1
 511 306 l 1,9,-1
 212 306 l 1,10,-1
 212 121 l 1,11,-1
 567 121 l 1,0,-1
198 916 m 1,12,-1
 322 916 l 1,13,-1
 377 797 l 1,14,-1
 291 771 l 1,15,-1
 198 916 l 1,12,-1
EndSplineSet
EndChar

StartChar: Eacute
Encoding: 201 201 140
Width: 601
GlyphClass: 2
Flags: W
LayerCount: 2
Fore
SplineSet
361 770 m 1,0,-1
 275 796 l 1,1,-1
 329 915 l 1,2,-1
 454 915 l 1,3,-1
 361 770 l 1,0,-1
567 121 m 1,4,-1
 567 0 l 1,5,-1
 74 0 l 1,6,-1
 74 710 l 1,7,-1
 558 710 l 1,8,-1
 558 589 l 1,9,-1
 212 589 l 1,10,-1
 212 418 l 1,11,-1
 511 418 l 1,12,-1
 511 306 l 1,13,-1
 212 306 l 1,14,-1
 212 121 l 1,15,-1
 567 121 l 1,4,-1
EndSplineSet
EndChar

StartChar: Ecircumflex
Encoding: 202 202 141
Width: 601
GlyphClass: 2
Flags: W
LayerCount: 2
Fore
SplineSet
171 814 m 1,0,-1
 277 915 l 1,1,-1
 374 915 l 1,2,-1
 480 814 l 1,3,-1
 411 782 l 1,4,-1
 326 845 l 1,5,-1
 241 782 l 1,6,-1
 171 814 l 1,0,-1
567 121 m 1,7,-1
 567 0 l 1,8,-1
 74 0 l 1,9,-1
 74 710 l 1,10,-1
 558 710 l 1,11,-1
 558 589 l 1,12,-1
 212 589 l 1,13,-1
 212 418 l 1,14,-1
 511 418 l 1,15,-1
 511 306 l 1,16,-1
 212 306 l 1,17,-1
 212 121 l 1,18,-1
 567 121 l 1,7,-1
EndSplineSet
EndChar

StartChar: Edieresis
Encoding: 203 203 142
Width: 601
GlyphClass: 2
Flags: W
LayerCount: 2
Fore
SplineSet
174 790 m 1,0,-1
 174 909 l 1,1,-1
 285 909 l 1,2,-1
 285 790 l 1,3,-1
 174 790 l 1,0,-1
366 790 m 1,4,-1
 366 909 l 1,5,-1
 477 909 l 1,6,-1
 477 790 l 1,7,-1
 366 790 l 1,4,-1
567 121 m 1,8,-1
 567 0 l 1,9,-1
 74 0 l 1,10,-1
 74 710 l 1,11,-1
 558 710 l 1,12,-1
 558 589 l 1,13,-1
 212 589 l 1,14,-1
 212 418 l 1,15,-1
 511 418 l 1,16,-1
 511 306 l 1,17,-1
 212 306 l 1,18,-1
 212 121 l 1,19,-1
 567 121 l 1,8,-1
EndSplineSet
EndChar

StartChar: Igrave
Encoding: 204 204 143
Width: 286
GlyphClass: 2
Flags: W
LayerCount: 2
Fore
SplineSet
74 0 m 1,0,-1
 74 710 l 1,1,-1
 212 710 l 1,2,-1
 212 0 l 1,3,-1
 74 0 l 1,0,-1
15 916 m 1,4,-1
 139 916 l 1,5,-1
 194 797 l 1,6,-1
 108 771 l 1,7,-1
 15 916 l 1,4,-1
EndSplineSet
EndChar

StartChar: Iacute
Encoding: 205 205 144
Width: 286
GlyphClass: 2
Flags: W
LayerCount: 2
Fore
SplineSet
74 0 m 1,0,-1
 74 710 l 1,1,-1
 212 710 l 1,2,-1
 212 0 l 1,3,-1
 74 0 l 1,0,-1
177 770 m 1,4,-1
 91 796 l 1,5,-1
 145 915 l 1,6,-1
 270 915 l 1,7,-1
 177 770 l 1,4,-1
EndSplineSet
EndChar

StartChar: Icircumflex
Encoding: 206 206 145
Width: 286
GlyphClass: 2
Flags: W
LayerCount: 2
Fore
SplineSet
74 0 m 1,0,-1
 74 710 l 1,1,-1
 212 710 l 1,2,-1
 212 0 l 1,3,-1
 74 0 l 1,0,-1
-12 814 m 1,4,-1
 94 915 l 1,5,-1
 191 915 l 1,6,-1
 297 814 l 1,7,-1
 228 782 l 1,8,-1
 143 845 l 1,9,-1
 58 782 l 1,10,-1
 -12 814 l 1,4,-1
EndSplineSet
EndChar

StartChar: Idieresis
Encoding: 207 207 146
Width: 286
GlyphClass: 2
Flags: W
LayerCount: 2
Fore
SplineSet
74 0 m 1,0,-1
 74 710 l 1,1,-1
 212 710 l 1,2,-1
 212 0 l 1,3,-1
 74 0 l 1,0,-1
-9 790 m 1,4,-1
 -9 909 l 1,5,-1
 102 909 l 1,6,-1
 102 790 l 1,7,-1
 -9 790 l 1,4,-1
183 790 m 1,8,-1
 183 909 l 1,9,-1
 294 909 l 1,10,-1
 294 790 l 1,11,-1
 183 790 l 1,8,-1
EndSplineSet
EndChar

StartChar: Eth
Encoding: 208 208 147
Width: 721
GlyphClass: 2
Flags: W
LayerCount: 2
Fore
SplineSet
79 0 m 1,0,-1
 79 307 l 1,1,-1
 31 307 l 1,2,-1
 31 407 l 1,3,-1
 79 407 l 1,4,-1
 79 710 l 1,5,-1
 337 710 l 2,6,7
 424 710 424 710 489.5 682 c 128,-1,8
 555 654 555 654 599 606 c 128,-1,9
 643 558 643 558 665 493.5 c 128,-1,10
 687 429 687 429 687 356 c 0,11,12
 687 275 687 275 662.5 209.5 c 128,-1,13
 638 144 638 144 592 97.5 c 128,-1,14
 546 51 546 51 481.5 25.5 c 128,-1,15
 417 0 417 0 337 0 c 2,16,-1
 79 0 l 1,0,-1
548 356 m 0,17,18
 548 407 548 407 534 450 c 128,-1,19
 520 493 520 493 493 524 c 128,-1,20
 466 555 466 555 426.5 572 c 128,-1,21
 387 589 387 589 337 589 c 2,22,-1
 217 589 l 1,23,-1
 217 407 l 1,24,-1
 356 407 l 1,25,-1
 356 307 l 1,26,-1
 217 307 l 1,27,-1
 217 121 l 1,28,-1
 337 121 l 2,29,30
 388 121 388 121 427.5 139 c 128,-1,31
 467 157 467 157 493.5 188.5 c 128,-1,32
 520 220 520 220 534 263 c 128,-1,33
 548 306 548 306 548 356 c 0,17,18
EndSplineSet
EndChar

StartChar: Ntilde
Encoding: 209 209 148
Width: 763
GlyphClass: 2
Flags: W
LayerCount: 2
Fore
SplineSet
212 455 m 1,0,-1
 212 0 l 1,1,-1
 74 0 l 1,2,-1
 74 710 l 1,3,-1
 181 710 l 1,4,-1
 551 244 l 1,5,-1
 551 709 l 1,6,-1
 689 709 l 1,7,-1
 689 0 l 1,8,-1
 577 0 l 1,9,-1
 212 455 l 1,0,-1
444 787 m 0,10,11
 421 787 421 787 404 794 c 128,-1,12
 387 801 387 801 372.5 809.5 c 128,-1,13
 358 818 358 818 343.5 825 c 128,-1,14
 329 832 329 832 313 832 c 0,15,16
 296 832 296 832 286.5 825 c 128,-1,17
 277 818 277 818 272 809 c 128,-1,18
 267 800 267 800 266 792.5 c 128,-1,19
 265 785 265 785 265 784 c 2,20,-1
 191 784 l 1,21,22
 191 793 191 793 197 814.5 c 128,-1,23
 203 836 203 836 216.5 857.5 c 128,-1,24
 230 879 230 879 252.5 895.5 c 128,-1,25
 275 912 275 912 308 912 c 0,26,27
 331 912 331 912 347.5 904.5 c 128,-1,28
 364 897 364 897 378.5 888.5 c 128,-1,29
 393 880 393 880 407.5 872.5 c 128,-1,30
 422 865 422 865 440 865 c 256,31,32
 458 865 458 865 468.5 872 c 128,-1,33
 479 879 479 879 484.5 888 c 128,-1,34
 490 897 490 897 491.5 905 c 128,-1,35
 493 913 493 913 493 915 c 2,36,-1
 567 915 l 1,37,38
 567 908 567 908 561 887 c 128,-1,39
 555 866 555 866 540.5 844 c 128,-1,40
 526 822 526 822 502.5 804.5 c 128,-1,41
 479 787 479 787 444 787 c 0,10,11
EndSplineSet
EndChar

StartChar: Ograve
Encoding: 210 210 149
Width: 756
GlyphClass: 2
Flags: W
LayerCount: 2
Fore
SplineSet
377 -5 m 0,0,1
 299 -5 299 -5 235.5 25.5 c 128,-1,2
 172 56 172 56 126.5 106.5 c 128,-1,3
 81 157 81 157 56 222 c 128,-1,4
 31 287 31 287 31 355 c 0,5,6
 31 426 31 426 57.5 491 c 128,-1,7
 84 556 84 556 130.5 606 c 128,-1,8
 177 656 177 656 241 685.5 c 128,-1,9
 305 715 305 715 380 715 c 0,10,11
 457 715 457 715 520.5 683.5 c 128,-1,12
 584 652 584 652 629 601 c 128,-1,13
 674 550 674 550 699 485 c 128,-1,14
 724 420 724 420 724 353 c 0,15,16
 724 282 724 282 698 217.5 c 128,-1,17
 672 153 672 153 626 103.5 c 128,-1,18
 580 54 580 54 516 24.5 c 128,-1,19
 452 -5 452 -5 377 -5 c 0,0,1
171 355 m 0,20,21
 171 309 171 309 185 266 c 128,-1,22
 199 223 199 223 225.5 190 c 128,-1,23
 252 157 252 157 290.5 137 c 128,-1,24
 329 117 329 117 378 117 c 0,25,26
 428 117 428 117 466.5 137.5 c 128,-1,27
 505 158 505 158 531.5 192 c 128,-1,28
 558 226 558 226 571.5 268.5 c 128,-1,29
 585 311 585 311 585 355 c 0,30,31
 585 401 585 401 570.5 444 c 128,-1,32
 556 487 556 487 529.5 520 c 128,-1,33
 503 553 503 553 464.5 572.5 c 128,-1,34
 426 592 426 592 378 592 c 0,35,36
 328 592 328 592 289 571.5 c 128,-1,37
 250 551 250 551 224 517.5 c 128,-1,38
 198 484 198 484 184.5 441.5 c 128,-1,39
 171 399 171 399 171 355 c 0,20,21
254 916 m 1,40,-1
 378 916 l 1,41,-1
 433 797 l 1,42,-1
 347 771 l 1,43,-1
 254 916 l 1,40,-1
EndSplineSet
EndChar

StartChar: Oacute
Encoding: 211 211 150
Width: 756
GlyphClass: 2
Flags: W
LayerCount: 2
Fore
SplineSet
418 770 m 1,0,-1
 332 796 l 1,1,-1
 386 915 l 1,2,-1
 511 915 l 1,3,-1
 418 770 l 1,0,-1
377 -5 m 0,4,5
 299 -5 299 -5 235.5 25.5 c 128,-1,6
 172 56 172 56 126.5 106.5 c 128,-1,7
 81 157 81 157 56 222 c 128,-1,8
 31 287 31 287 31 355 c 0,9,10
 31 426 31 426 57.5 491 c 128,-1,11
 84 556 84 556 130.5 606 c 128,-1,12
 177 656 177 656 241 685.5 c 128,-1,13
 305 715 305 715 380 715 c 0,14,15
 457 715 457 715 520.5 683.5 c 128,-1,16
 584 652 584 652 629 601 c 128,-1,17
 674 550 674 550 699 485 c 128,-1,18
 724 420 724 420 724 353 c 0,19,20
 724 282 724 282 698 217.5 c 128,-1,21
 672 153 672 153 626 103.5 c 128,-1,22
 580 54 580 54 516 24.5 c 128,-1,23
 452 -5 452 -5 377 -5 c 0,4,5
171 355 m 0,24,25
 171 309 171 309 185 266 c 128,-1,26
 199 223 199 223 225.5 190 c 128,-1,27
 252 157 252 157 290.5 137 c 128,-1,28
 329 117 329 117 378 117 c 0,29,30
 428 117 428 117 466.5 137.5 c 128,-1,31
 505 158 505 158 531.5 192 c 128,-1,32
 558 226 558 226 571.5 268.5 c 128,-1,33
 585 311 585 311 585 355 c 0,34,35
 585 401 585 401 570.5 444 c 128,-1,36
 556 487 556 487 529.5 520 c 128,-1,37
 503 553 503 553 464.5 572.5 c 128,-1,38
 426 592 426 592 378 592 c 0,39,40
 328 592 328 592 289 571.5 c 128,-1,41
 250 551 250 551 224 517.5 c 128,-1,42
 198 484 198 484 184.5 441.5 c 128,-1,43
 171 399 171 399 171 355 c 0,24,25
EndSplineSet
EndChar

StartChar: Ocircumflex
Encoding: 212 212 151
Width: 756
GlyphClass: 2
Flags: W
LayerCount: 2
Fore
SplineSet
225 814 m 1,0,-1
 331 915 l 1,1,-1
 428 915 l 1,2,-1
 534 814 l 1,3,-1
 465 782 l 1,4,-1
 380 845 l 1,5,-1
 295 782 l 1,6,-1
 225 814 l 1,0,-1
377 -5 m 0,7,8
 299 -5 299 -5 235.5 25.5 c 128,-1,9
 172 56 172 56 126.5 106.5 c 128,-1,10
 81 157 81 157 56 222 c 128,-1,11
 31 287 31 287 31 355 c 0,12,13
 31 426 31 426 57.5 491 c 128,-1,14
 84 556 84 556 130.5 606 c 128,-1,15
 177 656 177 656 241 685.5 c 128,-1,16
 305 715 305 715 380 715 c 0,17,18
 457 715 457 715 520.5 683.5 c 128,-1,19
 584 652 584 652 629 601 c 128,-1,20
 674 550 674 550 699 485 c 128,-1,21
 724 420 724 420 724 353 c 0,22,23
 724 282 724 282 698 217.5 c 128,-1,24
 672 153 672 153 626 103.5 c 128,-1,25
 580 54 580 54 516 24.5 c 128,-1,26
 452 -5 452 -5 377 -5 c 0,7,8
171 355 m 0,27,28
 171 309 171 309 185 266 c 128,-1,29
 199 223 199 223 225.5 190 c 128,-1,30
 252 157 252 157 290.5 137 c 128,-1,31
 329 117 329 117 378 117 c 0,32,33
 428 117 428 117 466.5 137.5 c 128,-1,34
 505 158 505 158 531.5 192 c 128,-1,35
 558 226 558 226 571.5 268.5 c 128,-1,36
 585 311 585 311 585 355 c 0,37,38
 585 401 585 401 570.5 444 c 128,-1,39
 556 487 556 487 529.5 520 c 128,-1,40
 503 553 503 553 464.5 572.5 c 128,-1,41
 426 592 426 592 378 592 c 0,42,43
 328 592 328 592 289 571.5 c 128,-1,44
 250 551 250 551 224 517.5 c 128,-1,45
 198 484 198 484 184.5 441.5 c 128,-1,46
 171 399 171 399 171 355 c 0,27,28
EndSplineSet
EndChar

StartChar: Otilde
Encoding: 213 213 152
Width: 756
GlyphClass: 2
Flags: W
LayerCount: 2
Fore
SplineSet
377 -5 m 0,0,1
 299 -5 299 -5 235.5 25.5 c 128,-1,2
 172 56 172 56 126.5 106.5 c 128,-1,3
 81 157 81 157 56 222 c 128,-1,4
 31 287 31 287 31 355 c 0,5,6
 31 426 31 426 57.5 491 c 128,-1,7
 84 556 84 556 130.5 606 c 128,-1,8
 177 656 177 656 241 685.5 c 128,-1,9
 305 715 305 715 380 715 c 0,10,11
 457 715 457 715 520.5 683.5 c 128,-1,12
 584 652 584 652 629 601 c 128,-1,13
 674 550 674 550 699 485 c 128,-1,14
 724 420 724 420 724 353 c 0,15,16
 724 282 724 282 698 217.5 c 128,-1,17
 672 153 672 153 626 103.5 c 128,-1,18
 580 54 580 54 516 24.5 c 128,-1,19
 452 -5 452 -5 377 -5 c 0,0,1
171 355 m 0,20,21
 171 309 171 309 185 266 c 128,-1,22
 199 223 199 223 225.5 190 c 128,-1,23
 252 157 252 157 290.5 137 c 128,-1,24
 329 117 329 117 378 117 c 0,25,26
 428 117 428 117 466.5 137.5 c 128,-1,27
 505 158 505 158 531.5 192 c 128,-1,28
 558 226 558 226 571.5 268.5 c 128,-1,29
 585 311 585 311 585 355 c 0,30,31
 585 401 585 401 570.5 444 c 128,-1,32
 556 487 556 487 529.5 520 c 128,-1,33
 503 553 503 553 464.5 572.5 c 128,-1,34
 426 592 426 592 378 592 c 0,35,36
 328 592 328 592 289 571.5 c 128,-1,37
 250 551 250 551 224 517.5 c 128,-1,38
 198 484 198 484 184.5 441.5 c 128,-1,39
 171 399 171 399 171 355 c 0,20,21
444 787 m 0,40,41
 421 787 421 787 404 794 c 128,-1,42
 387 801 387 801 372.5 809.5 c 128,-1,43
 358 818 358 818 343.5 825 c 128,-1,44
 329 832 329 832 313 832 c 0,45,46
 296 832 296 832 286.5 825 c 128,-1,47
 277 818 277 818 272 809 c 128,-1,48
 267 800 267 800 266 792.5 c 128,-1,49
 265 785 265 785 265 784 c 2,50,-1
 191 784 l 1,51,52
 191 793 191 793 197 814.5 c 128,-1,53
 203 836 203 836 216.5 857.5 c 128,-1,54
 230 879 230 879 252.5 895.5 c 128,-1,55
 275 912 275 912 308 912 c 0,56,57
 331 912 331 912 347.5 904.5 c 128,-1,58
 364 897 364 897 378.5 888.5 c 128,-1,59
 393 880 393 880 407.5 872.5 c 128,-1,60
 422 865 422 865 440 865 c 256,61,62
 458 865 458 865 468.5 872 c 128,-1,63
 479 879 479 879 484.5 888 c 128,-1,64
 490 897 490 897 491.5 905 c 128,-1,65
 493 913 493 913 493 915 c 2,66,-1
 567 915 l 1,67,68
 567 908 567 908 561 887 c 128,-1,69
 555 866 555 866 540.5 844 c 128,-1,70
 526 822 526 822 502.5 804.5 c 128,-1,71
 479 787 479 787 444 787 c 0,40,41
EndSplineSet
EndChar

StartChar: Odieresis
Encoding: 214 214 153
Width: 756
GlyphClass: 2
Flags: W
LayerCount: 2
Fore
SplineSet
227 790 m 1,0,-1
 227 909 l 1,1,-1
 338 909 l 1,2,-1
 338 790 l 1,3,-1
 227 790 l 1,0,-1
419 790 m 1,4,-1
 419 909 l 1,5,-1
 530 909 l 1,6,-1
 530 790 l 1,7,-1
 419 790 l 1,4,-1
377 -5 m 0,8,9
 299 -5 299 -5 235.5 25.5 c 128,-1,10
 172 56 172 56 126.5 106.5 c 128,-1,11
 81 157 81 157 56 222 c 128,-1,12
 31 287 31 287 31 355 c 0,13,14
 31 426 31 426 57.5 491 c 128,-1,15
 84 556 84 556 130.5 606 c 128,-1,16
 177 656 177 656 241 685.5 c 128,-1,17
 305 715 305 715 380 715 c 0,18,19
 457 715 457 715 520.5 683.5 c 128,-1,20
 584 652 584 652 629 601 c 128,-1,21
 674 550 674 550 699 485 c 128,-1,22
 724 420 724 420 724 353 c 0,23,24
 724 282 724 282 698 217.5 c 128,-1,25
 672 153 672 153 626 103.5 c 128,-1,26
 580 54 580 54 516 24.5 c 128,-1,27
 452 -5 452 -5 377 -5 c 0,8,9
171 355 m 0,28,29
 171 309 171 309 185 266 c 128,-1,30
 199 223 199 223 225.5 190 c 128,-1,31
 252 157 252 157 290.5 137 c 128,-1,32
 329 117 329 117 378 117 c 0,33,34
 428 117 428 117 466.5 137.5 c 128,-1,35
 505 158 505 158 531.5 192 c 128,-1,36
 558 226 558 226 571.5 268.5 c 128,-1,37
 585 311 585 311 585 355 c 0,38,39
 585 401 585 401 570.5 444 c 128,-1,40
 556 487 556 487 529.5 520 c 128,-1,41
 503 553 503 553 464.5 572.5 c 128,-1,42
 426 592 426 592 378 592 c 0,43,44
 328 592 328 592 289 571.5 c 128,-1,45
 250 551 250 551 224 517.5 c 128,-1,46
 198 484 198 484 184.5 441.5 c 128,-1,47
 171 399 171 399 171 355 c 0,28,29
EndSplineSet
EndChar

StartChar: multiply
Encoding: 215 215 154
Width: 477
GlyphClass: 2
Flags: W
LayerCount: 2
Fore
SplineSet
425 172 m 1,0,-1
 341 89 l 1,1,-1
 238 192 l 1,2,-1
 135 89 l 1,3,-1
 52 173 l 1,4,-1
 154 275 l 1,5,-1
 56 374 l 1,6,-1
 140 457 l 1,7,-1
 238 359 l 1,8,-1
 337 458 l 1,9,-1
 420 374 l 1,10,-1
 322 275 l 1,11,-1
 425 172 l 1,0,-1
EndSplineSet
EndChar

StartChar: Oslash
Encoding: 216 216 155
Width: 755
GlyphClass: 2
Flags: W
LayerCount: 2
Fore
SplineSet
700 710 m 1,0,-1
 626 604 l 1,1,2
 673 553 673 553 698.5 487.5 c 128,-1,3
 724 422 724 422 724 353 c 0,4,5
 724 282 724 282 698 217.5 c 128,-1,6
 672 153 672 153 626 103.5 c 128,-1,7
 580 54 580 54 516 24.5 c 128,-1,8
 452 -5 452 -5 377 -5 c 0,9,10
 335 -5 335 -5 297 4 c 128,-1,11
 259 13 259 13 225 30 c 1,12,-1
 204 0 l 1,13,-1
 56 0 l 1,14,-1
 129 104 l 1,15,16
 82 155 82 155 56.5 220.5 c 128,-1,17
 31 286 31 286 31 355 c 0,18,19
 31 426 31 426 57.5 491 c 128,-1,20
 84 556 84 556 130.5 606 c 128,-1,21
 177 656 177 656 241 685.5 c 128,-1,22
 305 715 305 715 380 715 c 0,23,24
 422 715 422 715 459 705.5 c 128,-1,25
 496 696 496 696 529 679 c 1,26,-1
 551 710 l 1,27,-1
 700 710 l 1,0,-1
585 355 m 0,28,29
 585 430 585 430 548 492 c 1,30,-1
 297 133 l 1,31,32
 335 117 335 117 378 117 c 0,33,34
 428 117 428 117 466.5 137.5 c 128,-1,35
 505 158 505 158 531.5 192 c 128,-1,36
 558 226 558 226 571.5 268.5 c 128,-1,37
 585 311 585 311 585 355 c 0,28,29
171 355 m 0,38,39
 171 317 171 317 180 281.5 c 128,-1,40
 189 246 189 246 207 216 c 1,41,-1
 457 575 l 1,42,43
 421 592 421 592 378 592 c 0,44,45
 328 592 328 592 289 571.5 c 128,-1,46
 250 551 250 551 224 517.5 c 128,-1,47
 198 484 198 484 184.5 441.5 c 128,-1,48
 171 399 171 399 171 355 c 0,38,39
EndSplineSet
EndChar

StartChar: Ugrave
Encoding: 217 217 156
Width: 750
GlyphClass: 2
Flags: W
LayerCount: 2
Fore
SplineSet
374 117 m 0,0,1
 423 117 423 117 456.5 137 c 128,-1,2
 490 157 490 157 510.5 189 c 128,-1,3
 531 221 531 221 539.5 262.5 c 128,-1,4
 548 304 548 304 548 348 c 2,5,-1
 548 710 l 1,6,-1
 685 710 l 1,7,-1
 685 348 l 2,8,9
 685 275 685 275 667.5 211 c 128,-1,10
 650 147 650 147 612.5 99 c 128,-1,11
 575 51 575 51 516 23 c 128,-1,12
 457 -5 457 -5 375 -5 c 0,13,14
 290 -5 290 -5 230.5 24.5 c 128,-1,15
 171 54 171 54 134 102.5 c 128,-1,16
 97 151 97 151 80.5 215 c 128,-1,17
 64 279 64 279 64 348 c 2,18,-1
 64 710 l 1,19,-1
 202 710 l 1,20,-1
 202 348 l 2,21,22
 202 303 202 303 210.5 261.5 c 128,-1,23
 219 220 219 220 239.5 188 c 128,-1,24
 260 156 260 156 293 136.5 c 128,-1,25
 326 117 326 117 374 117 c 0,0,1
247 916 m 1,26,-1
 371 916 l 1,27,-1
 426 797 l 1,28,-1
 340 771 l 1,29,-1
 247 916 l 1,26,-1
EndSplineSet
EndChar

StartChar: Uacute
Encoding: 218 218 157
Width: 750
GlyphClass: 2
Flags: W
LayerCount: 2
Fore
SplineSet
410 770 m 1,0,-1
 324 796 l 1,1,-1
 378 915 l 1,2,-1
 503 915 l 1,3,-1
 410 770 l 1,0,-1
374 117 m 0,4,5
 423 117 423 117 456.5 137 c 128,-1,6
 490 157 490 157 510.5 189 c 128,-1,7
 531 221 531 221 539.5 262.5 c 128,-1,8
 548 304 548 304 548 348 c 2,9,-1
 548 710 l 1,10,-1
 685 710 l 1,11,-1
 685 348 l 2,12,13
 685 275 685 275 667.5 211 c 128,-1,14
 650 147 650 147 612.5 99 c 128,-1,15
 575 51 575 51 516 23 c 128,-1,16
 457 -5 457 -5 375 -5 c 0,17,18
 290 -5 290 -5 230.5 24.5 c 128,-1,19
 171 54 171 54 134 102.5 c 128,-1,20
 97 151 97 151 80.5 215 c 128,-1,21
 64 279 64 279 64 348 c 2,22,-1
 64 710 l 1,23,-1
 202 710 l 1,24,-1
 202 348 l 2,25,26
 202 303 202 303 210.5 261.5 c 128,-1,27
 219 220 219 220 239.5 188 c 128,-1,28
 260 156 260 156 293 136.5 c 128,-1,29
 326 117 326 117 374 117 c 0,4,5
EndSplineSet
EndChar

StartChar: Ucircumflex
Encoding: 219 219 158
Width: 750
GlyphClass: 2
Flags: W
LayerCount: 2
Fore
SplineSet
220 814 m 1,0,-1
 326 915 l 1,1,-1
 423 915 l 1,2,-1
 529 814 l 1,3,-1
 460 782 l 1,4,-1
 375 845 l 1,5,-1
 290 782 l 1,6,-1
 220 814 l 1,0,-1
374 117 m 0,7,8
 423 117 423 117 456.5 137 c 128,-1,9
 490 157 490 157 510.5 189 c 128,-1,10
 531 221 531 221 539.5 262.5 c 128,-1,11
 548 304 548 304 548 348 c 2,12,-1
 548 710 l 1,13,-1
 685 710 l 1,14,-1
 685 348 l 2,15,16
 685 275 685 275 667.5 211 c 128,-1,17
 650 147 650 147 612.5 99 c 128,-1,18
 575 51 575 51 516 23 c 128,-1,19
 457 -5 457 -5 375 -5 c 0,20,21
 290 -5 290 -5 230.5 24.5 c 128,-1,22
 171 54 171 54 134 102.5 c 128,-1,23
 97 151 97 151 80.5 215 c 128,-1,24
 64 279 64 279 64 348 c 2,25,-1
 64 710 l 1,26,-1
 202 710 l 1,27,-1
 202 348 l 2,28,29
 202 303 202 303 210.5 261.5 c 128,-1,30
 219 220 219 220 239.5 188 c 128,-1,31
 260 156 260 156 293 136.5 c 128,-1,32
 326 117 326 117 374 117 c 0,7,8
EndSplineSet
EndChar

StartChar: Udieresis
Encoding: 220 220 159
Width: 750
GlyphClass: 2
Flags: W
LayerCount: 2
Fore
SplineSet
223 790 m 1,0,-1
 223 909 l 1,1,-1
 334 909 l 1,2,-1
 334 790 l 1,3,-1
 223 790 l 1,0,-1
415 790 m 1,4,-1
 415 909 l 1,5,-1
 526 909 l 1,6,-1
 526 790 l 1,7,-1
 415 790 l 1,4,-1
374 117 m 0,8,9
 423 117 423 117 456.5 137 c 128,-1,10
 490 157 490 157 510.5 189 c 128,-1,11
 531 221 531 221 539.5 262.5 c 128,-1,12
 548 304 548 304 548 348 c 2,13,-1
 548 710 l 1,14,-1
 685 710 l 1,15,-1
 685 348 l 2,16,17
 685 275 685 275 667.5 211 c 128,-1,18
 650 147 650 147 612.5 99 c 128,-1,19
 575 51 575 51 516 23 c 128,-1,20
 457 -5 457 -5 375 -5 c 0,21,22
 290 -5 290 -5 230.5 24.5 c 128,-1,23
 171 54 171 54 134 102.5 c 128,-1,24
 97 151 97 151 80.5 215 c 128,-1,25
 64 279 64 279 64 348 c 2,26,-1
 64 710 l 1,27,-1
 202 710 l 1,28,-1
 202 348 l 2,29,30
 202 303 202 303 210.5 261.5 c 128,-1,31
 219 220 219 220 239.5 188 c 128,-1,32
 260 156 260 156 293 136.5 c 128,-1,33
 326 117 326 117 374 117 c 0,8,9
EndSplineSet
EndChar

StartChar: Yacute
Encoding: 221 221 160
Width: 660
GlyphClass: 2
Flags: W
LayerCount: 2
Fore
SplineSet
154 710 m 1,0,-1
 329 368 l 1,1,-1
 507 710 l 1,2,-1
 656 710 l 1,3,-1
 398 248 l 1,4,-1
 398 0 l 1,5,-1
 261 0 l 1,6,-1
 261 250 l 1,7,-1
 4 710 l 1,8,-1
 154 710 l 1,0,-1
364 770 m 1,9,-1
 278 796 l 1,10,-1
 332 915 l 1,11,-1
 457 915 l 1,12,-1
 364 770 l 1,9,-1
EndSplineSet
EndChar

StartChar: Thorn
Encoding: 222 222 161
Width: 604
GlyphClass: 2
Flags: W
LayerCount: 2
Fore
SplineSet
358 582 m 2,0,1
 407 582 407 582 448.5 561.5 c 128,-1,2
 490 541 490 541 520 508 c 128,-1,3
 550 475 550 475 567 432.5 c 128,-1,4
 584 390 584 390 584 346 c 0,5,6
 584 300 584 300 568 257.5 c 128,-1,7
 552 215 552 215 523 182 c 128,-1,8
 494 149 494 149 453.5 129.5 c 128,-1,9
 413 110 413 110 364 110 c 2,10,-1
 212 110 l 1,11,-1
 212 0 l 1,12,-1
 74 0 l 1,13,-1
 74 710 l 1,14,-1
 212 710 l 1,15,-1
 212 582 l 1,16,-1
 358 582 l 2,0,1
357 231 m 2,17,18
 376 231 376 231 392.5 240 c 128,-1,19
 409 249 409 249 421 265 c 128,-1,20
 433 281 433 281 440 301.5 c 128,-1,21
 447 322 447 322 447 346 c 0,22,23
 447 371 447 371 439 392 c 128,-1,24
 431 413 431 413 417.5 428.5 c 128,-1,25
 404 444 404 444 387 452.5 c 128,-1,26
 370 461 370 461 351 461 c 2,27,-1
 212 461 l 1,28,-1
 212 231 l 1,29,-1
 357 231 l 2,17,18
EndSplineSet
EndChar

StartChar: germandbls
Encoding: 223 223 162
Width: 558
GlyphClass: 2
Flags: W
LayerCount: 2
Fore
SplineSet
247 117 m 1,0,1
 278 117 278 117 304 123.5 c 128,-1,2
 330 130 330 130 349 143.5 c 128,-1,3
 368 157 368 157 379 177 c 128,-1,4
 390 197 390 197 390 225 c 0,5,6
 390 251 390 251 380.5 271 c 128,-1,7
 371 291 371 291 355 305 c 128,-1,8
 339 319 339 319 318.5 326 c 128,-1,9
 298 333 298 333 276 333 c 2,10,-1
 255 333 l 1,11,-1
 255 453 l 1,12,-1
 274 453 l 2,13,14
 310 453 310 453 330.5 473.5 c 128,-1,15
 351 494 351 494 351 527 c 0,16,17
 351 548 351 548 343 562 c 128,-1,18
 335 576 335 576 323.5 584.5 c 128,-1,19
 312 593 312 593 298 596.5 c 128,-1,20
 284 600 284 600 272 600 c 0,21,22
 248 600 248 600 232 590.5 c 128,-1,23
 216 581 216 581 206 566.5 c 128,-1,24
 196 552 196 552 192 534 c 128,-1,25
 188 516 188 516 188 499 c 2,26,-1
 188 0 l 1,27,-1
 61 0 l 1,28,-1
 61 522 l 2,29,30
 61 564 61 564 78 599 c 128,-1,31
 95 634 95 634 124.5 659.5 c 128,-1,32
 154 685 154 685 194.5 699.5 c 128,-1,33
 235 714 235 714 283 714 c 0,34,35
 325 714 325 714 360.5 702.5 c 128,-1,36
 396 691 396 691 422 670 c 128,-1,37
 448 649 448 649 463 618.5 c 128,-1,38
 478 588 478 588 478 550 c 0,39,40
 478 524 478 524 471 500 c 128,-1,41
 464 476 464 476 452 456.5 c 128,-1,42
 440 437 440 437 424.5 422.5 c 128,-1,43
 409 408 409 408 391 402 c 1,44,45
 456 384 456 384 493 333 c 128,-1,46
 530 282 530 282 530 210 c 0,47,48
 530 153 530 153 506.5 112.5 c 128,-1,49
 483 72 483 72 444 46 c 128,-1,50
 405 20 405 20 354 7.5 c 128,-1,51
 303 -5 303 -5 247 -6 c 1,52,-1
 247 117 l 1,0,1
EndSplineSet
EndChar

StartChar: agrave
Encoding: 224 224 163
Width: 574
GlyphClass: 2
Flags: W
LayerCount: 2
Fore
SplineSet
204 -10 m 0,0,1
 166 -10 166 -10 133 2.5 c 128,-1,2
 100 15 100 15 76 37.5 c 128,-1,3
 52 60 52 60 38.5 90 c 128,-1,4
 25 120 25 120 25 156 c 0,5,6
 25 193 25 193 41.5 224.5 c 128,-1,7
 58 256 58 256 87.5 278 c 128,-1,8
 117 300 117 300 158 312.5 c 128,-1,9
 199 325 199 325 248 325 c 0,10,11
 283 325 283 325 316.5 319 c 128,-1,12
 350 313 350 313 376 302 c 1,13,-1
 376 332 l 2,14,15
 376 384 376 384 346.5 412 c 128,-1,16
 317 440 317 440 259 440 c 0,17,18
 217 440 217 440 177 425 c 128,-1,19
 137 410 137 410 95 381 c 1,20,-1
 54 466 l 1,21,22
 155 533 155 533 272 533 c 0,23,24
 385 533 385 533 447.5 477.5 c 128,-1,25
 510 422 510 422 510 317 c 2,26,-1
 510 154 l 2,27,28
 510 133 510 133 517.5 124 c 128,-1,29
 525 115 525 115 542 114 c 1,30,-1
 542 0 l 1,31,32
 508 -7 508 -7 483 -7 c 0,33,34
 445 -7 445 -7 424.5 10 c 128,-1,35
 404 27 404 27 399 55 c 2,36,-1
 396 84 l 1,37,38
 361 38 361 38 311 14 c 128,-1,39
 261 -10 261 -10 204 -10 c 0,0,1
242 88 m 0,40,41
 276 88 276 88 306.5 100 c 128,-1,42
 337 112 337 112 354 132 c 1,43,44
 376 149 376 149 376 170 c 2,45,-1
 376 230 l 1,46,47
 352 239 352 239 324 244.5 c 128,-1,48
 296 250 296 250 270 250 c 0,49,50
 218 250 218 250 185 226.5 c 128,-1,51
 152 203 152 203 152 167 c 0,52,53
 152 133 152 133 178 110.5 c 128,-1,54
 204 88 204 88 242 88 c 0,40,41
145 730 m 1,55,-1
 269 730 l 1,56,-1
 324 611 l 1,57,-1
 238 585 l 1,58,-1
 145 730 l 1,55,-1
EndSplineSet
EndChar

StartChar: aacute
Encoding: 225 225 164
Width: 574
GlyphClass: 2
Flags: W
LayerCount: 2
Fore
SplineSet
204 -10 m 0,0,1
 166 -10 166 -10 133 2.5 c 128,-1,2
 100 15 100 15 76 37.5 c 128,-1,3
 52 60 52 60 38.5 90 c 128,-1,4
 25 120 25 120 25 156 c 0,5,6
 25 193 25 193 41.5 224.5 c 128,-1,7
 58 256 58 256 87.5 278 c 128,-1,8
 117 300 117 300 158 312.5 c 128,-1,9
 199 325 199 325 248 325 c 0,10,11
 283 325 283 325 316.5 319 c 128,-1,12
 350 313 350 313 376 302 c 1,13,-1
 376 332 l 2,14,15
 376 384 376 384 346.5 412 c 128,-1,16
 317 440 317 440 259 440 c 0,17,18
 217 440 217 440 177 425 c 128,-1,19
 137 410 137 410 95 381 c 1,20,-1
 54 466 l 1,21,22
 155 533 155 533 272 533 c 0,23,24
 385 533 385 533 447.5 477.5 c 128,-1,25
 510 422 510 422 510 317 c 2,26,-1
 510 154 l 2,27,28
 510 133 510 133 517.5 124 c 128,-1,29
 525 115 525 115 542 114 c 1,30,-1
 542 0 l 1,31,32
 508 -7 508 -7 483 -7 c 0,33,34
 445 -7 445 -7 424.5 10 c 128,-1,35
 404 27 404 27 399 55 c 2,36,-1
 396 84 l 1,37,38
 361 38 361 38 311 14 c 128,-1,39
 261 -10 261 -10 204 -10 c 0,0,1
242 88 m 0,40,41
 276 88 276 88 306.5 100 c 128,-1,42
 337 112 337 112 354 132 c 1,43,44
 376 149 376 149 376 170 c 2,45,-1
 376 230 l 1,46,47
 352 239 352 239 324 244.5 c 128,-1,48
 296 250 296 250 270 250 c 0,49,50
 218 250 218 250 185 226.5 c 128,-1,51
 152 203 152 203 152 167 c 0,52,53
 152 133 152 133 178 110.5 c 128,-1,54
 204 88 204 88 242 88 c 0,40,41
307 585 m 1,55,-1
 221 611 l 1,56,-1
 275 730 l 1,57,-1
 400 730 l 1,58,-1
 307 585 l 1,55,-1
EndSplineSet
EndChar

StartChar: acircumflex
Encoding: 226 226 165
Width: 574
GlyphClass: 2
Flags: W
LayerCount: 2
Fore
SplineSet
204 -10 m 0,0,1
 166 -10 166 -10 133 2.5 c 128,-1,2
 100 15 100 15 76 37.5 c 128,-1,3
 52 60 52 60 38.5 90 c 128,-1,4
 25 120 25 120 25 156 c 0,5,6
 25 193 25 193 41.5 224.5 c 128,-1,7
 58 256 58 256 87.5 278 c 128,-1,8
 117 300 117 300 158 312.5 c 128,-1,9
 199 325 199 325 248 325 c 0,10,11
 283 325 283 325 316.5 319 c 128,-1,12
 350 313 350 313 376 302 c 1,13,-1
 376 332 l 2,14,15
 376 384 376 384 346.5 412 c 128,-1,16
 317 440 317 440 259 440 c 0,17,18
 217 440 217 440 177 425 c 128,-1,19
 137 410 137 410 95 381 c 1,20,-1
 54 466 l 1,21,22
 155 533 155 533 272 533 c 0,23,24
 385 533 385 533 447.5 477.5 c 128,-1,25
 510 422 510 422 510 317 c 2,26,-1
 510 154 l 2,27,28
 510 133 510 133 517.5 124 c 128,-1,29
 525 115 525 115 542 114 c 1,30,-1
 542 0 l 1,31,32
 508 -7 508 -7 483 -7 c 0,33,34
 445 -7 445 -7 424.5 10 c 128,-1,35
 404 27 404 27 399 55 c 2,36,-1
 396 84 l 1,37,38
 361 38 361 38 311 14 c 128,-1,39
 261 -10 261 -10 204 -10 c 0,0,1
242 88 m 0,40,41
 276 88 276 88 306.5 100 c 128,-1,42
 337 112 337 112 354 132 c 1,43,44
 376 149 376 149 376 170 c 2,45,-1
 376 230 l 1,46,47
 352 239 352 239 324 244.5 c 128,-1,48
 296 250 296 250 270 250 c 0,49,50
 218 250 218 250 185 226.5 c 128,-1,51
 152 203 152 203 152 167 c 0,52,53
 152 133 152 133 178 110.5 c 128,-1,54
 204 88 204 88 242 88 c 0,40,41
118 629 m 1,55,-1
 224 730 l 1,56,-1
 321 730 l 1,57,-1
 427 629 l 1,58,-1
 358 597 l 1,59,-1
 273 660 l 1,60,-1
 188 597 l 1,61,-1
 118 629 l 1,55,-1
EndSplineSet
EndChar

StartChar: atilde
Encoding: 227 227 166
Width: 574
GlyphClass: 2
Flags: W
LayerCount: 2
Fore
SplineSet
204 -10 m 0,0,1
 166 -10 166 -10 133 2.5 c 128,-1,2
 100 15 100 15 76 37.5 c 128,-1,3
 52 60 52 60 38.5 90 c 128,-1,4
 25 120 25 120 25 156 c 0,5,6
 25 193 25 193 41.5 224.5 c 128,-1,7
 58 256 58 256 87.5 278 c 128,-1,8
 117 300 117 300 158 312.5 c 128,-1,9
 199 325 199 325 248 325 c 0,10,11
 283 325 283 325 316.5 319 c 128,-1,12
 350 313 350 313 376 302 c 1,13,-1
 376 332 l 2,14,15
 376 384 376 384 346.5 412 c 128,-1,16
 317 440 317 440 259 440 c 0,17,18
 217 440 217 440 177 425 c 128,-1,19
 137 410 137 410 95 381 c 1,20,-1
 54 466 l 1,21,22
 155 533 155 533 272 533 c 0,23,24
 385 533 385 533 447.5 477.5 c 128,-1,25
 510 422 510 422 510 317 c 2,26,-1
 510 154 l 2,27,28
 510 133 510 133 517.5 124 c 128,-1,29
 525 115 525 115 542 114 c 1,30,-1
 542 0 l 1,31,32
 508 -7 508 -7 483 -7 c 0,33,34
 445 -7 445 -7 424.5 10 c 128,-1,35
 404 27 404 27 399 55 c 2,36,-1
 396 84 l 1,37,38
 361 38 361 38 311 14 c 128,-1,39
 261 -10 261 -10 204 -10 c 0,0,1
242 88 m 0,40,41
 276 88 276 88 306.5 100 c 128,-1,42
 337 112 337 112 354 132 c 1,43,44
 376 149 376 149 376 170 c 2,45,-1
 376 230 l 1,46,47
 352 239 352 239 324 244.5 c 128,-1,48
 296 250 296 250 270 250 c 0,49,50
 218 250 218 250 185 226.5 c 128,-1,51
 152 203 152 203 152 167 c 0,52,53
 152 133 152 133 178 110.5 c 128,-1,54
 204 88 204 88 242 88 c 0,40,41
335 602 m 0,55,56
 312 602 312 602 295 609 c 128,-1,57
 278 616 278 616 263.5 624.5 c 128,-1,58
 249 633 249 633 234.5 640 c 128,-1,59
 220 647 220 647 204 647 c 0,60,61
 187 647 187 647 177.5 640 c 128,-1,62
 168 633 168 633 163 624 c 128,-1,63
 158 615 158 615 157 607.5 c 128,-1,64
 156 600 156 600 156 599 c 2,65,-1
 82 599 l 1,66,67
 82 608 82 608 88 629.5 c 128,-1,68
 94 651 94 651 107.5 672.5 c 128,-1,69
 121 694 121 694 143.5 710.5 c 128,-1,70
 166 727 166 727 199 727 c 0,71,72
 222 727 222 727 238.5 719.5 c 128,-1,73
 255 712 255 712 269.5 703.5 c 128,-1,74
 284 695 284 695 298.5 687.5 c 128,-1,75
 313 680 313 680 331 680 c 256,76,77
 349 680 349 680 359.5 687 c 128,-1,78
 370 694 370 694 375.5 703 c 128,-1,79
 381 712 381 712 382.5 720 c 128,-1,80
 384 728 384 728 384 730 c 2,81,-1
 458 730 l 1,82,83
 458 723 458 723 452 702 c 128,-1,84
 446 681 446 681 431.5 659 c 128,-1,85
 417 637 417 637 393.5 619.5 c 128,-1,86
 370 602 370 602 335 602 c 0,55,56
EndSplineSet
EndChar

StartChar: adieresis
Encoding: 228 228 167
Width: 574
GlyphClass: 2
Flags: W
LayerCount: 2
Fore
SplineSet
204 -10 m 0,0,1
 166 -10 166 -10 133 2.5 c 128,-1,2
 100 15 100 15 76 37.5 c 128,-1,3
 52 60 52 60 38.5 90 c 128,-1,4
 25 120 25 120 25 156 c 0,5,6
 25 193 25 193 41.5 224.5 c 128,-1,7
 58 256 58 256 87.5 278 c 128,-1,8
 117 300 117 300 158 312.5 c 128,-1,9
 199 325 199 325 248 325 c 0,10,11
 283 325 283 325 316.5 319 c 128,-1,12
 350 313 350 313 376 302 c 1,13,-1
 376 332 l 2,14,15
 376 384 376 384 346.5 412 c 128,-1,16
 317 440 317 440 259 440 c 0,17,18
 217 440 217 440 177 425 c 128,-1,19
 137 410 137 410 95 381 c 1,20,-1
 54 466 l 1,21,22
 155 533 155 533 272 533 c 0,23,24
 385 533 385 533 447.5 477.5 c 128,-1,25
 510 422 510 422 510 317 c 2,26,-1
 510 154 l 2,27,28
 510 133 510 133 517.5 124 c 128,-1,29
 525 115 525 115 542 114 c 1,30,-1
 542 0 l 1,31,32
 508 -7 508 -7 483 -7 c 0,33,34
 445 -7 445 -7 424.5 10 c 128,-1,35
 404 27 404 27 399 55 c 2,36,-1
 396 84 l 1,37,38
 361 38 361 38 311 14 c 128,-1,39
 261 -10 261 -10 204 -10 c 0,0,1
242 88 m 0,40,41
 276 88 276 88 306.5 100 c 128,-1,42
 337 112 337 112 354 132 c 1,43,44
 376 149 376 149 376 170 c 2,45,-1
 376 230 l 1,46,47
 352 239 352 239 324 244.5 c 128,-1,48
 296 250 296 250 270 250 c 0,49,50
 218 250 218 250 185 226.5 c 128,-1,51
 152 203 152 203 152 167 c 0,52,53
 152 133 152 133 178 110.5 c 128,-1,54
 204 88 204 88 242 88 c 0,40,41
121 604 m 1,55,-1
 121 723 l 1,56,-1
 232 723 l 1,57,-1
 232 604 l 1,58,-1
 121 604 l 1,55,-1
313 604 m 1,59,-1
 313 723 l 1,60,-1
 424 723 l 1,61,-1
 424 604 l 1,62,-1
 313 604 l 1,59,-1
EndSplineSet
EndChar

StartChar: aring
Encoding: 229 229 168
Width: 574
GlyphClass: 2
Flags: W
LayerCount: 2
Fore
SplineSet
204 -10 m 0,0,1
 166 -10 166 -10 133 2.5 c 128,-1,2
 100 15 100 15 76 37.5 c 128,-1,3
 52 60 52 60 38.5 90 c 128,-1,4
 25 120 25 120 25 156 c 0,5,6
 25 193 25 193 41.5 224.5 c 128,-1,7
 58 256 58 256 87.5 278 c 128,-1,8
 117 300 117 300 158 312.5 c 128,-1,9
 199 325 199 325 248 325 c 0,10,11
 283 325 283 325 316.5 319 c 128,-1,12
 350 313 350 313 376 302 c 1,13,-1
 376 332 l 2,14,15
 376 384 376 384 346.5 412 c 128,-1,16
 317 440 317 440 259 440 c 0,17,18
 217 440 217 440 177 425 c 128,-1,19
 137 410 137 410 95 381 c 1,20,-1
 54 466 l 1,21,22
 155 533 155 533 272 533 c 0,23,24
 385 533 385 533 447.5 477.5 c 128,-1,25
 510 422 510 422 510 317 c 2,26,-1
 510 154 l 2,27,28
 510 133 510 133 517.5 124 c 128,-1,29
 525 115 525 115 542 114 c 1,30,-1
 542 0 l 1,31,32
 508 -7 508 -7 483 -7 c 0,33,34
 445 -7 445 -7 424.5 10 c 128,-1,35
 404 27 404 27 399 55 c 2,36,-1
 396 84 l 1,37,38
 361 38 361 38 311 14 c 128,-1,39
 261 -10 261 -10 204 -10 c 0,0,1
242 88 m 0,40,41
 276 88 276 88 306.5 100 c 128,-1,42
 337 112 337 112 354 132 c 1,43,44
 376 149 376 149 376 170 c 2,45,-1
 376 230 l 1,46,47
 352 239 352 239 324 244.5 c 128,-1,48
 296 250 296 250 270 250 c 0,49,50
 218 250 218 250 185 226.5 c 128,-1,51
 152 203 152 203 152 167 c 0,52,53
 152 133 152 133 178 110.5 c 128,-1,54
 204 88 204 88 242 88 c 0,40,41
175 653 m 256,55,56
 175 690 175 690 201.5 710 c 128,-1,57
 228 730 228 730 272 730 c 256,58,59
 316 730 316 730 342.5 710 c 128,-1,60
 369 690 369 690 369 653 c 256,61,62
 369 616 369 616 342.5 596 c 128,-1,63
 316 576 316 576 272 576 c 256,64,65
 228 576 228 576 201.5 596 c 128,-1,66
 175 616 175 616 175 653 c 256,55,56
272 689 m 256,67,68
 255 689 255 689 243.5 679.5 c 128,-1,69
 232 670 232 670 232 653 c 0,70,71
 232 638 232 638 243.5 627.5 c 128,-1,72
 255 617 255 617 272 617 c 0,73,74
 288 617 288 617 300.5 627 c 128,-1,75
 313 637 313 637 313 653 c 0,76,77
 313 670 313 670 301 679.5 c 128,-1,78
 289 689 289 689 272 689 c 256,67,68
EndSplineSet
EndChar

StartChar: ae
Encoding: 230 230 169
Width: 937
GlyphClass: 2
Flags: W
LayerCount: 2
Fore
SplineSet
204 -10 m 0,0,1
 166 -10 166 -10 133 2.5 c 128,-1,2
 100 15 100 15 76 37.5 c 128,-1,3
 52 60 52 60 38.5 90 c 128,-1,4
 25 120 25 120 25 156 c 0,5,6
 25 193 25 193 41.5 224.5 c 128,-1,7
 58 256 58 256 87.5 278 c 128,-1,8
 117 300 117 300 158 312.5 c 128,-1,9
 199 325 199 325 248 325 c 0,10,11
 280 325 280 325 311 320 c 128,-1,12
 342 315 342 315 366 305 c 1,13,14
 367 314 367 314 369 327.5 c 128,-1,15
 371 341 371 341 374 349 c 0,16,17
 365 440 365 440 259 440 c 0,18,19
 217 440 217 440 177 425 c 128,-1,20
 137 410 137 410 94 381 c 1,21,-1
 53 466 l 1,22,23
 156 533 156 533 272 533 c 0,24,25
 334 533 334 533 380 513.5 c 128,-1,26
 426 494 426 494 455 459 c 1,27,28
 488 493 488 493 535 513 c 128,-1,29
 582 533 582 533 641 533 c 0,30,31
 705 533 705 533 756 511 c 128,-1,32
 807 489 807 489 842.5 452 c 128,-1,33
 878 415 878 415 897 366 c 128,-1,34
 916 317 916 317 916 262 c 0,35,36
 916 251 916 251 915 239 c 128,-1,37
 914 227 914 227 913 219 c 1,38,-1
 503 219 l 1,39,40
 508 157 508 157 549.5 122.5 c 128,-1,41
 591 88 591 88 647 88 c 0,42,43
 687 88 687 88 722.5 107.5 c 128,-1,44
 758 127 758 127 771 159 c 1,45,-1
 886 127 l 1,46,47
 857 67 857 67 793 28.5 c 128,-1,48
 729 -10 729 -10 642 -10 c 0,49,50
 567 -10 567 -10 509.5 19.5 c 128,-1,51
 452 49 452 49 417 98 c 1,52,53
 399 69 399 69 374 49 c 128,-1,54
 349 29 349 29 320.5 15.5 c 128,-1,55
 292 2 292 2 261.5 -4 c 128,-1,56
 231 -10 231 -10 204 -10 c 0,0,1
242 88 m 0,57,58
 276 88 276 88 306 100 c 128,-1,59
 336 112 336 112 354 132 c 0,60,61
 364 140 364 140 370 149.5 c 128,-1,62
 376 159 376 159 376 168 c 0,63,64
 374 172 374 172 372 181 c 128,-1,65
 370 190 370 190 369 199.5 c 128,-1,66
 368 209 368 209 367 218.5 c 128,-1,67
 366 228 366 228 366 233 c 1,68,69
 344 241 344 241 318.5 245.5 c 128,-1,70
 293 250 293 250 270 250 c 0,71,72
 218 250 218 250 184.5 226.5 c 128,-1,73
 151 203 151 203 151 167 c 0,74,75
 151 133 151 133 177.5 110.5 c 128,-1,76
 204 88 204 88 242 88 c 0,57,58
778 302 m 1,77,78
 773 362 773 362 734.5 399 c 128,-1,79
 696 436 696 436 639 436 c 256,80,81
 582 436 582 436 544 399 c 128,-1,82
 506 362 506 362 501 302 c 1,83,-1
 778 302 l 1,77,78
EndSplineSet
EndChar

StartChar: ccedilla
Encoding: 231 231 170
Width: 564
GlyphClass: 2
Flags: W
LayerCount: 2
Fore
SplineSet
225 -127 m 1,0,1
 237 -134 237 -134 262 -140 c 128,-1,2
 287 -146 287 -146 314 -146 c 0,3,4
 340 -146 340 -146 355 -138.5 c 128,-1,5
 370 -131 370 -131 370 -113 c 256,6,7
 370 -95 370 -95 355.5 -87.5 c 128,-1,8
 341 -80 341 -80 318 -80 c 0,9,10
 297 -80 297 -80 273.5 -84.5 c 128,-1,11
 250 -89 250 -89 238 -92 c 1,12,-1
 280 -9 l 1,13,14
 221 -5 221 -5 174.5 18.5 c 128,-1,15
 128 42 128 42 95.5 79 c 128,-1,16
 63 116 63 116 45.5 163 c 128,-1,17
 28 210 28 210 28 262 c 0,18,19
 28 317 28 317 47 366 c 128,-1,20
 66 415 66 415 102 452 c 128,-1,21
 138 489 138 489 189 511 c 128,-1,22
 240 533 240 533 304 533 c 0,23,24
 390 533 390 533 450.5 496 c 128,-1,25
 511 459 511 459 541 399 c 1,26,-1
 410 359 l 1,27,28
 393 388 393 388 365 403.5 c 128,-1,29
 337 419 337 419 303 419 c 0,30,31
 274 419 274 419 249 407.5 c 128,-1,32
 224 396 224 396 205.5 375.5 c 128,-1,33
 187 355 187 355 176.5 326 c 128,-1,34
 166 297 166 297 166 262 c 256,35,36
 166 227 166 227 177 198 c 128,-1,37
 188 169 188 169 206.5 148 c 128,-1,38
 225 127 225 127 250 115.5 c 128,-1,39
 275 104 275 104 303 104 c 0,40,41
 339 104 339 104 369.5 122 c 128,-1,42
 400 140 400 140 412 166 c 1,43,-1
 543 126 l 1,44,45
 518 72 518 72 465 35.5 c 128,-1,46
 412 -1 412 -1 337 -8 c 1,47,-1
 316 -42 l 1,48,49
 323 -40 323 -40 331.5 -39 c 128,-1,50
 340 -38 340 -38 348 -38 c 0,51,52
 383 -38 383 -38 408 -54.5 c 128,-1,53
 433 -71 433 -71 433 -108 c 0,54,55
 433 -146 433 -146 401.5 -171 c 128,-1,56
 370 -196 370 -196 305 -196 c 0,57,58
 272 -196 272 -196 245 -190 c 128,-1,59
 218 -184 218 -184 198 -176 c 1,60,-1
 225 -127 l 1,0,1
EndSplineSet
EndChar

StartChar: egrave
Encoding: 232 232 171
Width: 599
GlyphClass: 2
Flags: W
LayerCount: 2
Fore
SplineSet
304 -10 m 0,0,1
 241 -10 241 -10 190 11.5 c 128,-1,2
 139 33 139 33 103 70 c 128,-1,3
 67 107 67 107 47.5 156 c 128,-1,4
 28 205 28 205 28 259 c 0,5,6
 28 315 28 315 47 364.5 c 128,-1,7
 66 414 66 414 102 451.5 c 128,-1,8
 138 489 138 489 189.5 511 c 128,-1,9
 241 533 241 533 305 533 c 256,10,11
 369 533 369 533 419.5 511 c 128,-1,12
 470 489 470 489 505.5 452 c 128,-1,13
 541 415 541 415 559.5 366 c 128,-1,14
 578 317 578 317 578 264 c 0,15,16
 578 251 578 251 577.5 239 c 128,-1,17
 577 227 577 227 575 219 c 1,18,-1
 170 219 l 1,19,20
 173 188 173 188 185 164 c 128,-1,21
 197 140 197 140 216 123 c 128,-1,22
 235 106 235 106 259 97 c 128,-1,23
 283 88 283 88 309 88 c 0,24,25
 349 88 349 88 384.5 107.5 c 128,-1,26
 420 127 420 127 433 159 c 1,27,-1
 548 127 l 1,28,29
 519 67 519 67 455.5 28.5 c 128,-1,30
 392 -10 392 -10 304 -10 c 0,0,1
440 306 m 1,31,32
 435 365 435 365 396.5 400.5 c 128,-1,33
 358 436 358 436 303 436 c 0,34,35
 276 436 276 436 252.5 426.5 c 128,-1,36
 229 417 229 417 211 400 c 128,-1,37
 193 383 193 383 181.5 359 c 128,-1,38
 170 335 170 335 168 306 c 1,39,-1
 440 306 l 1,31,32
175 730 m 1,40,-1
 299 730 l 1,41,-1
 354 611 l 1,42,-1
 268 585 l 1,43,-1
 175 730 l 1,40,-1
EndSplineSet
EndChar

StartChar: eacute
Encoding: 233 233 172
Width: 599
GlyphClass: 2
Flags: W
LayerCount: 2
Fore
SplineSet
337 585 m 1,0,-1
 251 611 l 1,1,-1
 305 730 l 1,2,-1
 430 730 l 1,3,-1
 337 585 l 1,0,-1
304 -10 m 0,4,5
 241 -10 241 -10 190 11.5 c 128,-1,6
 139 33 139 33 103 70 c 128,-1,7
 67 107 67 107 47.5 156 c 128,-1,8
 28 205 28 205 28 259 c 0,9,10
 28 315 28 315 47 364.5 c 128,-1,11
 66 414 66 414 102 451.5 c 128,-1,12
 138 489 138 489 189.5 511 c 128,-1,13
 241 533 241 533 305 533 c 256,14,15
 369 533 369 533 419.5 511 c 128,-1,16
 470 489 470 489 505.5 452 c 128,-1,17
 541 415 541 415 559.5 366 c 128,-1,18
 578 317 578 317 578 264 c 0,19,20
 578 251 578 251 577.5 239 c 128,-1,21
 577 227 577 227 575 219 c 1,22,-1
 170 219 l 1,23,24
 173 188 173 188 185 164 c 128,-1,25
 197 140 197 140 216 123 c 128,-1,26
 235 106 235 106 259 97 c 128,-1,27
 283 88 283 88 309 88 c 0,28,29
 349 88 349 88 384.5 107.5 c 128,-1,30
 420 127 420 127 433 159 c 1,31,-1
 548 127 l 1,32,33
 519 67 519 67 455.5 28.5 c 128,-1,34
 392 -10 392 -10 304 -10 c 0,4,5
440 306 m 1,35,36
 435 365 435 365 396.5 400.5 c 128,-1,37
 358 436 358 436 303 436 c 0,38,39
 276 436 276 436 252.5 426.5 c 128,-1,40
 229 417 229 417 211 400 c 128,-1,41
 193 383 193 383 181.5 359 c 128,-1,42
 170 335 170 335 168 306 c 1,43,-1
 440 306 l 1,35,36
EndSplineSet
EndChar

StartChar: ecircumflex
Encoding: 234 234 173
Width: 599
GlyphClass: 2
Flags: W
LayerCount: 2
Fore
SplineSet
148 629 m 1,0,-1
 254 730 l 1,1,-1
 351 730 l 1,2,-1
 457 629 l 1,3,-1
 388 597 l 1,4,-1
 303 660 l 1,5,-1
 218 597 l 1,6,-1
 148 629 l 1,0,-1
304 -10 m 0,7,8
 241 -10 241 -10 190 11.5 c 128,-1,9
 139 33 139 33 103 70 c 128,-1,10
 67 107 67 107 47.5 156 c 128,-1,11
 28 205 28 205 28 259 c 0,12,13
 28 315 28 315 47 364.5 c 128,-1,14
 66 414 66 414 102 451.5 c 128,-1,15
 138 489 138 489 189.5 511 c 128,-1,16
 241 533 241 533 305 533 c 256,17,18
 369 533 369 533 419.5 511 c 128,-1,19
 470 489 470 489 505.5 452 c 128,-1,20
 541 415 541 415 559.5 366 c 128,-1,21
 578 317 578 317 578 264 c 0,22,23
 578 251 578 251 577.5 239 c 128,-1,24
 577 227 577 227 575 219 c 1,25,-1
 170 219 l 1,26,27
 173 188 173 188 185 164 c 128,-1,28
 197 140 197 140 216 123 c 128,-1,29
 235 106 235 106 259 97 c 128,-1,30
 283 88 283 88 309 88 c 0,31,32
 349 88 349 88 384.5 107.5 c 128,-1,33
 420 127 420 127 433 159 c 1,34,-1
 548 127 l 1,35,36
 519 67 519 67 455.5 28.5 c 128,-1,37
 392 -10 392 -10 304 -10 c 0,7,8
440 306 m 1,38,39
 435 365 435 365 396.5 400.5 c 128,-1,40
 358 436 358 436 303 436 c 0,41,42
 276 436 276 436 252.5 426.5 c 128,-1,43
 229 417 229 417 211 400 c 128,-1,44
 193 383 193 383 181.5 359 c 128,-1,45
 170 335 170 335 168 306 c 1,46,-1
 440 306 l 1,38,39
EndSplineSet
EndChar

StartChar: edieresis
Encoding: 235 235 174
Width: 599
GlyphClass: 2
Flags: W
LayerCount: 2
Fore
SplineSet
151 604 m 1,0,-1
 151 723 l 1,1,-1
 262 723 l 1,2,-1
 262 604 l 1,3,-1
 151 604 l 1,0,-1
343 604 m 1,4,-1
 343 723 l 1,5,-1
 454 723 l 1,6,-1
 454 604 l 1,7,-1
 343 604 l 1,4,-1
304 -10 m 0,8,9
 241 -10 241 -10 190 11.5 c 128,-1,10
 139 33 139 33 103 70 c 128,-1,11
 67 107 67 107 47.5 156 c 128,-1,12
 28 205 28 205 28 259 c 0,13,14
 28 315 28 315 47 364.5 c 128,-1,15
 66 414 66 414 102 451.5 c 128,-1,16
 138 489 138 489 189.5 511 c 128,-1,17
 241 533 241 533 305 533 c 256,18,19
 369 533 369 533 419.5 511 c 128,-1,20
 470 489 470 489 505.5 452 c 128,-1,21
 541 415 541 415 559.5 366 c 128,-1,22
 578 317 578 317 578 264 c 0,23,24
 578 251 578 251 577.5 239 c 128,-1,25
 577 227 577 227 575 219 c 1,26,-1
 170 219 l 1,27,28
 173 188 173 188 185 164 c 128,-1,29
 197 140 197 140 216 123 c 128,-1,30
 235 106 235 106 259 97 c 128,-1,31
 283 88 283 88 309 88 c 0,32,33
 349 88 349 88 384.5 107.5 c 128,-1,34
 420 127 420 127 433 159 c 1,35,-1
 548 127 l 1,36,37
 519 67 519 67 455.5 28.5 c 128,-1,38
 392 -10 392 -10 304 -10 c 0,8,9
440 306 m 1,39,40
 435 365 435 365 396.5 400.5 c 128,-1,41
 358 436 358 436 303 436 c 0,42,43
 276 436 276 436 252.5 426.5 c 128,-1,44
 229 417 229 417 211 400 c 128,-1,45
 193 383 193 383 181.5 359 c 128,-1,46
 170 335 170 335 168 306 c 1,47,-1
 440 306 l 1,39,40
EndSplineSet
EndChar

StartChar: igrave
Encoding: 236 236 175
Width: 255
GlyphClass: 2
Flags: W
LayerCount: 2
Fore
SplineSet
61 0 m 1,0,-1
 61 524 l 1,1,-1
 195 524 l 1,2,-1
 195 0 l 1,3,-1
 61 0 l 1,0,-1
0 730 m 1,4,-1
 124 730 l 1,5,-1
 179 611 l 1,6,-1
 93 585 l 1,7,-1
 0 730 l 1,4,-1
EndSplineSet
EndChar

StartChar: iacute
Encoding: 237 237 176
Width: 255
GlyphClass: 2
Flags: W
LayerCount: 2
Fore
SplineSet
162 585 m 1,0,-1
 76 611 l 1,1,-1
 130 730 l 1,2,-1
 255 730 l 1,3,-1
 162 585 l 1,0,-1
61 0 m 1,4,-1
 61 524 l 1,5,-1
 195 524 l 1,6,-1
 195 0 l 1,7,-1
 61 0 l 1,4,-1
EndSplineSet
EndChar

StartChar: icircumflex
Encoding: 238 238 177
Width: 255
GlyphClass: 2
Flags: W
LayerCount: 2
Fore
SplineSet
-27 629 m 1,0,-1
 79 730 l 1,1,-1
 176 730 l 1,2,-1
 282 629 l 1,3,-1
 213 597 l 1,4,-1
 128 660 l 1,5,-1
 43 597 l 1,6,-1
 -27 629 l 1,0,-1
61 0 m 1,7,-1
 61 524 l 1,8,-1
 195 524 l 1,9,-1
 195 0 l 1,10,-1
 61 0 l 1,7,-1
EndSplineSet
EndChar

StartChar: idieresis
Encoding: 239 239 178
Width: 255
GlyphClass: 2
Flags: W
LayerCount: 2
Fore
SplineSet
-24 604 m 1,0,-1
 -24 723 l 1,1,-1
 87 723 l 1,2,-1
 87 604 l 1,3,-1
 -24 604 l 1,0,-1
168 604 m 1,4,-1
 168 723 l 1,5,-1
 279 723 l 1,6,-1
 279 604 l 1,7,-1
 168 604 l 1,4,-1
61 0 m 1,8,-1
 61 524 l 1,9,-1
 195 524 l 1,10,-1
 195 0 l 1,11,-1
 61 0 l 1,8,-1
EndSplineSet
EndChar

StartChar: eth
Encoding: 240 240 179
Width: 613
GlyphClass: 2
Flags: W
LayerCount: 2
Fore
SplineSet
526 660 m 1,0,-1
 455 621 l 1,1,2
 518 548 518 548 549 460.5 c 128,-1,3
 580 373 580 373 580 290 c 0,4,5
 580 220 580 220 559 164.5 c 128,-1,6
 538 109 538 109 501.5 70 c 128,-1,7
 465 31 465 31 414 10.5 c 128,-1,8
 363 -10 363 -10 303 -10 c 0,9,10
 245 -10 245 -10 195.5 8.5 c 128,-1,11
 146 27 146 27 109.5 59.5 c 128,-1,12
 73 92 73 92 52 136.5 c 128,-1,13
 31 181 31 181 31 233 c 0,14,15
 31 282 31 282 50 326 c 128,-1,16
 69 370 69 370 101.5 402 c 128,-1,17
 134 434 134 434 178 453 c 128,-1,18
 222 472 222 472 273 472 c 0,19,20
 325 472 325 472 370 450.5 c 128,-1,21
 415 429 415 429 443 394 c 1,22,23
 432 442 432 442 411 487 c 128,-1,24
 390 532 390 532 353 574 c 1,25,-1
 260 522 l 1,26,-1
 221 574 l 1,27,-1
 306 621 l 1,28,29
 274 649 274 649 235 676 c 128,-1,30
 196 703 196 703 146 730 c 1,31,-1
 318 730 l 1,32,33
 366 704 366 704 408 668 c 1,34,-1
 487 713 l 1,35,-1
 526 660 l 1,0,-1
169 234 m 256,36,37
 169 206 169 206 179.5 182.5 c 128,-1,38
 190 159 190 159 208 141.5 c 128,-1,39
 226 124 226 124 251 114 c 128,-1,40
 276 104 276 104 305 104 c 0,41,42
 335 104 335 104 360 114.5 c 128,-1,43
 385 125 385 125 403.5 143 c 128,-1,44
 422 161 422 161 432.5 185 c 128,-1,45
 443 209 443 209 443 237 c 256,46,47
 443 265 443 265 432.5 288 c 128,-1,48
 422 311 422 311 404 328 c 128,-1,49
 386 345 386 345 361 354.5 c 128,-1,50
 336 364 336 364 307 364 c 0,51,52
 277 364 277 364 252 354 c 128,-1,53
 227 344 227 344 208.5 326.5 c 128,-1,54
 190 309 190 309 179.5 285.5 c 128,-1,55
 169 262 169 262 169 234 c 256,36,37
EndSplineSet
EndChar

StartChar: ntilde
Encoding: 241 241 180
Width: 604
GlyphClass: 2
Flags: W
LayerCount: 2
Fore
SplineSet
548 0 m 1,0,-1
 414 0 l 1,1,-1
 414 294 l 2,2,3
 414 357 414 357 392 386 c 128,-1,4
 370 415 370 415 331 415 c 0,5,6
 311 415 311 415 290 407 c 128,-1,7
 269 399 269 399 250.5 384.5 c 128,-1,8
 232 370 232 370 217 350 c 128,-1,9
 202 330 202 330 195 306 c 1,10,-1
 195 0 l 1,11,-1
 61 0 l 1,12,-1
 61 524 l 1,13,-1
 182 524 l 1,14,-1
 182 427 l 1,15,16
 211 477 211 477 266 505 c 128,-1,17
 321 533 321 533 390 533 c 0,18,19
 439 533 439 533 470 515 c 128,-1,20
 501 497 501 497 518 468 c 128,-1,21
 535 439 535 439 541.5 402 c 128,-1,22
 548 365 548 365 548 327 c 2,23,-1
 548 0 l 1,0,-1
379 602 m 0,24,25
 356 602 356 602 339 609 c 128,-1,26
 322 616 322 616 307.5 624.5 c 128,-1,27
 293 633 293 633 278.5 640 c 128,-1,28
 264 647 264 647 248 647 c 0,29,30
 231 647 231 647 221.5 640 c 128,-1,31
 212 633 212 633 207 624 c 128,-1,32
 202 615 202 615 201 607.5 c 128,-1,33
 200 600 200 600 200 599 c 2,34,-1
 126 599 l 1,35,36
 126 608 126 608 132 629.5 c 128,-1,37
 138 651 138 651 151.5 672.5 c 128,-1,38
 165 694 165 694 187.5 710.5 c 128,-1,39
 210 727 210 727 243 727 c 0,40,41
 266 727 266 727 282.5 719.5 c 128,-1,42
 299 712 299 712 313.5 703.5 c 128,-1,43
 328 695 328 695 342.5 687.5 c 128,-1,44
 357 680 357 680 375 680 c 256,45,46
 393 680 393 680 403.5 687 c 128,-1,47
 414 694 414 694 419.5 703 c 128,-1,48
 425 712 425 712 426.5 720 c 128,-1,49
 428 728 428 728 428 730 c 2,50,-1
 502 730 l 1,51,52
 502 723 502 723 496 702 c 128,-1,53
 490 681 490 681 475.5 659 c 128,-1,54
 461 637 461 637 437.5 619.5 c 128,-1,55
 414 602 414 602 379 602 c 0,24,25
EndSplineSet
EndChar

StartChar: ograve
Encoding: 242 242 181
Width: 606
GlyphClass: 2
Flags: W
LayerCount: 2
Fore
SplineSet
303 -10 m 256,0,1
 239 -10 239 -10 188 12 c 128,-1,2
 137 34 137 34 101.5 71.5 c 128,-1,3
 66 109 66 109 47 158 c 128,-1,4
 28 207 28 207 28 261 c 0,5,6
 28 316 28 316 47 365 c 128,-1,7
 66 414 66 414 101.5 451.5 c 128,-1,8
 137 489 137 489 188 511 c 128,-1,9
 239 533 239 533 303 533 c 256,10,11
 367 533 367 533 417.5 511 c 128,-1,12
 468 489 468 489 503.5 451.5 c 128,-1,13
 539 414 539 414 558 365 c 128,-1,14
 577 316 577 316 577 261 c 0,15,16
 577 207 577 207 558 158 c 128,-1,17
 539 109 539 109 504 71.5 c 128,-1,18
 469 34 469 34 418 12 c 128,-1,19
 367 -10 367 -10 303 -10 c 256,0,1
166 261 m 0,20,21
 166 226 166 226 176.5 197.5 c 128,-1,22
 187 169 187 169 205.5 148 c 128,-1,23
 224 127 224 127 249 115.5 c 128,-1,24
 274 104 274 104 303 104 c 256,25,26
 332 104 332 104 357 115.5 c 128,-1,27
 382 127 382 127 400.5 148 c 128,-1,28
 419 169 419 169 429.5 198 c 128,-1,29
 440 227 440 227 440 262 c 0,30,31
 440 296 440 296 429.5 325 c 128,-1,32
 419 354 419 354 400.5 375 c 128,-1,33
 382 396 382 396 357 407.5 c 128,-1,34
 332 419 332 419 303 419 c 256,35,36
 274 419 274 419 249 407 c 128,-1,37
 224 395 224 395 205.5 374 c 128,-1,38
 187 353 187 353 176.5 324 c 128,-1,39
 166 295 166 295 166 261 c 0,20,21
176 730 m 1,40,-1
 300 730 l 1,41,-1
 355 611 l 1,42,-1
 269 585 l 1,43,-1
 176 730 l 1,40,-1
EndSplineSet
EndChar

StartChar: oacute
Encoding: 243 243 182
Width: 606
GlyphClass: 2
Flags: W
LayerCount: 2
Fore
SplineSet
337 585 m 1,0,-1
 251 611 l 1,1,-1
 305 730 l 1,2,-1
 430 730 l 1,3,-1
 337 585 l 1,0,-1
303 -10 m 256,4,5
 239 -10 239 -10 188 12 c 128,-1,6
 137 34 137 34 101.5 71.5 c 128,-1,7
 66 109 66 109 47 158 c 128,-1,8
 28 207 28 207 28 261 c 0,9,10
 28 316 28 316 47 365 c 128,-1,11
 66 414 66 414 101.5 451.5 c 128,-1,12
 137 489 137 489 188 511 c 128,-1,13
 239 533 239 533 303 533 c 256,14,15
 367 533 367 533 417.5 511 c 128,-1,16
 468 489 468 489 503.5 451.5 c 128,-1,17
 539 414 539 414 558 365 c 128,-1,18
 577 316 577 316 577 261 c 0,19,20
 577 207 577 207 558 158 c 128,-1,21
 539 109 539 109 504 71.5 c 128,-1,22
 469 34 469 34 418 12 c 128,-1,23
 367 -10 367 -10 303 -10 c 256,4,5
166 261 m 0,24,25
 166 226 166 226 176.5 197.5 c 128,-1,26
 187 169 187 169 205.5 148 c 128,-1,27
 224 127 224 127 249 115.5 c 128,-1,28
 274 104 274 104 303 104 c 256,29,30
 332 104 332 104 357 115.5 c 128,-1,31
 382 127 382 127 400.5 148 c 128,-1,32
 419 169 419 169 429.5 198 c 128,-1,33
 440 227 440 227 440 262 c 0,34,35
 440 296 440 296 429.5 325 c 128,-1,36
 419 354 419 354 400.5 375 c 128,-1,37
 382 396 382 396 357 407.5 c 128,-1,38
 332 419 332 419 303 419 c 256,39,40
 274 419 274 419 249 407 c 128,-1,41
 224 395 224 395 205.5 374 c 128,-1,42
 187 353 187 353 176.5 324 c 128,-1,43
 166 295 166 295 166 261 c 0,24,25
EndSplineSet
EndChar

StartChar: ocircumflex
Encoding: 244 244 183
Width: 606
GlyphClass: 2
Flags: W
LayerCount: 2
Fore
SplineSet
148 629 m 1,0,-1
 254 730 l 1,1,-1
 351 730 l 1,2,-1
 457 629 l 1,3,-1
 388 597 l 1,4,-1
 303 660 l 1,5,-1
 218 597 l 1,6,-1
 148 629 l 1,0,-1
303 -10 m 256,7,8
 239 -10 239 -10 188 12 c 128,-1,9
 137 34 137 34 101.5 71.5 c 128,-1,10
 66 109 66 109 47 158 c 128,-1,11
 28 207 28 207 28 261 c 0,12,13
 28 316 28 316 47 365 c 128,-1,14
 66 414 66 414 101.5 451.5 c 128,-1,15
 137 489 137 489 188 511 c 128,-1,16
 239 533 239 533 303 533 c 256,17,18
 367 533 367 533 417.5 511 c 128,-1,19
 468 489 468 489 503.5 451.5 c 128,-1,20
 539 414 539 414 558 365 c 128,-1,21
 577 316 577 316 577 261 c 0,22,23
 577 207 577 207 558 158 c 128,-1,24
 539 109 539 109 504 71.5 c 128,-1,25
 469 34 469 34 418 12 c 128,-1,26
 367 -10 367 -10 303 -10 c 256,7,8
166 261 m 0,27,28
 166 226 166 226 176.5 197.5 c 128,-1,29
 187 169 187 169 205.5 148 c 128,-1,30
 224 127 224 127 249 115.5 c 128,-1,31
 274 104 274 104 303 104 c 256,32,33
 332 104 332 104 357 115.5 c 128,-1,34
 382 127 382 127 400.5 148 c 128,-1,35
 419 169 419 169 429.5 198 c 128,-1,36
 440 227 440 227 440 262 c 0,37,38
 440 296 440 296 429.5 325 c 128,-1,39
 419 354 419 354 400.5 375 c 128,-1,40
 382 396 382 396 357 407.5 c 128,-1,41
 332 419 332 419 303 419 c 256,42,43
 274 419 274 419 249 407 c 128,-1,44
 224 395 224 395 205.5 374 c 128,-1,45
 187 353 187 353 176.5 324 c 128,-1,46
 166 295 166 295 166 261 c 0,27,28
EndSplineSet
EndChar

StartChar: otilde
Encoding: 245 245 184
Width: 606
GlyphClass: 2
Flags: W
LayerCount: 2
Fore
SplineSet
303 -10 m 256,0,1
 239 -10 239 -10 188 12 c 128,-1,2
 137 34 137 34 101.5 71.5 c 128,-1,3
 66 109 66 109 47 158 c 128,-1,4
 28 207 28 207 28 261 c 0,5,6
 28 316 28 316 47 365 c 128,-1,7
 66 414 66 414 101.5 451.5 c 128,-1,8
 137 489 137 489 188 511 c 128,-1,9
 239 533 239 533 303 533 c 256,10,11
 367 533 367 533 417.5 511 c 128,-1,12
 468 489 468 489 503.5 451.5 c 128,-1,13
 539 414 539 414 558 365 c 128,-1,14
 577 316 577 316 577 261 c 0,15,16
 577 207 577 207 558 158 c 128,-1,17
 539 109 539 109 504 71.5 c 128,-1,18
 469 34 469 34 418 12 c 128,-1,19
 367 -10 367 -10 303 -10 c 256,0,1
166 261 m 0,20,21
 166 226 166 226 176.5 197.5 c 128,-1,22
 187 169 187 169 205.5 148 c 128,-1,23
 224 127 224 127 249 115.5 c 128,-1,24
 274 104 274 104 303 104 c 256,25,26
 332 104 332 104 357 115.5 c 128,-1,27
 382 127 382 127 400.5 148 c 128,-1,28
 419 169 419 169 429.5 198 c 128,-1,29
 440 227 440 227 440 262 c 0,30,31
 440 296 440 296 429.5 325 c 128,-1,32
 419 354 419 354 400.5 375 c 128,-1,33
 382 396 382 396 357 407.5 c 128,-1,34
 332 419 332 419 303 419 c 256,35,36
 274 419 274 419 249 407 c 128,-1,37
 224 395 224 395 205.5 374 c 128,-1,38
 187 353 187 353 176.5 324 c 128,-1,39
 166 295 166 295 166 261 c 0,20,21
366 602 m 0,40,41
 343 602 343 602 326 609 c 128,-1,42
 309 616 309 616 294.5 624.5 c 128,-1,43
 280 633 280 633 265.5 640 c 128,-1,44
 251 647 251 647 235 647 c 0,45,46
 218 647 218 647 208.5 640 c 128,-1,47
 199 633 199 633 194 624 c 128,-1,48
 189 615 189 615 188 607.5 c 128,-1,49
 187 600 187 600 187 599 c 2,50,-1
 113 599 l 1,51,52
 113 608 113 608 119 629.5 c 128,-1,53
 125 651 125 651 138.5 672.5 c 128,-1,54
 152 694 152 694 174.5 710.5 c 128,-1,55
 197 727 197 727 230 727 c 0,56,57
 253 727 253 727 269.5 719.5 c 128,-1,58
 286 712 286 712 300.5 703.5 c 128,-1,59
 315 695 315 695 329.5 687.5 c 128,-1,60
 344 680 344 680 362 680 c 256,61,62
 380 680 380 680 390.5 687 c 128,-1,63
 401 694 401 694 406.5 703 c 128,-1,64
 412 712 412 712 413.5 720 c 128,-1,65
 415 728 415 728 415 730 c 2,66,-1
 489 730 l 1,67,68
 489 723 489 723 483 702 c 128,-1,69
 477 681 477 681 462.5 659 c 128,-1,70
 448 637 448 637 424.5 619.5 c 128,-1,71
 401 602 401 602 366 602 c 0,40,41
EndSplineSet
EndChar

StartChar: odieresis
Encoding: 246 246 185
Width: 606
GlyphClass: 2
Flags: W
LayerCount: 2
Fore
SplineSet
151 604 m 1,0,-1
 151 723 l 1,1,-1
 262 723 l 1,2,-1
 262 604 l 1,3,-1
 151 604 l 1,0,-1
343 604 m 1,4,-1
 343 723 l 1,5,-1
 454 723 l 1,6,-1
 454 604 l 1,7,-1
 343 604 l 1,4,-1
303 -10 m 256,8,9
 239 -10 239 -10 188 12 c 128,-1,10
 137 34 137 34 101.5 71.5 c 128,-1,11
 66 109 66 109 47 158 c 128,-1,12
 28 207 28 207 28 261 c 0,13,14
 28 316 28 316 47 365 c 128,-1,15
 66 414 66 414 101.5 451.5 c 128,-1,16
 137 489 137 489 188 511 c 128,-1,17
 239 533 239 533 303 533 c 256,18,19
 367 533 367 533 417.5 511 c 128,-1,20
 468 489 468 489 503.5 451.5 c 128,-1,21
 539 414 539 414 558 365 c 128,-1,22
 577 316 577 316 577 261 c 0,23,24
 577 207 577 207 558 158 c 128,-1,25
 539 109 539 109 504 71.5 c 128,-1,26
 469 34 469 34 418 12 c 128,-1,27
 367 -10 367 -10 303 -10 c 256,8,9
166 261 m 0,28,29
 166 226 166 226 176.5 197.5 c 128,-1,30
 187 169 187 169 205.5 148 c 128,-1,31
 224 127 224 127 249 115.5 c 128,-1,32
 274 104 274 104 303 104 c 256,33,34
 332 104 332 104 357 115.5 c 128,-1,35
 382 127 382 127 400.5 148 c 128,-1,36
 419 169 419 169 429.5 198 c 128,-1,37
 440 227 440 227 440 262 c 0,38,39
 440 296 440 296 429.5 325 c 128,-1,40
 419 354 419 354 400.5 375 c 128,-1,41
 382 396 382 396 357 407.5 c 128,-1,42
 332 419 332 419 303 419 c 256,43,44
 274 419 274 419 249 407 c 128,-1,45
 224 395 224 395 205.5 374 c 128,-1,46
 187 353 187 353 176.5 324 c 128,-1,47
 166 295 166 295 166 261 c 0,28,29
EndSplineSet
EndChar

StartChar: divide
Encoding: 247 247 186
Width: 511
GlyphClass: 2
Flags: W
LayerCount: 2
Fore
SplineSet
200 419 m 1,0,-1
 200 547 l 1,1,-1
 313 547 l 1,2,-1
 313 419 l 1,3,-1
 200 419 l 1,0,-1
200 48 m 1,4,-1
 200 177 l 1,5,-1
 313 177 l 1,6,-1
 313 48 l 1,7,-1
 200 48 l 1,4,-1
54 244 m 1,8,-1
 54 351 l 1,9,-1
 458 351 l 1,10,-1
 458 244 l 1,11,-1
 54 244 l 1,8,-1
EndSplineSet
EndChar

StartChar: oslash
Encoding: 248 248 187
Width: 606
GlyphClass: 2
Flags: W
LayerCount: 2
Fore
SplineSet
50 -4 m 1,0,-1
 108 64 l 1,1,2
 69 102 69 102 48.5 153 c 128,-1,3
 28 204 28 204 28 261 c 0,4,5
 28 316 28 316 47 365 c 128,-1,6
 66 414 66 414 101.5 451.5 c 128,-1,7
 137 489 137 489 188 511 c 128,-1,8
 239 533 239 533 303 533 c 0,9,10
 345 533 345 533 381 523 c 128,-1,11
 417 513 417 513 447 496 c 1,12,-1
 474 528 l 1,13,-1
 550 528 l 1,14,-1
 494 461 l 1,15,16
 534 423 534 423 555.5 371.5 c 128,-1,17
 577 320 577 320 577 261 c 0,18,19
 577 207 577 207 558 158 c 128,-1,20
 539 109 539 109 504 71.5 c 128,-1,21
 469 34 469 34 418 12 c 128,-1,22
 367 -10 367 -10 303 -10 c 0,23,24
 259 -10 259 -10 222 0 c 128,-1,25
 185 10 185 10 154 29 c 1,26,-1
 126 -4 l 1,27,-1
 50 -4 l 1,0,-1
303 104 m 0,28,29
 332 104 332 104 357 115.5 c 128,-1,30
 382 127 382 127 400.5 148 c 128,-1,31
 419 169 419 169 429.5 198 c 128,-1,32
 440 227 440 227 440 262 c 0,33,34
 440 291 440 291 432.5 316.5 c 128,-1,35
 425 342 425 342 411 362 c 1,36,-1
 230 126 l 1,37,38
 263 104 263 104 303 104 c 0,28,29
166 261 m 0,39,40
 166 204 166 204 193 163 c 1,41,-1
 372 399 l 1,42,43
 341 419 341 419 303 419 c 0,44,45
 274 419 274 419 249 407 c 128,-1,46
 224 395 224 395 205.5 374 c 128,-1,47
 187 353 187 353 176.5 324 c 128,-1,48
 166 295 166 295 166 261 c 0,39,40
EndSplineSet
EndChar

StartChar: ugrave
Encoding: 249 249 188
Width: 618
GlyphClass: 2
Flags: W
LayerCount: 2
Fore
SplineSet
221 -10 m 0,0,1
 140 -10 140 -10 98 42 c 128,-1,2
 56 94 56 94 56 196 c 2,3,-1
 56 524 l 1,4,-1
 190 524 l 1,5,-1
 190 225 l 2,6,7
 190 104 190 104 277 104 c 0,8,9
 316 104 316 104 352.5 127.5 c 128,-1,10
 389 151 389 151 412 199 c 1,11,-1
 412 524 l 1,12,-1
 546 524 l 1,13,-1
 546 154 l 2,14,15
 546 133 546 133 553.5 124 c 128,-1,16
 561 115 561 115 578 114 c 1,17,-1
 578 0 l 1,18,19
 558 -4 558 -4 544.5 -5 c 128,-1,20
 531 -6 531 -6 520 -6 c 0,21,22
 484 -6 484 -6 461.5 10.5 c 128,-1,23
 439 27 439 27 435 56 c 2,24,-1
 432 98 l 1,25,26
 397 44 397 44 342 17 c 128,-1,27
 287 -10 287 -10 221 -10 c 0,0,1
173 730 m 1,28,-1
 297 730 l 1,29,-1
 352 611 l 1,30,-1
 266 585 l 1,31,-1
 173 730 l 1,28,-1
EndSplineSet
EndChar

StartChar: uacute
Encoding: 250 250 189
Width: 618
GlyphClass: 2
Flags: W
LayerCount: 2
Fore
SplineSet
335 585 m 1,0,-1
 249 611 l 1,1,-1
 303 730 l 1,2,-1
 428 730 l 1,3,-1
 335 585 l 1,0,-1
221 -10 m 0,4,5
 140 -10 140 -10 98 42 c 128,-1,6
 56 94 56 94 56 196 c 2,7,-1
 56 524 l 1,8,-1
 190 524 l 1,9,-1
 190 225 l 2,10,11
 190 104 190 104 277 104 c 0,12,13
 316 104 316 104 352.5 127.5 c 128,-1,14
 389 151 389 151 412 199 c 1,15,-1
 412 524 l 1,16,-1
 546 524 l 1,17,-1
 546 154 l 2,18,19
 546 133 546 133 553.5 124 c 128,-1,20
 561 115 561 115 578 114 c 1,21,-1
 578 0 l 1,22,23
 558 -4 558 -4 544.5 -5 c 128,-1,24
 531 -6 531 -6 520 -6 c 0,25,26
 484 -6 484 -6 461.5 10.5 c 128,-1,27
 439 27 439 27 435 56 c 2,28,-1
 432 98 l 1,29,30
 397 44 397 44 342 17 c 128,-1,31
 287 -10 287 -10 221 -10 c 0,4,5
EndSplineSet
EndChar

StartChar: ucircumflex
Encoding: 251 251 190
Width: 618
GlyphClass: 2
Flags: W
LayerCount: 2
Fore
SplineSet
146 629 m 1,0,-1
 252 730 l 1,1,-1
 349 730 l 1,2,-1
 455 629 l 1,3,-1
 386 597 l 1,4,-1
 301 660 l 1,5,-1
 216 597 l 1,6,-1
 146 629 l 1,0,-1
221 -10 m 0,7,8
 140 -10 140 -10 98 42 c 128,-1,9
 56 94 56 94 56 196 c 2,10,-1
 56 524 l 1,11,-1
 190 524 l 1,12,-1
 190 225 l 2,13,14
 190 104 190 104 277 104 c 0,15,16
 316 104 316 104 352.5 127.5 c 128,-1,17
 389 151 389 151 412 199 c 1,18,-1
 412 524 l 1,19,-1
 546 524 l 1,20,-1
 546 154 l 2,21,22
 546 133 546 133 553.5 124 c 128,-1,23
 561 115 561 115 578 114 c 1,24,-1
 578 0 l 1,25,26
 558 -4 558 -4 544.5 -5 c 128,-1,27
 531 -6 531 -6 520 -6 c 0,28,29
 484 -6 484 -6 461.5 10.5 c 128,-1,30
 439 27 439 27 435 56 c 2,31,-1
 432 98 l 1,32,33
 397 44 397 44 342 17 c 128,-1,34
 287 -10 287 -10 221 -10 c 0,7,8
EndSplineSet
EndChar

StartChar: udieresis
Encoding: 252 252 191
Width: 618
GlyphClass: 2
Flags: W
LayerCount: 2
Fore
SplineSet
149 604 m 1,0,-1
 149 723 l 1,1,-1
 260 723 l 1,2,-1
 260 604 l 1,3,-1
 149 604 l 1,0,-1
341 604 m 1,4,-1
 341 723 l 1,5,-1
 452 723 l 1,6,-1
 452 604 l 1,7,-1
 341 604 l 1,4,-1
221 -10 m 0,8,9
 140 -10 140 -10 98 42 c 128,-1,10
 56 94 56 94 56 196 c 2,11,-1
 56 524 l 1,12,-1
 190 524 l 1,13,-1
 190 225 l 2,14,15
 190 104 190 104 277 104 c 0,16,17
 316 104 316 104 352.5 127.5 c 128,-1,18
 389 151 389 151 412 199 c 1,19,-1
 412 524 l 1,20,-1
 546 524 l 1,21,-1
 546 154 l 2,22,23
 546 133 546 133 553.5 124 c 128,-1,24
 561 115 561 115 578 114 c 1,25,-1
 578 0 l 1,26,27
 558 -4 558 -4 544.5 -5 c 128,-1,28
 531 -6 531 -6 520 -6 c 0,29,30
 484 -6 484 -6 461.5 10.5 c 128,-1,31
 439 27 439 27 435 56 c 2,32,-1
 432 98 l 1,33,34
 397 44 397 44 342 17 c 128,-1,35
 287 -10 287 -10 221 -10 c 0,8,9
EndSplineSet
EndChar

StartChar: yacute
Encoding: 253 253 192
Width: 550
GlyphClass: 2
Flags: W
LayerCount: 2
Fore
SplineSet
72 -102 m 1,0,1
 89 -107 89 -107 105 -109.5 c 128,-1,2
 121 -112 121 -112 132 -112 c 0,3,4
 145 -112 145 -112 156 -107 c 128,-1,5
 167 -102 167 -102 176 -89.5 c 128,-1,6
 185 -77 185 -77 194 -55 c 128,-1,7
 203 -33 203 -33 213 0 c 1,8,-1
 6 524 l 1,9,-1
 144 524 l 1,10,-1
 286 116 l 1,11,-1
 412 524 l 1,12,-1
 538 524 l 1,13,-1
 318 -104 l 2,14,15
 299 -159 299 -159 253 -194 c 128,-1,16
 207 -229 207 -229 139 -229 c 0,17,18
 123 -229 123 -229 106.5 -226.5 c 128,-1,19
 90 -224 90 -224 72 -218 c 1,20,-1
 72 -102 l 1,0,1
321 585 m 1,21,-1
 235 611 l 1,22,-1
 289 730 l 1,23,-1
 414 730 l 1,24,-1
 321 585 l 1,21,-1
EndSplineSet
EndChar

StartChar: thorn
Encoding: 254 254 193
Width: 601
GlyphClass: 2
Flags: W
LayerCount: 2
Fore
SplineSet
574 256 m 0,0,1
 574 200 574 200 553 149.5 c 128,-1,2
 532 99 532 99 496 60.5 c 128,-1,3
 460 22 460 22 412.5 -1 c 128,-1,4
 365 -24 365 -24 311 -24 c 0,5,6
 265 -24 265 -24 237 -7 c 128,-1,7
 209 10 209 10 198 27 c 1,8,-1
 198 -213 l 1,9,-1
 61 -213 l 1,10,-1
 61 710 l 1,11,-1
 198 710 l 1,12,-1
 198 483 l 1,13,14
 212 502 212 502 239.5 520.5 c 128,-1,15
 267 539 267 539 319 539 c 0,16,17
 377 539 377 539 424.5 514 c 128,-1,18
 472 489 472 489 505 448.5 c 128,-1,19
 538 408 538 408 556 357.5 c 128,-1,20
 574 307 574 307 574 256 c 0,0,1
437 258 m 0,21,22
 437 290 437 290 428.5 319 c 128,-1,23
 420 348 420 348 403.5 370 c 128,-1,24
 387 392 387 392 363.5 405 c 128,-1,25
 340 418 340 418 311 418 c 0,26,27
 270 418 270 418 243 394.5 c 128,-1,28
 216 371 216 371 198 336 c 1,29,-1
 198 176 l 2,30,31
 198 162 198 162 208 148 c 128,-1,32
 218 134 218 134 233.5 122.5 c 128,-1,33
 249 111 249 111 268.5 104 c 128,-1,34
 288 97 288 97 307 97 c 0,35,36
 335 97 335 97 359 110 c 128,-1,37
 383 123 383 123 400 144.5 c 128,-1,38
 417 166 417 166 427 195.5 c 128,-1,39
 437 225 437 225 437 258 c 0,21,22
EndSplineSet
EndChar

StartChar: ydieresis
Encoding: 255 255 194
Width: 550
GlyphClass: 2
Flags: W
LayerCount: 2
Fore
SplineSet
72 -102 m 1,0,1
 89 -107 89 -107 105 -109.5 c 128,-1,2
 121 -112 121 -112 132 -112 c 0,3,4
 145 -112 145 -112 156 -107 c 128,-1,5
 167 -102 167 -102 176 -89.5 c 128,-1,6
 185 -77 185 -77 194 -55 c 128,-1,7
 203 -33 203 -33 213 0 c 1,8,-1
 6 524 l 1,9,-1
 144 524 l 1,10,-1
 286 116 l 1,11,-1
 412 524 l 1,12,-1
 538 524 l 1,13,-1
 318 -104 l 2,14,15
 299 -159 299 -159 253 -194 c 128,-1,16
 207 -229 207 -229 139 -229 c 0,17,18
 123 -229 123 -229 106.5 -226.5 c 128,-1,19
 90 -224 90 -224 72 -218 c 1,20,-1
 72 -102 l 1,0,1
135 604 m 1,21,-1
 135 723 l 1,22,-1
 246 723 l 1,23,-1
 246 604 l 1,24,-1
 135 604 l 1,21,-1
327 604 m 1,25,-1
 327 723 l 1,26,-1
 438 723 l 1,27,-1
 438 604 l 1,28,-1
 327 604 l 1,25,-1
EndSplineSet
EndChar

StartChar: Amacron
Encoding: 256 256 195
Width: 672
GlyphClass: 2
Flags: W
LayerCount: 2
Fore
SplineSet
276 710 m 1,0,-1
 398 710 l 1,1,-1
 668 0 l 1,2,-1
 526 0 l 1,3,-1
 460 177 l 1,4,-1
 212 177 l 1,5,-1
 147 0 l 1,6,-1
 5 0 l 1,7,-1
 276 710 l 1,0,-1
435 274 m 1,8,-1
 337 553 l 1,9,-1
 235 274 l 1,10,-1
 435 274 l 1,8,-1
188 818 m 1,11,-1
 188 901 l 1,12,-1
 488 901 l 1,13,-1
 488 818 l 1,14,-1
 188 818 l 1,11,-1
EndSplineSet
EndChar

StartChar: amacron
Encoding: 257 257 196
Width: 574
GlyphClass: 2
Flags: W
LayerCount: 2
Fore
SplineSet
204 -10 m 0,0,1
 166 -10 166 -10 133 2.5 c 128,-1,2
 100 15 100 15 76 37.5 c 128,-1,3
 52 60 52 60 38.5 90 c 128,-1,4
 25 120 25 120 25 156 c 0,5,6
 25 193 25 193 41.5 224.5 c 128,-1,7
 58 256 58 256 87.5 278 c 128,-1,8
 117 300 117 300 158 312.5 c 128,-1,9
 199 325 199 325 248 325 c 0,10,11
 283 325 283 325 316.5 319 c 128,-1,12
 350 313 350 313 376 302 c 1,13,-1
 376 332 l 2,14,15
 376 384 376 384 346.5 412 c 128,-1,16
 317 440 317 440 259 440 c 0,17,18
 217 440 217 440 177 425 c 128,-1,19
 137 410 137 410 95 381 c 1,20,-1
 54 466 l 1,21,22
 155 533 155 533 272 533 c 0,23,24
 385 533 385 533 447.5 477.5 c 128,-1,25
 510 422 510 422 510 317 c 2,26,-1
 510 154 l 2,27,28
 510 133 510 133 517.5 124 c 128,-1,29
 525 115 525 115 542 114 c 1,30,-1
 542 0 l 1,31,32
 508 -7 508 -7 483 -7 c 0,33,34
 445 -7 445 -7 424.5 10 c 128,-1,35
 404 27 404 27 399 55 c 2,36,-1
 396 84 l 1,37,38
 361 38 361 38 311 14 c 128,-1,39
 261 -10 261 -10 204 -10 c 0,0,1
242 88 m 0,40,41
 276 88 276 88 306.5 100 c 128,-1,42
 337 112 337 112 354 132 c 1,43,44
 376 149 376 149 376 170 c 2,45,-1
 376 230 l 1,46,47
 352 239 352 239 324 244.5 c 128,-1,48
 296 250 296 250 270 250 c 0,49,50
 218 250 218 250 185 226.5 c 128,-1,51
 152 203 152 203 152 167 c 0,52,53
 152 133 152 133 178 110.5 c 128,-1,54
 204 88 204 88 242 88 c 0,40,41
123 633 m 1,55,-1
 123 716 l 1,56,-1
 423 716 l 1,57,-1
 423 633 l 1,58,-1
 123 633 l 1,55,-1
EndSplineSet
EndChar

StartChar: Abreve
Encoding: 258 258 197
Width: 672
GlyphClass: 2
Flags: W
LayerCount: 2
Fore
SplineSet
276 710 m 1,0,-1
 398 710 l 1,1,-1
 668 0 l 1,2,-1
 526 0 l 1,3,-1
 460 177 l 1,4,-1
 212 177 l 1,5,-1
 147 0 l 1,6,-1
 5 0 l 1,7,-1
 276 710 l 1,0,-1
435 274 m 1,8,-1
 337 553 l 1,9,-1
 235 274 l 1,10,-1
 435 274 l 1,8,-1
337 841 m 256,11,12
 360 841 360 841 377 862 c 128,-1,13
 394 883 394 883 397 915 c 1,14,-1
 468 915 l 1,15,16
 468 886 468 886 458 861.5 c 128,-1,17
 448 837 448 837 431 819 c 128,-1,18
 414 801 414 801 389.5 791 c 128,-1,19
 365 781 365 781 337 781 c 0,20,21
 308 781 308 781 284 791 c 128,-1,22
 260 801 260 801 243 819 c 128,-1,23
 226 837 226 837 216 861.5 c 128,-1,24
 206 886 206 886 206 915 c 1,25,-1
 278 915 l 1,26,27
 278 885 278 885 296 863 c 128,-1,28
 314 841 314 841 337 841 c 256,11,12
EndSplineSet
EndChar

StartChar: abreve
Encoding: 259 259 198
Width: 574
GlyphClass: 2
Flags: W
LayerCount: 2
Fore
SplineSet
204 -10 m 0,0,1
 166 -10 166 -10 133 2.5 c 128,-1,2
 100 15 100 15 76 37.5 c 128,-1,3
 52 60 52 60 38.5 90 c 128,-1,4
 25 120 25 120 25 156 c 0,5,6
 25 193 25 193 41.5 224.5 c 128,-1,7
 58 256 58 256 87.5 278 c 128,-1,8
 117 300 117 300 158 312.5 c 128,-1,9
 199 325 199 325 248 325 c 0,10,11
 283 325 283 325 316.5 319 c 128,-1,12
 350 313 350 313 376 302 c 1,13,-1
 376 332 l 2,14,15
 376 384 376 384 346.5 412 c 128,-1,16
 317 440 317 440 259 440 c 0,17,18
 217 440 217 440 177 425 c 128,-1,19
 137 410 137 410 95 381 c 1,20,-1
 54 466 l 1,21,22
 155 533 155 533 272 533 c 0,23,24
 385 533 385 533 447.5 477.5 c 128,-1,25
 510 422 510 422 510 317 c 2,26,-1
 510 154 l 2,27,28
 510 133 510 133 517.5 124 c 128,-1,29
 525 115 525 115 542 114 c 1,30,-1
 542 0 l 1,31,32
 508 -7 508 -7 483 -7 c 0,33,34
 445 -7 445 -7 424.5 10 c 128,-1,35
 404 27 404 27 399 55 c 2,36,-1
 396 84 l 1,37,38
 361 38 361 38 311 14 c 128,-1,39
 261 -10 261 -10 204 -10 c 0,0,1
242 88 m 0,40,41
 276 88 276 88 306.5 100 c 128,-1,42
 337 112 337 112 354 132 c 1,43,44
 376 149 376 149 376 170 c 2,45,-1
 376 230 l 1,46,47
 352 239 352 239 324 244.5 c 128,-1,48
 296 250 296 250 270 250 c 0,49,50
 218 250 218 250 185 226.5 c 128,-1,51
 152 203 152 203 152 167 c 0,52,53
 152 133 152 133 178 110.5 c 128,-1,54
 204 88 204 88 242 88 c 0,40,41
272 656 m 256,55,56
 295 656 295 656 312 677 c 128,-1,57
 329 698 329 698 332 730 c 1,58,-1
 403 730 l 1,59,60
 403 701 403 701 393 676.5 c 128,-1,61
 383 652 383 652 366 634 c 128,-1,62
 349 616 349 616 324.5 606 c 128,-1,63
 300 596 300 596 272 596 c 0,64,65
 243 596 243 596 219 606 c 128,-1,66
 195 616 195 616 178 634 c 128,-1,67
 161 652 161 652 151 676.5 c 128,-1,68
 141 701 141 701 141 730 c 1,69,-1
 213 730 l 1,70,71
 213 700 213 700 231 678 c 128,-1,72
 249 656 249 656 272 656 c 256,55,56
EndSplineSet
EndChar

StartChar: Aogonek
Encoding: 260 260 199
Width: 678
GlyphClass: 2
Flags: W
LayerCount: 2
Fore
SplineSet
625 -196 m 1,0,1
 567 -188 567 -188 538.5 -164 c 128,-1,2
 510 -140 510 -140 510 -109 c 0,3,4
 510 -51 510 -51 591 0 c 1,5,-1
 526 0 l 1,6,-1
 460 177 l 1,7,-1
 212 177 l 1,8,-1
 147 0 l 1,9,-1
 5 0 l 1,10,-1
 276 710 l 1,11,-1
 398 710 l 1,12,-1
 668 0 l 1,13,14
 591 -46 591 -46 591 -85 c 0,15,16
 591 -122 591 -122 653 -126 c 1,17,-1
 625 -196 l 1,0,1
435 274 m 1,18,-1
 337 553 l 1,19,-1
 235 274 l 1,20,-1
 435 274 l 1,18,-1
EndSplineSet
EndChar

StartChar: aogonek
Encoding: 261 261 200
Width: 575
GlyphClass: 2
Flags: W
LayerCount: 2
Fore
SplineSet
499 -196 m 1,0,1
 441 -188 441 -188 412.5 -164 c 128,-1,2
 384 -140 384 -140 384 -109 c 0,3,4
 384 -54 384 -54 458 -5 c 1,5,6
 407 6 407 6 399 55 c 2,7,-1
 396 84 l 1,8,9
 361 38 361 38 311 14 c 128,-1,10
 261 -10 261 -10 204 -10 c 0,11,12
 166 -10 166 -10 133 2.5 c 128,-1,13
 100 15 100 15 76 37.5 c 128,-1,14
 52 60 52 60 38.5 90 c 128,-1,15
 25 120 25 120 25 156 c 0,16,17
 25 193 25 193 41.5 224.5 c 128,-1,18
 58 256 58 256 87.5 278 c 128,-1,19
 117 300 117 300 158 312.5 c 128,-1,20
 199 325 199 325 248 325 c 0,21,22
 283 325 283 325 316.5 319 c 128,-1,23
 350 313 350 313 376 302 c 1,24,-1
 376 332 l 2,25,26
 376 384 376 384 346.5 412 c 128,-1,27
 317 440 317 440 259 440 c 0,28,29
 217 440 217 440 177 425 c 128,-1,30
 137 410 137 410 95 381 c 1,31,-1
 54 466 l 1,32,33
 155 533 155 533 272 533 c 0,34,35
 385 533 385 533 447.5 477.5 c 128,-1,36
 510 422 510 422 510 317 c 2,37,-1
 510 154 l 2,38,39
 510 133 510 133 517.5 124 c 128,-1,40
 525 115 525 115 542 114 c 1,41,-1
 542 0 l 1,42,43
 465 -46 465 -46 465 -85 c 0,44,45
 465 -122 465 -122 527 -126 c 1,46,-1
 499 -196 l 1,0,1
242 88 m 0,47,48
 276 88 276 88 306.5 100 c 128,-1,49
 337 112 337 112 354 132 c 1,50,51
 376 149 376 149 376 170 c 2,52,-1
 376 230 l 1,53,54
 352 239 352 239 324 244.5 c 128,-1,55
 296 250 296 250 270 250 c 0,56,57
 218 250 218 250 185 226.5 c 128,-1,58
 152 203 152 203 152 167 c 0,59,60
 152 133 152 133 178 110.5 c 128,-1,61
 204 88 204 88 242 88 c 0,47,48
EndSplineSet
EndChar

StartChar: Cacute
Encoding: 262 262 201
Width: 686
GlyphClass: 2
Flags: W
LayerCount: 2
Fore
SplineSet
417 770 m 1,0,-1
 331 796 l 1,1,-1
 385 915 l 1,2,-1
 510 915 l 1,3,-1
 417 770 l 1,0,-1
31 360 m 0,4,5
 31 425 31 425 54.5 488.5 c 128,-1,6
 78 552 78 552 123 602 c 128,-1,7
 168 652 168 652 233 683 c 128,-1,8
 298 714 298 714 381 714 c 0,9,10
 479 714 479 714 550.5 671 c 128,-1,11
 622 628 622 628 657 559 c 1,12,-1
 551 486 l 1,13,14
 537 516 537 516 517 536.5 c 128,-1,15
 497 557 497 557 474 569 c 128,-1,16
 451 581 451 581 426 586.5 c 128,-1,17
 401 592 401 592 377 592 c 0,18,19
 325 592 325 592 286.5 571 c 128,-1,20
 248 550 248 550 222.5 516.5 c 128,-1,21
 197 483 197 483 184 440.5 c 128,-1,22
 171 398 171 398 171 356 c 0,23,24
 171 309 171 309 186 265.5 c 128,-1,25
 201 222 201 222 228.5 189 c 128,-1,26
 256 156 256 156 294.5 136 c 128,-1,27
 333 116 333 116 379 116 c 0,28,29
 403 116 403 116 429 122 c 128,-1,30
 455 128 455 128 478.5 141 c 128,-1,31
 502 154 502 154 522 174.5 c 128,-1,32
 542 195 542 195 554 224 c 1,33,-1
 667 159 l 1,34,35
 650 119 650 119 618.5 88.5 c 128,-1,36
 587 58 587 58 547.5 37 c 128,-1,37
 508 16 508 16 463 5 c 128,-1,38
 418 -6 418 -6 375 -6 c 0,39,40
 299 -6 299 -6 236 26 c 128,-1,41
 173 58 173 58 127.5 109.5 c 128,-1,42
 82 161 82 161 56.5 226.5 c 128,-1,43
 31 292 31 292 31 360 c 0,4,5
EndSplineSet
EndChar

StartChar: cacute
Encoding: 263 263 202
Width: 564
GlyphClass: 2
Flags: W
LayerCount: 2
Fore
SplineSet
338 585 m 1,0,-1
 252 611 l 1,1,-1
 306 730 l 1,2,-1
 431 730 l 1,3,-1
 338 585 l 1,0,-1
28 262 m 0,4,5
 28 317 28 317 47 366 c 128,-1,6
 66 415 66 415 102 452 c 128,-1,7
 138 489 138 489 189 511 c 128,-1,8
 240 533 240 533 304 533 c 0,9,10
 390 533 390 533 450.5 496 c 128,-1,11
 511 459 511 459 541 399 c 1,12,-1
 410 359 l 1,13,14
 393 388 393 388 365 403.5 c 128,-1,15
 337 419 337 419 303 419 c 0,16,17
 274 419 274 419 249 407.5 c 128,-1,18
 224 396 224 396 205.5 375.5 c 128,-1,19
 187 355 187 355 176.5 326 c 128,-1,20
 166 297 166 297 166 262 c 256,21,22
 166 227 166 227 177 198 c 128,-1,23
 188 169 188 169 206.5 148 c 128,-1,24
 225 127 225 127 250 115.5 c 128,-1,25
 275 104 275 104 303 104 c 0,26,27
 339 104 339 104 369.5 122 c 128,-1,28
 400 140 400 140 412 166 c 1,29,-1
 543 126 l 1,30,31
 516 66 516 66 454 28 c 128,-1,32
 392 -10 392 -10 305 -10 c 0,33,34
 241 -10 241 -10 190 12 c 128,-1,35
 139 34 139 34 103 71.5 c 128,-1,36
 67 109 67 109 47.5 158.5 c 128,-1,37
 28 208 28 208 28 262 c 0,4,5
EndSplineSet
EndChar

StartChar: Ccircumflex
Encoding: 264 264 203
Width: 686
GlyphClass: 2
Flags: W
LayerCount: 2
Fore
SplineSet
224 814 m 1,0,-1
 330 915 l 1,1,-1
 427 915 l 1,2,-1
 533 814 l 1,3,-1
 464 782 l 1,4,-1
 379 845 l 1,5,-1
 294 782 l 1,6,-1
 224 814 l 1,0,-1
31 360 m 0,7,8
 31 425 31 425 54.5 488.5 c 128,-1,9
 78 552 78 552 123 602 c 128,-1,10
 168 652 168 652 233 683 c 128,-1,11
 298 714 298 714 381 714 c 0,12,13
 479 714 479 714 550.5 671 c 128,-1,14
 622 628 622 628 657 559 c 1,15,-1
 551 486 l 1,16,17
 537 516 537 516 517 536.5 c 128,-1,18
 497 557 497 557 474 569 c 128,-1,19
 451 581 451 581 426 586.5 c 128,-1,20
 401 592 401 592 377 592 c 0,21,22
 325 592 325 592 286.5 571 c 128,-1,23
 248 550 248 550 222.5 516.5 c 128,-1,24
 197 483 197 483 184 440.5 c 128,-1,25
 171 398 171 398 171 356 c 0,26,27
 171 309 171 309 186 265.5 c 128,-1,28
 201 222 201 222 228.5 189 c 128,-1,29
 256 156 256 156 294.5 136 c 128,-1,30
 333 116 333 116 379 116 c 0,31,32
 403 116 403 116 429 122 c 128,-1,33
 455 128 455 128 478.5 141 c 128,-1,34
 502 154 502 154 522 174.5 c 128,-1,35
 542 195 542 195 554 224 c 1,36,-1
 667 159 l 1,37,38
 650 119 650 119 618.5 88.5 c 128,-1,39
 587 58 587 58 547.5 37 c 128,-1,40
 508 16 508 16 463 5 c 128,-1,41
 418 -6 418 -6 375 -6 c 0,42,43
 299 -6 299 -6 236 26 c 128,-1,44
 173 58 173 58 127.5 109.5 c 128,-1,45
 82 161 82 161 56.5 226.5 c 128,-1,46
 31 292 31 292 31 360 c 0,7,8
EndSplineSet
EndChar

StartChar: ccircumflex
Encoding: 265 265 204
Width: 564
GlyphClass: 2
Flags: W
LayerCount: 2
Fore
SplineSet
149 629 m 1,0,-1
 255 730 l 1,1,-1
 352 730 l 1,2,-1
 458 629 l 1,3,-1
 389 597 l 1,4,-1
 304 660 l 1,5,-1
 219 597 l 1,6,-1
 149 629 l 1,0,-1
28 262 m 0,7,8
 28 317 28 317 47 366 c 128,-1,9
 66 415 66 415 102 452 c 128,-1,10
 138 489 138 489 189 511 c 128,-1,11
 240 533 240 533 304 533 c 0,12,13
 390 533 390 533 450.5 496 c 128,-1,14
 511 459 511 459 541 399 c 1,15,-1
 410 359 l 1,16,17
 393 388 393 388 365 403.5 c 128,-1,18
 337 419 337 419 303 419 c 0,19,20
 274 419 274 419 249 407.5 c 128,-1,21
 224 396 224 396 205.5 375.5 c 128,-1,22
 187 355 187 355 176.5 326 c 128,-1,23
 166 297 166 297 166 262 c 256,24,25
 166 227 166 227 177 198 c 128,-1,26
 188 169 188 169 206.5 148 c 128,-1,27
 225 127 225 127 250 115.5 c 128,-1,28
 275 104 275 104 303 104 c 0,29,30
 339 104 339 104 369.5 122 c 128,-1,31
 400 140 400 140 412 166 c 1,32,-1
 543 126 l 1,33,34
 516 66 516 66 454 28 c 128,-1,35
 392 -10 392 -10 305 -10 c 0,36,37
 241 -10 241 -10 190 12 c 128,-1,38
 139 34 139 34 103 71.5 c 128,-1,39
 67 109 67 109 47.5 158.5 c 128,-1,40
 28 208 28 208 28 262 c 0,7,8
EndSplineSet
EndChar

StartChar: Cdotaccent
Encoding: 266 266 205
Width: 686
GlyphClass: 2
Flags: W
LayerCount: 2
Fore
SplineSet
31 360 m 0,0,1
 31 425 31 425 54.5 488.5 c 128,-1,2
 78 552 78 552 123 602 c 128,-1,3
 168 652 168 652 233 683 c 128,-1,4
 298 714 298 714 381 714 c 0,5,6
 479 714 479 714 550.5 671 c 128,-1,7
 622 628 622 628 657 559 c 1,8,-1
 551 486 l 1,9,10
 537 516 537 516 517 536.5 c 128,-1,11
 497 557 497 557 474 569 c 128,-1,12
 451 581 451 581 426 586.5 c 128,-1,13
 401 592 401 592 377 592 c 0,14,15
 325 592 325 592 286.5 571 c 128,-1,16
 248 550 248 550 222.5 516.5 c 128,-1,17
 197 483 197 483 184 440.5 c 128,-1,18
 171 398 171 398 171 356 c 0,19,20
 171 309 171 309 186 265.5 c 128,-1,21
 201 222 201 222 228.5 189 c 128,-1,22
 256 156 256 156 294.5 136 c 128,-1,23
 333 116 333 116 379 116 c 0,24,25
 403 116 403 116 429 122 c 128,-1,26
 455 128 455 128 478.5 141 c 128,-1,27
 502 154 502 154 522 174.5 c 128,-1,28
 542 195 542 195 554 224 c 1,29,-1
 667 159 l 1,30,31
 650 119 650 119 618.5 88.5 c 128,-1,32
 587 58 587 58 547.5 37 c 128,-1,33
 508 16 508 16 463 5 c 128,-1,34
 418 -6 418 -6 375 -6 c 0,35,36
 299 -6 299 -6 236 26 c 128,-1,37
 173 58 173 58 127.5 109.5 c 128,-1,38
 82 161 82 161 56.5 226.5 c 128,-1,39
 31 292 31 292 31 360 c 0,0,1
322 789 m 1,40,-1
 322 915 l 1,41,-1
 443 915 l 1,42,-1
 443 789 l 1,43,-1
 322 789 l 1,40,-1
EndSplineSet
EndChar

StartChar: cdotaccent
Encoding: 267 267 206
Width: 564
GlyphClass: 2
Flags: W
LayerCount: 2
Fore
SplineSet
28 262 m 0,0,1
 28 317 28 317 47 366 c 128,-1,2
 66 415 66 415 102 452 c 128,-1,3
 138 489 138 489 189 511 c 128,-1,4
 240 533 240 533 304 533 c 0,5,6
 390 533 390 533 450.5 496 c 128,-1,7
 511 459 511 459 541 399 c 1,8,-1
 410 359 l 1,9,10
 393 388 393 388 365 403.5 c 128,-1,11
 337 419 337 419 303 419 c 0,12,13
 274 419 274 419 249 407.5 c 128,-1,14
 224 396 224 396 205.5 375.5 c 128,-1,15
 187 355 187 355 176.5 326 c 128,-1,16
 166 297 166 297 166 262 c 256,17,18
 166 227 166 227 177 198 c 128,-1,19
 188 169 188 169 206.5 148 c 128,-1,20
 225 127 225 127 250 115.5 c 128,-1,21
 275 104 275 104 303 104 c 0,22,23
 339 104 339 104 369.5 122 c 128,-1,24
 400 140 400 140 412 166 c 1,25,-1
 543 126 l 1,26,27
 516 66 516 66 454 28 c 128,-1,28
 392 -10 392 -10 305 -10 c 0,29,30
 241 -10 241 -10 190 12 c 128,-1,31
 139 34 139 34 103 71.5 c 128,-1,32
 67 109 67 109 47.5 158.5 c 128,-1,33
 28 208 28 208 28 262 c 0,0,1
243 604 m 1,34,-1
 243 730 l 1,35,-1
 364 730 l 1,36,-1
 364 604 l 1,37,-1
 243 604 l 1,34,-1
EndSplineSet
EndChar

StartChar: Ccaron
Encoding: 268 268 207
Width: 686
GlyphClass: 2
Flags: W
LayerCount: 2
Fore
SplineSet
300 915 m 1,0,-1
 385 852 l 1,1,-1
 470 915 l 1,2,-1
 539 883 l 1,3,-1
 433 782 l 1,4,-1
 336 782 l 1,5,-1
 230 883 l 1,6,-1
 300 915 l 1,0,-1
31 360 m 0,7,8
 31 425 31 425 54.5 488.5 c 128,-1,9
 78 552 78 552 123 602 c 128,-1,10
 168 652 168 652 233 683 c 128,-1,11
 298 714 298 714 381 714 c 0,12,13
 479 714 479 714 550.5 671 c 128,-1,14
 622 628 622 628 657 559 c 1,15,-1
 551 486 l 1,16,17
 537 516 537 516 517 536.5 c 128,-1,18
 497 557 497 557 474 569 c 128,-1,19
 451 581 451 581 426 586.5 c 128,-1,20
 401 592 401 592 377 592 c 0,21,22
 325 592 325 592 286.5 571 c 128,-1,23
 248 550 248 550 222.5 516.5 c 128,-1,24
 197 483 197 483 184 440.5 c 128,-1,25
 171 398 171 398 171 356 c 0,26,27
 171 309 171 309 186 265.5 c 128,-1,28
 201 222 201 222 228.5 189 c 128,-1,29
 256 156 256 156 294.5 136 c 128,-1,30
 333 116 333 116 379 116 c 0,31,32
 403 116 403 116 429 122 c 128,-1,33
 455 128 455 128 478.5 141 c 128,-1,34
 502 154 502 154 522 174.5 c 128,-1,35
 542 195 542 195 554 224 c 1,36,-1
 667 159 l 1,37,38
 650 119 650 119 618.5 88.5 c 128,-1,39
 587 58 587 58 547.5 37 c 128,-1,40
 508 16 508 16 463 5 c 128,-1,41
 418 -6 418 -6 375 -6 c 0,42,43
 299 -6 299 -6 236 26 c 128,-1,44
 173 58 173 58 127.5 109.5 c 128,-1,45
 82 161 82 161 56.5 226.5 c 128,-1,46
 31 292 31 292 31 360 c 0,7,8
EndSplineSet
EndChar

StartChar: ccaron
Encoding: 269 269 208
Width: 564
GlyphClass: 2
Flags: W
LayerCount: 2
Fore
SplineSet
219 730 m 1,0,-1
 304 667 l 1,1,-1
 389 730 l 1,2,-1
 458 698 l 1,3,-1
 352 597 l 1,4,-1
 255 597 l 1,5,-1
 149 698 l 1,6,-1
 219 730 l 1,0,-1
28 262 m 0,7,8
 28 317 28 317 47 366 c 128,-1,9
 66 415 66 415 102 452 c 128,-1,10
 138 489 138 489 189 511 c 128,-1,11
 240 533 240 533 304 533 c 0,12,13
 390 533 390 533 450.5 496 c 128,-1,14
 511 459 511 459 541 399 c 1,15,-1
 410 359 l 1,16,17
 393 388 393 388 365 403.5 c 128,-1,18
 337 419 337 419 303 419 c 0,19,20
 274 419 274 419 249 407.5 c 128,-1,21
 224 396 224 396 205.5 375.5 c 128,-1,22
 187 355 187 355 176.5 326 c 128,-1,23
 166 297 166 297 166 262 c 256,24,25
 166 227 166 227 177 198 c 128,-1,26
 188 169 188 169 206.5 148 c 128,-1,27
 225 127 225 127 250 115.5 c 128,-1,28
 275 104 275 104 303 104 c 0,29,30
 339 104 339 104 369.5 122 c 128,-1,31
 400 140 400 140 412 166 c 1,32,-1
 543 126 l 1,33,34
 516 66 516 66 454 28 c 128,-1,35
 392 -10 392 -10 305 -10 c 0,36,37
 241 -10 241 -10 190 12 c 128,-1,38
 139 34 139 34 103 71.5 c 128,-1,39
 67 109 67 109 47.5 158.5 c 128,-1,40
 28 208 28 208 28 262 c 0,7,8
EndSplineSet
EndChar

StartChar: Dcaron
Encoding: 270 270 209
Width: 716
GlyphClass: 2
Flags: W
LayerCount: 2
Fore
SplineSet
245 915 m 1,0,-1
 330 852 l 1,1,-1
 415 915 l 1,2,-1
 484 883 l 1,3,-1
 378 782 l 1,4,-1
 281 782 l 1,5,-1
 175 883 l 1,6,-1
 245 915 l 1,0,-1
74 0 m 1,7,-1
 74 710 l 1,8,-1
 332 710 l 2,9,10
 419 710 419 710 484.5 682 c 128,-1,11
 550 654 550 654 594 606 c 128,-1,12
 638 558 638 558 660 493.5 c 128,-1,13
 682 429 682 429 682 356 c 0,14,15
 682 275 682 275 657.5 209.5 c 128,-1,16
 633 144 633 144 587 97.5 c 128,-1,17
 541 51 541 51 476.5 25.5 c 128,-1,18
 412 0 412 0 332 0 c 2,19,-1
 74 0 l 1,7,-1
543 356 m 0,20,21
 543 407 543 407 529 450 c 128,-1,22
 515 493 515 493 488 524 c 128,-1,23
 461 555 461 555 421.5 572 c 128,-1,24
 382 589 382 589 332 589 c 2,25,-1
 212 589 l 1,26,-1
 212 121 l 1,27,-1
 332 121 l 2,28,29
 383 121 383 121 422.5 139 c 128,-1,30
 462 157 462 157 488.5 188.5 c 128,-1,31
 515 220 515 220 529 263 c 128,-1,32
 543 306 543 306 543 356 c 0,20,21
EndSplineSet
EndChar

